<svg width="159" height="71" viewBox="0 0 159 71" fill="none" xmlns="http://www.w3.org/2000/svg">
<path d="M19.6162 22.2063H31.7828C31.7828 26.245 31.7828 30.2837 31.7828 34.3224H19.6162V22.2063Z" fill="#F25022"/>
<path d="M33.0239 22.2063H45.1906C45.1906 26.245 45.1906 30.2837 45.1906 34.3224H33.0247C33.0247 30.2837 33.0247 26.245 33.0247 22.2063H33.0239Z" fill="#80BA01"/>
<path d="M129.331 26.8226C130.453 26.0949 131.902 26.028 133.166 26.3744C133.177 27.1225 133.166 27.8713 133.171 28.62C132.571 28.3566 131.864 28.1834 131.232 28.4432C130.731 28.6412 130.432 29.1534 130.355 29.6657C130.261 30.3156 130.322 30.9756 130.306 31.6305C131.589 31.6305 132.872 31.6305 134.156 31.6305C134.165 30.801 134.145 29.9707 134.167 29.1411C135.039 28.8937 135.902 28.6164 136.77 28.3559C136.777 29.4474 136.76 30.5426 136.78 31.6363C137.647 31.624 138.515 31.6363 139.383 31.6305V33.7583C138.512 33.7226 137.64 33.7488 136.769 33.7459C136.769 34.9692 136.769 36.1924 136.769 37.4164C136.783 38.0939 136.733 38.775 136.812 39.4503C136.861 39.8484 137.006 40.2894 137.381 40.4953C138.009 40.8453 138.805 40.6925 139.382 40.3083V42.4572C138.63 42.7824 137.789 42.8814 136.976 42.821C136.205 42.7643 135.405 42.4848 134.902 41.875C134.317 41.1844 134.171 40.2493 134.158 39.3747C134.152 37.4972 134.158 35.6197 134.158 33.7416C132.875 33.7416 131.591 33.7416 130.308 33.7416C130.308 36.6882 130.308 39.6347 130.308 42.5809H127.677C127.677 39.6352 127.677 36.6897 127.677 33.7445C127.067 33.7328 126.456 33.7445 125.846 33.735C125.846 33.0357 125.851 32.3357 125.846 31.6356C126.453 31.6218 127.061 31.6276 127.673 31.632C127.717 30.702 127.575 29.7451 127.854 28.8391C128.088 28.0106 128.615 27.2944 129.338 26.8219L129.331 26.8226Z" fill="#777777"/>
<path d="M72.9954 26.9756C73.5259 26.8955 74.1003 27.076 74.4517 27.4893C74.6537 27.7202 74.7795 28.0073 74.8122 28.3117C74.8448 28.6162 74.7828 28.9232 74.6344 29.1914C74.2968 29.7881 73.5383 30.0646 72.8807 29.9191C72.1974 29.7969 71.6282 29.1645 71.6589 28.4594C71.6392 27.7171 72.2625 27.0556 72.9932 26.9727L72.9954 26.9756Z" fill="#777777"/>
<path d="M52.8271 27.3002H56.654C57.8451 30.3134 59.0396 33.3239 60.2375 36.3317C60.5422 37.0848 60.8272 37.8467 61.1465 38.5941C62.681 34.8304 64.2331 31.0763 65.7537 27.3075C66.9806 27.2879 68.2083 27.3032 69.4359 27.3002C69.433 32.3941 69.433 37.488 69.4359 42.5818C68.5502 42.5818 67.6653 42.5891 66.7804 42.5767C66.7899 38.8182 66.7804 35.0597 66.7848 31.2975C66.7848 31.1286 66.7804 30.9598 66.7687 30.7881C66.7171 30.8663 66.6709 30.948 66.6306 31.0326C65.11 34.8799 63.5616 38.7163 62.0482 42.5673C61.4183 42.5898 60.7877 42.5673 60.1571 42.5789C58.5882 38.7316 57.0391 34.8755 55.4804 31.0253C55.4395 30.9453 55.3957 30.8674 55.3482 30.7925C55.316 32.4392 55.343 34.0875 55.3343 35.7342C55.3343 38.0143 55.3343 40.2944 55.3343 42.5746C54.4991 42.5746 53.6638 42.5746 52.8293 42.5746C52.8293 37.4807 52.8293 32.3868 52.8293 27.293L52.8271 27.3002Z" fill="#777777"/>
<path d="M80.2365 31.619C81.5156 31.264 82.8683 31.2681 84.1452 31.6306C84.4078 31.7018 84.6601 31.8064 84.8957 31.9421C84.8811 32.7767 84.8957 33.6121 84.8876 34.4475C84.0393 33.8021 82.9629 33.3931 81.8843 33.5285C81.4556 33.5672 81.0397 33.6947 80.6633 33.9029C80.2869 34.111 79.9584 34.3952 79.6987 34.7372C79.0411 35.5915 78.8884 36.7259 79.0016 37.7709C79.0864 38.5888 79.4262 39.406 80.0648 39.9482C80.7283 40.5354 81.6585 40.7435 82.5266 40.6759C83.3845 40.5776 84.1942 40.216 84.8876 39.7109C84.8949 40.502 84.884 41.293 84.8935 42.084C83.8178 42.7214 82.5281 42.8844 81.2968 42.8255C80.0371 42.7593 78.7809 42.2841 77.869 41.4021C76.8781 40.451 76.3403 39.0946 76.2767 37.736C76.2124 36.3235 76.5011 34.8499 77.3173 33.6703C78.0012 32.6639 79.071 31.9515 80.2365 31.6168V31.619Z" fill="#777777"/>
<path d="M108.977 31.4559C110.194 31.2427 111.467 31.3991 112.619 31.8336C112.619 32.634 112.619 33.4396 112.619 34.2422C111.81 33.6855 110.843 33.3996 109.86 33.4258C109.368 33.4447 108.827 33.6521 108.603 34.1178C108.425 34.5784 108.548 35.1824 108.984 35.4582C109.73 35.9552 110.621 36.1663 111.396 36.6116C112.005 36.9522 112.595 37.3975 112.903 38.0393C113.483 39.2415 113.237 40.8301 112.219 41.7266C111.246 42.6318 109.845 42.8822 108.557 42.8341C107.642 42.7752 106.723 42.5954 105.882 42.2229C105.882 41.378 105.877 40.5339 105.886 39.6898C106.593 40.2087 107.409 40.5596 108.273 40.7158C108.875 40.8133 109.529 40.8177 110.089 40.5499C110.626 40.2843 110.722 39.5253 110.403 39.061C110.105 38.703 109.668 38.5058 109.255 38.3122C108.479 37.9651 107.665 37.6748 106.984 37.1545C106.497 36.7832 106.151 36.2594 106.001 35.6678C105.79 34.7946 105.855 33.8151 106.366 33.0539C106.947 32.1668 107.956 31.6349 108.984 31.453L108.977 31.4559Z" fill="#777777"/>
<path d="M90.7787 31.7972C91.505 31.3606 92.4279 31.3264 93.2208 31.592C93.2208 32.4653 93.2208 33.3385 93.2208 34.2117C92.6914 33.8786 92.0651 33.732 91.4422 33.7955C90.6954 33.8799 90.1035 34.4504 89.7966 35.1053C89.4634 35.7988 89.4005 36.5833 89.4217 37.3415C89.4217 39.088 89.4217 40.8345 89.4217 42.581H86.8276C86.8276 38.9323 86.8276 35.2834 86.8276 31.6342C87.6936 31.6233 88.5595 31.6277 89.4254 31.6342C89.4254 32.2608 89.4254 32.8873 89.4254 33.5146C89.7067 32.8328 90.1254 32.1705 90.7853 31.7987L90.7787 31.7972Z" fill="#777777"/>
<path d="M71.8994 31.6327C72.7719 31.6291 73.6451 31.6204 74.5176 31.6371C74.5074 35.285 74.5176 38.9337 74.5132 42.5816H71.9009C71.9009 38.9325 71.9009 35.2829 71.9009 31.6327H71.8994Z" fill="#777777"/>
<path fill-rule="evenodd" clip-rule="evenodd" d="M101.831 31.8729C100.658 31.3416 99.3264 31.2703 98.0637 31.4304V31.4326C96.7374 31.6 95.4462 32.2207 94.6044 33.2737C93.8357 34.2146 93.463 35.4226 93.3899 36.6211C93.284 38.0335 93.5207 39.5326 94.3537 40.7114C95.0633 41.7288 96.1835 42.4281 97.3936 42.6857C98.4096 42.8963 99.4583 42.8963 100.474 42.6857C101.657 42.4434 102.764 41.7913 103.495 40.8293C104.213 39.9233 104.571 38.7809 104.652 37.6406C104.734 36.4726 104.616 35.2632 104.129 34.1862C103.669 33.1638 102.852 32.342 101.831 31.8729ZM101.051 34.2538C100.482 33.6812 99.6403 33.4585 98.8497 33.5101V33.5116C98.2205 33.5465 97.5848 33.7554 97.1186 34.192C96.4755 34.772 96.1818 35.6365 96.1021 36.477C96.0145 37.3989 96.078 38.3755 96.5018 39.2182C96.666 39.5466 96.8976 39.8369 97.1817 40.0704C97.4659 40.3038 97.7962 40.4751 98.1511 40.5732C98.8586 40.7632 99.6078 40.7304 100.296 40.4793C100.876 40.2414 101.34 39.787 101.588 39.2131C101.968 38.3777 102.006 37.4382 101.959 36.5366C101.894 35.7129 101.659 34.8491 101.051 34.2538Z" fill="#777777"/>
<path fill-rule="evenodd" clip-rule="evenodd" d="M122.94 31.9552C121.741 31.3541 120.349 31.2646 119.034 31.4269V31.4261C117.975 31.5615 116.935 31.9617 116.126 32.6683C115.14 33.5146 114.553 34.759 114.391 36.0317C114.229 37.3045 114.284 38.6449 114.805 39.8361C115.317 41.0153 116.279 41.9439 117.478 42.4187C118.649 42.8764 119.951 42.9295 121.184 42.7309C122.446 42.5213 123.638 41.8664 124.419 40.8476C125.253 39.7983 125.609 38.4404 125.609 37.1174C125.627 36.2318 125.516 35.3339 125.2 34.5021C124.794 33.4008 123.987 32.4917 122.94 31.9552ZM121.853 34.1317C121.28 33.6318 120.488 33.4607 119.745 33.5124V33.5131C119.017 33.5539 118.295 33.8661 117.825 34.4308C117.309 35.0377 117.088 35.8359 117.028 36.6138C116.966 37.4172 117.028 38.249 117.34 39C117.6 39.6301 118.092 40.1781 118.728 40.4459C119.317 40.6984 119.98 40.7435 120.61 40.6496C121.195 40.5638 121.766 40.2822 122.145 39.8259C122.524 39.3696 122.724 38.7947 122.825 38.2184C122.957 37.4432 122.949 36.6508 122.803 35.8781C122.672 35.2189 122.38 34.5683 121.853 34.1317Z" fill="#777777"/>
<path d="M19.6162 35.5588C23.6718 35.5588 27.7273 35.5588 31.7828 35.5588C31.7828 39.5975 31.7828 43.636 31.7828 47.6742H19.6162V35.5588Z" fill="#02A4EF"/>
<path d="M33.0247 35.5603C37.0797 35.5603 41.135 35.5603 45.1906 35.5603V47.6764H33.0239C33.0239 43.6377 33.0239 39.5993 33.0239 35.561L33.0247 35.5603Z" fill="#FFB902"/>
</svg>
