<svg width="159" height="70" viewBox="0 0 159 70" fill="none" xmlns="http://www.w3.org/2000/svg">
<path d="M40.9151 36.8559C40.9151 36.8559 36.1597 36.8559 35.7635 36.8559C28.1853 37.005 28.5815 30.5655 28.5815 30.5655V25.0183H19.6162V33.9097C19.6162 35.1477 20.7802 45.8717 31.9245 45.8717C38.5618 45.8717 40.9151 45.8717 40.9151 45.8717V36.8559Z" fill="#FF0000"/>
<path d="M29.5232 25.0183V29.9709C29.5232 29.9709 28.7801 36.0141 35.2935 35.9642C36.1599 35.9642 40.9158 35.9642 40.9158 35.9642V32.0518H38.414C38.414 32.0518 33.5847 32.6705 33.6346 28.956C33.6346 28.4852 33.6346 25.0183 33.6346 25.0183H29.5232Z" fill="#FF7F00"/>
<path d="M34.6748 25.0183V28.312C34.6748 28.312 34.3032 31.2342 38.1423 31.1355C38.5631 31.1355 40.9164 31.1355 40.9164 31.1355V28.238H39.3556C39.3556 28.238 37.4736 28.3613 37.4983 26.2569C37.4983 25.5631 37.4983 25.0183 37.4983 25.0183H34.6748Z" fill="#FF7F00"/>
<path d="M38.5386 25.0183H40.9165V27.3217C40.9165 27.3217 38.5386 27.6933 38.5386 26.3808C38.5386 25.3899 38.5386 25.0183 38.5386 25.0183Z" fill="#FF7F00"/>
<path d="M134.306 35.9648C131.806 35.3954 129.353 35.1976 129.353 33.662C129.353 32.424 130.79 32.2255 131.781 32.2255C133.341 32.2255 134.653 32.6711 134.777 34.3306H138.938C138.591 30.5168 135.396 29.3774 131.904 29.3774C130.294 29.3774 128.66 29.6251 127.372 30.2691L127.521 29.7983H123.038L120.116 40.2992H120.042L117.318 29.7983H113.057L110.408 40.3239H110.358L107.436 29.7983H102.803L102.953 30.1951C101.566 29.5758 99.8079 29.378 98.223 29.378C98.0493 29.378 97.8767 29.378 97.7276 29.4026C94.6066 29.5018 91.5605 30.5667 90.8426 33.6373V25.0183H86.4589V33.3151C85.2702 30.616 82.918 29.3774 80.6886 29.3774C80.1679 29.3774 79.6731 29.4267 79.1782 29.5265C77.7665 29.8235 76.4785 30.5168 75.6861 31.6808H75.6116V25.0183H71.2284V32.9681C69.8911 30.7146 67.3894 29.3769 64.1949 29.3769C59.1924 29.3769 55.948 32.6218 55.948 37.5738C55.948 38.7631 56.1464 39.8772 56.5174 40.8434C55.1308 40.8434 53.3968 40.8434 52.0602 40.8434C48.4689 40.8434 48.5183 39.1593 48.5183 37.7969V25.0183H44.1099C44.1099 25.0183 44.1597 37.6741 44.1099 40.1255C44.1099 45.0299 47.9489 45.1784 51.3171 45.1784H58.8208V44.0391C60.2079 45.1286 62.0159 45.7237 64.1949 45.7237C67.3899 45.7237 69.8911 44.386 71.2284 42.1319V45.3023H75.3891V43.3211H75.4636C76.2062 44.6589 77.5434 45.3768 79.1782 45.624C79.649 45.6985 80.1685 45.7237 80.6886 45.7237C82.918 45.7237 85.2702 44.4852 86.4589 41.7855V45.3023H90.8426V43.519C91.7589 45.0047 93.5664 45.7237 95.6473 45.7237C96.3405 45.7237 97.0338 45.6486 97.7276 45.5007C98.9651 45.253 100.13 44.7082 101.021 43.7913C101.046 44.3114 101.17 44.8321 101.318 45.3023H105.776C105.38 44.683 105.206 43.2712 105.206 41.8595V37.2028L107.856 45.3017H112.389L115.113 34.8994H115.162L117.985 45.3017H122.517L125.465 36.1626C126.332 37.5256 128.164 38.0945 130.022 38.4902C133.167 39.1593 135 39.6049 135 40.8928C135 42.4037 133.39 42.8739 132.103 42.8739C130.393 42.8739 128.784 42.1308 128.759 40.2735H124.598C124.797 44.3596 128.388 45.7226 132.103 45.7226C135.718 45.7226 139.383 44.4095 139.383 40.3228C139.384 37.4505 136.857 36.5342 134.306 35.9648ZM64.1949 42.5029C61.2229 42.5029 60.3312 40.0269 60.3312 37.5744C60.3312 35.0984 61.2223 32.5971 64.1949 32.5971C67.1422 32.5971 68.0339 35.0984 68.0339 37.5744C68.0333 40.0269 67.1417 42.5029 64.1949 42.5029ZM79.2028 42.5029H79.1782C76.6024 42.5029 75.4636 40.1255 75.4636 37.5744C75.4636 34.9493 76.6024 32.5971 79.1782 32.5971H79.2028C81.7786 32.5971 82.918 34.9498 82.918 37.5744C82.918 40.1496 81.7786 42.5029 79.2028 42.5029ZM100.848 39.3078C100.848 40.1995 100.724 42.6267 97.7282 42.8487C97.5791 42.8487 97.4311 42.8739 97.2821 42.8739C95.8698 42.8739 94.607 42.4782 94.607 40.8928C94.607 39.333 95.8456 38.8869 97.1834 38.6151C97.3566 38.5899 97.5556 38.5652 97.7287 38.54C98.9415 38.3669 100.205 38.2682 100.849 37.7235L100.848 39.3078ZM97.7282 36.1128C97.0842 36.1879 96.3657 36.2624 95.6478 36.3857C93.7406 36.6334 91.8088 37.1283 90.8432 38.6392V34.5772H95.103C95.2521 32.9923 96.2178 32.299 97.7287 32.2245C97.8027 32.2245 97.9019 32.2245 98.0005 32.2245C99.5356 32.2245 100.849 32.5215 100.849 34.3295C100.848 35.6179 99.5104 35.8908 97.7282 36.1128Z" fill="black"/>
</svg>
