<svg width="158" height="71" viewBox="0 0 158 71" fill="none" xmlns="http://www.w3.org/2000/svg">
<g clip-path="url(#clip0_32_147)">
<path fill-rule="evenodd" clip-rule="evenodd" d="M90.8629 43.6258C85.0639 47.8848 76.658 50.152 69.4188 50.152C59.7457 50.2019 50.4024 46.6541 43.2199 40.204C42.6768 39.7156 43.1638 39.0494 43.8155 39.4261C51.7978 43.9678 60.8344 46.3524 70.0285 46.343C76.8975 46.3088 83.692 44.9243 90.022 42.2689C90.9996 41.8643 91.8125 42.9212 90.8629 43.6258Z" fill="#FF9900"/>
<path fill-rule="evenodd" clip-rule="evenodd" d="M93.2777 40.8842C92.5349 39.9389 88.3722 40.4342 86.5046 40.6575C85.937 40.7272 85.8494 40.2354 86.3609 39.8761C89.6792 37.5566 95.1208 38.2263 95.7515 39.0041C96.3822 39.782 95.5833 45.2164 92.4753 47.8046C91.9953 48.2057 91.5398 47.993 91.7535 47.4558C92.4508 45.7257 94.0205 41.8295 93.2777 40.8842Z" fill="#FF9900"/>
<path fill-rule="evenodd" clip-rule="evenodd" d="M86.6373 23.4821V21.2288C86.6354 21.1532 86.6489 21.0779 86.6771 21.0077C86.7053 20.9374 86.7476 20.8736 86.8013 20.8201C86.8551 20.7665 86.9192 20.7245 86.9898 20.6964C87.0604 20.6683 87.136 20.6548 87.212 20.6568H97.3734C97.4498 20.6544 97.526 20.6674 97.5973 20.6949C97.6687 20.7225 97.7337 20.764 97.7886 20.817C97.8435 20.87 97.8872 20.9335 97.917 21.0036C97.9467 21.0738 97.9621 21.1492 97.962 21.2253V23.1612C97.962 23.4856 97.6852 23.9077 97.1982 24.5809L91.9423 32.0559C93.894 32.0105 95.9613 32.3 97.7343 33.2942C97.8927 33.3819 98.0257 33.509 98.1203 33.663C98.2148 33.817 98.2677 33.9928 98.2739 34.1732V36.5765C98.2766 36.6666 98.2567 36.7561 98.2158 36.8366C98.1749 36.9171 98.1145 36.9862 98.04 37.0375C97.9654 37.0888 97.8792 37.1208 97.7891 37.1304C97.6989 37.14 97.6078 37.1271 97.524 37.0927C95.8644 36.2437 94.0247 35.8026 92.1587 35.8063C90.2928 35.8099 88.4548 36.2582 86.7985 37.1136C86.4481 37.2985 86.0732 36.9218 86.0732 36.5904V34.3022C86.0408 33.7599 86.1726 33.2204 86.4516 32.7535L92.545 24.0333H87.2225C87.1474 24.0365 87.0724 24.0247 87.002 23.9986C86.9316 23.9725 86.8672 23.9325 86.8126 23.8811C86.758 23.8297 86.7144 23.7679 86.6843 23.6993C86.6541 23.6308 86.6382 23.5569 86.6373 23.4821Z" fill="black"/>
<path fill-rule="evenodd" clip-rule="evenodd" d="M49.5971 37.567H46.5102C46.3708 37.5603 46.2384 37.5042 46.1369 37.4089C46.0354 37.3137 45.9714 37.1854 45.9565 37.0473V21.2636C45.9602 21.1097 46.0249 20.9635 46.1366 20.857C46.2482 20.7505 46.3976 20.6922 46.5522 20.6951H49.4289C49.5714 20.6997 49.7072 20.7562 49.8106 20.854C49.9139 20.9517 49.9776 21.0838 49.9896 21.2252V23.2867H50.0491C50.799 21.2915 52.2111 20.3637 54.1137 20.3637C56.0164 20.3637 57.2673 21.2915 58.1222 23.2867C58.4079 22.5353 58.889 21.873 59.5163 21.3675C60.1436 20.862 60.8945 20.5315 61.6923 20.4098C62.49 20.288 63.306 20.3795 64.0565 20.6748C64.8071 20.9701 65.4654 21.4586 65.964 22.0903C66.9451 23.4193 66.7419 25.3447 66.7419 27.0399V36.9984C66.7382 37.1523 66.6735 37.2985 66.5619 37.405C66.4503 37.5116 66.3008 37.5698 66.1462 37.567H63.0803C62.9327 37.5599 62.7934 37.4972 62.6906 37.3916C62.5878 37.286 62.5292 37.1455 62.5267 36.9984V28.627C62.5267 27.9608 62.5827 26.3004 62.4391 25.6691C62.2078 24.6227 61.5175 24.3087 60.624 24.3087C60.2228 24.3207 59.8339 24.4497 59.5056 24.6798C59.1773 24.9099 58.9241 25.2308 58.7775 25.6028C58.4586 26.4016 58.4901 27.7305 58.4901 28.627V36.9984C58.4865 37.1523 58.4217 37.2985 58.3101 37.405C58.1985 37.5116 58.0491 37.5698 57.8945 37.567H54.8075C54.6597 37.5608 54.5198 37.4983 54.4169 37.3926C54.3139 37.2868 54.2555 37.1457 54.2539 36.9984V28.627C54.2539 26.8655 54.5412 24.2738 52.3512 24.2738C50.1613 24.2738 50.2173 26.7992 50.2173 28.627V36.9984C50.2156 37.0768 50.198 37.154 50.1656 37.2254C50.1332 37.2968 50.0866 37.3609 50.0287 37.414C49.9708 37.4671 49.9027 37.508 49.8286 37.5343C49.7544 37.5606 49.6757 37.5717 49.5971 37.567Z" fill="black"/>
<path fill-rule="evenodd" clip-rule="evenodd" d="M106.689 20.3638C111.276 20.3638 113.753 24.2809 113.753 29.2654C113.753 34.079 111.016 37.8985 106.689 37.8985C102.19 37.8985 99.7407 33.9813 99.7407 29.098C99.7407 24.2146 102.218 20.3638 106.689 20.3638ZM106.717 23.5833C104.44 23.5833 104.296 26.6737 104.296 28.5992C104.296 30.5246 104.268 34.6441 106.689 34.6441C109.11 34.6441 109.198 31.3234 109.198 29.2968C109.198 27.9678 109.142 26.3738 108.735 25.1111C108.388 24.0193 107.698 23.5833 106.717 23.5833Z" fill="black"/>
<path fill-rule="evenodd" clip-rule="evenodd" d="M119.7 37.5671H116.624C116.476 37.5608 116.336 37.4984 116.233 37.3926C116.13 37.2869 116.072 37.1458 116.07 36.9985V21.2114C116.088 21.0677 116.158 20.9355 116.267 20.8402C116.376 20.7449 116.517 20.6932 116.662 20.6951H119.529C119.656 20.6996 119.779 20.7453 119.878 20.8252C119.977 20.9051 120.048 21.0149 120.079 21.1381V23.5519H120.135C121 21.3928 122.213 20.3638 124.34 20.3638C125.052 20.3307 125.76 20.4852 126.393 20.8116C127.026 21.138 127.561 21.6248 127.945 22.2229C128.751 23.4856 128.751 25.6099 128.751 27.1377V37.0683C128.731 37.2091 128.659 37.3375 128.55 37.4294C128.441 37.5213 128.302 37.5702 128.159 37.5671H125.061C124.926 37.5604 124.797 37.5069 124.696 37.4159C124.596 37.3249 124.531 37.202 124.511 37.0683V28.5015C124.511 26.7575 124.715 24.2495 122.581 24.2495C122.192 24.2663 121.817 24.3944 121.5 24.6184C121.183 24.8424 120.938 25.1528 120.794 25.5122C120.412 26.4608 120.245 27.4813 120.303 28.5015V36.9985C120.297 37.1527 120.23 37.2984 120.118 37.4046C120.005 37.5107 119.855 37.569 119.7 37.5671Z" fill="black"/>
<path fill-rule="evenodd" clip-rule="evenodd" d="M78.5426 30.0292C78.5426 31.2291 78.5706 32.2267 77.9644 33.2906C77.7656 33.6925 77.462 34.034 77.0855 34.2794C76.7089 34.5248 76.2731 34.6652 75.8235 34.6858C74.6392 34.6858 73.9454 33.7859 73.9454 32.4569C73.9454 29.8374 76.3071 29.3595 78.5426 29.3595V30.0292ZM81.6541 37.5286C81.5543 37.6129 81.4309 37.6648 81.3007 37.6773C81.1704 37.6897 81.0394 37.6622 80.9253 37.5984C80.2157 37.0282 79.6161 36.3345 79.1558 35.5509C77.4599 37.2705 76.258 37.7833 74.061 37.7833C71.4611 37.7833 69.4393 36.1857 69.4393 32.9906C69.404 31.9176 69.7011 30.8598 70.2903 29.9606C70.8796 29.0615 71.7323 28.3645 72.733 27.9643C74.4079 27.2352 76.7486 27.0992 78.5426 26.9004V26.5027C78.5426 25.7702 78.5986 24.9052 78.1642 24.2704C77.9617 24.0082 77.6986 23.7986 77.3972 23.6595C77.0958 23.5204 76.765 23.4559 76.4332 23.4716C75.2524 23.4716 74.2047 24.075 73.9489 25.3203C73.9328 25.4595 73.8719 25.5897 73.7753 25.6916C73.6786 25.7934 73.5515 25.8614 73.4128 25.8854L70.4169 25.561C70.3433 25.5515 70.2723 25.5269 70.2086 25.4888C70.1449 25.4508 70.0898 25.4 70.0467 25.3398C70.0036 25.2795 69.9735 25.2111 69.9582 25.1387C69.9429 25.0663 69.9428 24.9916 69.9579 24.9191C70.6587 21.302 73.9244 20.2102 76.8642 20.2102C78.3674 20.2102 80.3331 20.6113 81.5174 21.7415C83.0206 23.1367 82.877 25.0029 82.877 27.0329V31.8256C82.877 33.2662 83.4761 33.8975 84.0403 34.6754C84.1485 34.7838 84.2093 34.9306 84.2093 35.0835C84.2093 35.2364 84.1485 35.3831 84.0403 35.4916C83.4061 36.0183 82.2883 36.988 81.6681 37.5356L81.6541 37.5286Z" fill="black"/>
<path fill-rule="evenodd" clip-rule="evenodd" d="M38.0489 30.0292C38.0489 31.2291 38.077 32.2267 37.4708 33.2906C37.2728 33.6925 36.97 34.034 36.5939 34.2795C36.2179 34.5249 35.7825 34.6653 35.3334 34.6858C34.1455 34.6858 33.4518 33.7859 33.4518 32.4569C33.4518 29.8374 35.8134 29.3595 38.0489 29.3595V30.0292ZM41.1639 37.5286C41.0633 37.6128 40.9395 37.6645 40.8087 37.677C40.6779 37.6894 40.5464 37.662 40.4316 37.5984C39.722 37.0282 39.1225 36.3345 38.6621 35.5509C36.9662 37.2705 35.7644 37.7833 33.5674 37.7833C30.9675 37.7833 28.9457 36.1857 28.9457 32.9906C28.9104 31.9176 29.2075 30.8598 29.7967 29.9606C30.3859 29.0615 31.2387 28.3645 32.2394 27.9643C33.9143 27.2352 36.2549 27.0992 38.0489 26.9004V26.5027C38.0489 25.7702 38.105 24.9052 37.674 24.2704C37.4689 24.0058 37.2022 23.7949 36.897 23.6557C36.5918 23.5166 36.2572 23.4534 35.922 23.4716C34.7447 23.4716 33.697 24.075 33.4377 25.3203C33.4216 25.4595 33.3607 25.5897 33.2641 25.6916C33.1675 25.7934 33.0403 25.8614 32.9016 25.8854L29.9093 25.561C29.8353 25.5519 29.764 25.5277 29.6999 25.4898C29.6357 25.4519 29.5802 25.4012 29.5368 25.3409C29.4933 25.2806 29.4629 25.212 29.4474 25.1394C29.4319 25.0668 29.4317 24.9918 29.4468 24.9191C30.1475 21.302 33.4132 20.2102 36.353 20.2102C37.8562 20.2102 39.8219 20.6113 41.0062 21.7415C42.5094 23.1367 42.3658 25.0029 42.3658 27.0329V31.8256C42.3658 33.2662 42.965 33.8975 43.5326 34.6754C43.64 34.7843 43.7002 34.9308 43.7002 35.0835C43.7002 35.2361 43.64 35.3827 43.5326 35.4916C42.9019 36.0183 41.7806 36.988 41.1639 37.5356V37.5286Z" fill="black"/>
</g>
<defs>
<clipPath id="clip0_32_147">
<rect width="99.8062" height="29.9419" fill="white" transform="translate(28.9443 20.2102)"/>
</clipPath>
</defs>
</svg>
