<svg width="158" height="71" viewBox="0 0 158 71" fill="none" xmlns="http://www.w3.org/2000/svg">
<path d="M51.2217 29.9129H38.4268V33.7095H47.5018C47.0521 39.0237 42.624 41.3048 38.4421 41.3048C37.1173 41.3106 35.8046 41.0524 34.5807 40.5454C33.3567 40.0383 32.2461 39.2925 31.3135 38.3515C30.381 37.4105 29.6452 36.2931 29.1493 35.0647C28.6533 33.8362 28.407 32.5212 28.4248 31.1965C28.4248 25.449 32.8744 21.0239 38.4544 21.0239C42.7589 21.0239 45.2954 23.7679 45.2954 23.7679L47.9525 21.0147C47.9525 21.0147 44.5391 17.2161 38.3154 17.2161C30.39 17.2161 24.2593 23.9048 24.2593 31.1291C24.2593 38.2082 30.0262 45.1116 38.5157 45.1116C45.9832 45.1116 51.4496 39.9956 51.4496 32.4311C51.4496 30.8348 51.2177 29.9129 51.2177 29.9129H51.2217Z" fill="#4885ED"/>
<path d="M61.7041 27.1629C56.4533 27.1629 52.6904 31.2681 52.6904 36.054C52.6904 40.9124 56.3388 45.0932 61.7655 45.0932C66.677 45.0932 70.7005 41.3396 70.7005 36.1582C70.7005 30.2308 66.0199 27.1619 61.7041 27.1619V27.1629ZM61.7552 30.6846C64.3367 30.6846 66.7833 32.7724 66.7833 36.1357C66.7833 39.4265 64.3469 41.5746 61.743 41.5746C58.8815 41.5746 56.6332 39.2834 56.6332 36.1092C56.6332 33.0024 58.861 30.6846 61.7634 30.6846H61.7552Z" fill="#DB3236"/>
<path d="M81.3047 27.1629C76.0539 27.1629 72.291 31.2681 72.291 36.054C72.291 40.9124 75.9394 45.0932 81.3661 45.0932C86.2776 45.0932 90.3011 41.3396 90.3011 36.1582C90.3011 30.2308 85.6205 27.1619 81.3047 27.1619V27.1629ZM81.3558 30.6846C83.9373 30.6846 86.3839 32.7724 86.3839 36.1357C86.3839 39.4265 83.9475 41.5746 81.3436 41.5746C78.4821 41.5746 76.2338 39.2834 76.2338 36.1092C76.2338 33.0024 78.4616 30.6846 81.364 30.6846H81.3558Z" fill="#F4C20D"/>
<path d="M100.532 27.1731C95.7122 27.1731 91.9248 31.3938 91.9248 36.1316C91.9248 41.5276 96.3162 45.1065 100.448 45.1065C103.003 45.1065 104.362 44.0917 105.353 42.9277V44.6957C105.353 47.7892 103.475 49.642 100.64 49.642C97.9012 49.642 96.5277 47.6052 96.0413 46.4504L92.5952 47.8811C93.8175 50.4667 96.2784 53.1616 100.669 53.1616C105.472 53.1616 109.112 50.1438 109.112 43.8137V27.7117H105.368V29.2303C104.213 27.9835 102.631 27.1731 100.534 27.1731H100.532ZM100.879 30.6887C103.242 30.6887 105.668 32.706 105.668 36.151C105.668 39.6533 103.246 41.5828 100.827 41.5828C98.2579 41.5828 95.8675 39.498 95.8675 36.1838C95.8675 32.7418 98.3509 30.6887 100.879 30.6887Z" fill="#4885ED"/>
<path d="M125.849 27.1516C121.303 27.1516 117.486 30.7694 117.486 36.104C117.486 41.7514 121.741 45.1004 126.275 45.1004C130.069 45.1004 132.407 43.0258 133.787 41.1658L130.687 39.1035C129.883 40.3503 128.538 41.5715 126.295 41.5715C123.774 41.5715 122.616 40.1919 121.897 38.8531L133.918 33.8659L133.305 32.4045C132.144 29.543 129.434 27.1516 125.849 27.1516ZM126.005 30.5997C127.644 30.5997 128.822 31.4704 129.323 32.5149L121.294 35.87C120.947 33.2722 123.41 30.5997 125.995 30.5997H126.005Z" fill="#DB3236"/>
<path d="M111.744 44.569H115.693V18.144H111.744V44.569Z" fill="#3CBA54"/>
</svg>
