<svg width="158" height="71" viewBox="0 0 158 71" fill="none" xmlns="http://www.w3.org/2000/svg">
<path d="M53.896 44.6105V49.9527C62.4264 45.1224 78.6094 37.9001 103.061 35.8908V34.7363C85.0879 35.7231 68.1114 39.0872 53.896 44.6045" fill="#FFD401"/>
<path d="M53.896 51.9248V55.5961C66.0684 46.544 83.8932 40.3189 103.061 38.2607V37.1462C84.1212 38.8632 67.4748 43.9917 53.896 51.9248Z" fill="#B00B1C"/>
<path d="M81.0952 22.5354C80.766 22.5429 80.4368 22.5191 80.1122 22.4642V18.8879C80.1034 18.3202 80.132 17.7526 80.198 17.1888C80.5737 17.0938 80.9594 17.044 81.3469 17.0404C83.2952 17.0404 84.1597 17.8669 84.1597 19.6669C84.1597 22.1674 82.2751 22.522 81.1011 22.5398M84.6379 27.3003C84.6379 29.7577 83.27 30.7624 81.2092 30.7624C80.8416 30.768 80.4749 30.7261 80.1181 30.6377V23.7166H81.0256C83.6253 23.7166 84.6379 25.0403 84.6379 27.2959M83.8118 22.9079C85.6654 22.387 87.2243 21.0618 87.2243 19.0496C87.2243 17.1205 85.9704 15.8206 83.4047 15.8206C82.1804 15.8206 80.6422 15.9452 79.5318 15.9452C78.4215 15.9452 77.2815 15.9333 75.952 15.8636L75.8691 15.8517V16.7495H75.9461C77.0594 16.8341 77.1409 17.0463 77.1409 18.8508V29.504C77.1409 30.4567 77.0165 30.9226 76.1475 30.9879L75.8913 31.0087V31.8902C76.7352 31.8382 78.2971 31.8011 78.9766 31.8011C79.6562 31.8011 80.1817 31.8382 81.0389 31.8738C86.1658 32.1009 87.8343 29.1805 87.8343 26.8284C87.8343 24.0238 85.7779 23.3189 83.8148 22.9183L83.8118 22.9079Z" fill="#FFD401"/>
<path d="M67.7763 29.7339C66.7607 30.3661 65.5764 30.6317 64.238 30.6317C60.6198 30.6317 58.8225 27.8389 58.8225 23.4094C58.8225 19.5066 60.5457 16.9275 63.8472 16.9275C64.9709 16.9275 65.8813 17.3282 66.4824 17.898C66.5816 18.2616 66.7148 20.164 66.7148 20.164H67.6372V20.0957C67.6461 19.2707 67.8755 17.3549 68.0487 16.3859V16.3117H67.9806C66.6852 15.9659 65.3647 15.6736 63.6059 15.6736C59.6249 15.6736 55.5625 18.088 55.5625 23.678C55.5625 29.541 59.1304 32.083 63.4312 32.083C64.6155 32.083 66.1745 31.9035 67.4388 31.209L67.458 31.2001L68.0709 30.0352L67.8222 29.6968L67.7704 29.7295" fill="#FFD401"/>
<path d="M101.054 29.7339C100.041 30.3661 98.858 30.6317 97.5152 30.6317C93.9 30.6317 92.1012 27.8389 92.1012 23.4094C92.1012 19.5066 93.8259 16.9275 97.1259 16.9275C98.2525 16.9275 99.1615 17.3282 99.7611 17.898C99.8588 18.2616 99.9921 20.164 99.9921 20.164H100.919V20.0957C100.982 18.852 101.119 17.6131 101.33 16.3859L101.339 16.3117H101.271C99.9713 15.9659 98.6522 15.6736 96.892 15.6736C92.914 15.6736 88.8516 18.088 88.8516 23.678C88.8516 29.541 92.4195 32.083 96.7232 32.083C97.8987 32.083 99.4665 31.9035 100.729 31.209L100.747 31.2001L101.36 30.0352L101.111 29.6968L101.058 29.7295" fill="#FFD401"/>
<path d="M71.9387 15.9436C71.0075 15.9436 69.9608 15.9317 69.0725 15.8575L69.0015 15.8501V16.7405H69.0636C70.2273 16.8147 70.3798 17.0061 70.3798 19.0243V29.1403C70.3798 30.6866 70.3043 30.921 69.1199 31.0011H69.0562V31.8915L69.1273 31.8841C70.0156 31.8054 70.969 31.7906 71.8958 31.7906C72.8225 31.7906 73.6812 31.8054 74.6465 31.8841L74.7161 31.8915V31.0011H74.6568C73.4725 30.9255 73.4073 30.6866 73.4073 29.1403V19.0257C73.4073 16.9734 73.4814 16.8161 74.6524 16.7419H74.7116V15.8516L74.642 15.859C73.6812 15.9332 72.8522 15.9451 71.9387 15.9451" fill="#FFD401"/>
</svg>
