<svg width="158" height="71" viewBox="0 0 158 71" fill="none" xmlns="http://www.w3.org/2000/svg">
<path fill-rule="evenodd" clip-rule="evenodd" d="M68.0199 43.6211C68.4077 43.5908 68.7924 43.53 69.1706 43.4392C69.6356 43.343 70.0866 43.1882 70.5126 42.9783C70.5721 42.947 70.6317 42.947 70.6913 42.8874C70.7648 42.8605 70.8352 42.8258 70.9013 42.7839L70.9452 42.74C71.0048 42.74 71.0362 42.693 71.0644 42.6805C71.2431 42.5456 71.4093 42.4265 71.5723 42.3074L71.588 42.276L71.6319 42.2321H71.6476C72.2312 41.7367 72.6862 41.1074 72.9738 40.3979C73.4352 39.4397 73.5311 38.346 73.2435 37.3221C73.1368 37.0365 73.0122 36.758 72.8703 36.4881L72.8265 36.4285L72.7951 36.3846L72.7669 36.3533C72.523 36.0194 72.2362 35.719 71.9141 35.4597C71.7949 35.3688 71.7071 35.3092 71.6319 35.2496C71.5566 35.1901 71.4688 35.1305 71.334 35.0992C71.281 35.0544 71.2205 35.0193 71.1553 34.9957C70.5067 34.6694 69.8027 34.4673 69.0797 34.4C67.628 34.2616 66.1701 34.5912 64.9191 35.3406L64.872 35.3876C64.3707 35.7399 63.9274 36.1683 63.5583 36.6574C63.0228 37.4151 62.6932 38.2988 62.602 39.2222H62.5738C62.3923 38.9425 62.1593 38.6999 61.8872 38.5073C61.8276 38.5073 61.8276 38.4477 61.7837 38.4477L61.7367 38.4038C61.3997 38.1902 61.0401 38.0146 60.6644 37.8802C60.1013 37.708 59.5286 37.5687 58.9493 37.4632C58.8741 37.4475 58.8584 37.4036 58.8427 37.4036C58.8427 37.3441 58.9023 37.3723 58.9776 37.3441C59.4655 37.2419 59.9446 37.1014 60.4104 36.9239C60.8207 36.7787 61.1946 36.5463 61.5064 36.2426C61.8182 35.939 62.0604 35.5713 62.2164 35.165C62.2569 35.0336 62.2811 34.8978 62.2885 34.7605C62.2603 34.5975 62.2885 34.4188 62.2603 34.2683C62.2 33.9644 62.0721 33.6781 61.8859 33.4306C61.6997 33.183 61.4601 32.9807 61.1848 32.8386C59.752 32.2554 58.1435 32.1519 56.5602 32.1049C56.0397 32.1049 55.5318 32.1049 55.0239 32.0767L54.98 32.0923C53.6819 32.0923 52.3682 32.1519 51.0858 32.1362C51.0263 32.1519 51.0263 32.1801 50.9792 32.1958C50.9747 32.2301 50.9747 32.2649 50.9792 32.2993L51.0388 32.3902C51.2129 32.4907 51.3981 32.5707 51.5906 32.6285C51.6889 32.6984 51.7747 32.7842 51.8446 32.8825C51.9042 35.0145 51.4119 37.134 51.2018 39.2692C51.0864 40.2134 50.9126 41.1495 50.6814 42.0722C50.4799 42.4738 50.2176 42.8418 49.9038 43.1633V43.2511L50.0073 43.295C52.202 43.2354 54.3654 43.4894 56.5571 43.4016C57.1314 43.389 57.7043 43.3387 58.2721 43.2511C58.7279 43.1815 59.1776 43.0767 59.6172 42.9376C59.705 42.9376 59.7206 42.878 59.7645 42.9062C59.8555 42.878 59.8711 42.8466 59.915 42.8466C60.0578 42.809 60.1973 42.7597 60.332 42.6993C60.3916 42.6522 60.4512 42.6397 60.5107 42.5927C60.8243 42.4453 61.0939 42.2791 61.3479 42.1318C61.7218 41.8658 62.0619 41.5552 62.3606 41.2068C62.5055 40.9576 62.6212 40.6924 62.7055 40.4167H62.7494C62.8249 40.5339 62.8761 40.665 62.8999 40.8024C62.8999 40.8933 62.9595 40.909 62.9595 40.9529C63.0855 41.2702 63.2509 41.5704 63.4517 41.8465C63.7124 42.2451 64.0722 42.5693 64.4958 42.7871V42.831H64.5428L64.5867 42.8623C65.6432 43.409 66.8305 43.6521 68.0168 43.5646L68.0199 43.6211ZM95.1753 51.124C95.1471 51.1397 95.1157 51.124 95.0875 51.124C94.3196 51.1664 93.5586 51.2915 92.8175 51.4971C92.0581 51.7538 91.3996 52.2444 90.9363 52.8986C90.7092 53.2154 90.5375 53.5685 90.4284 53.9427L90.3688 53.9897L90.3249 54.0179C90.1007 54.1854 89.8861 54.3655 89.6822 54.5572H89.6383L89.6226 54.5854L89.5787 54.6168C89.3134 54.8491 89.0292 55.0588 88.729 55.2439L88.6977 55.2878C88.6154 55.3167 88.5358 55.3524 88.4594 55.3944C88.428 55.4539 88.3559 55.4539 88.3246 55.4978C87.5344 55.7957 86.5782 56.1688 85.7128 56.0058C85.6689 55.9619 85.625 55.9305 85.625 55.9023L85.5811 55.8427C85.5811 55.7361 85.625 55.6609 85.625 55.5731C86.0138 54.9899 86.4904 54.4976 86.9513 53.8706C88.5472 51.9016 90.2653 49.8887 91.8017 47.9134C91.7932 47.8735 91.7723 47.8373 91.7421 47.8099L91.6073 47.7503C89.6665 47.7503 87.7445 47.7503 85.7442 47.719C85.2362 47.7503 84.7283 47.719 84.236 47.7503C84.1765 47.7503 84.1765 47.7786 84.1326 47.8099C83.9225 48.0639 83.7156 48.3022 83.5055 48.5561C83.1637 49.0484 82.7593 49.4215 82.4332 49.9576C82.5036 49.9548 82.571 49.9283 82.6245 49.8824C82.7822 49.8134 82.9325 49.7283 83.0728 49.6284C83.2954 49.525 83.4773 49.4058 83.6842 49.3149C83.8955 49.1782 84.1204 49.0637 84.3552 48.9731C85.1923 48.6157 86.2364 48.1235 87.177 48.3022L87.2052 48.3461L87.2366 48.3617V48.4056C86.6848 49.7476 85.4463 50.6725 84.5935 51.911C83.4302 53.4034 82.0444 54.8519 80.9847 56.4322C81.0286 56.4761 81.0286 56.5356 81.0442 56.5513L81.1634 56.6266C83.5964 56.6266 86.0577 56.6548 88.5472 56.6548C88.8609 56.6759 89.1759 56.6665 89.4878 56.6266C89.817 56.0591 90.0835 55.432 90.3531 54.8519H90.4441C90.4802 55.1647 90.5875 55.465 90.7576 55.7298C91.0648 56.0965 91.4673 56.371 91.9208 56.5231C92.9742 56.871 94.1132 56.86 95.1596 56.4917C95.356 56.4178 95.5458 56.3276 95.7271 56.2221C95.907 56.0965 96.0769 55.9571 96.2351 55.8051C96.3856 56.0591 96.4169 56.4322 96.5956 56.6422L96.6552 56.6861C97.3701 56.6861 98.1006 56.7175 98.8907 56.7018H99.847L99.8784 56.6548C98.9221 54.8519 99.8627 52.8516 99.9975 50.9265V50.0768C99.9814 49.7471 99.9202 49.4211 99.8157 49.108C99.5492 48.4056 98.9064 48.0325 98.2668 47.7786C98.2072 47.7786 98.1602 47.7503 98.1006 47.7503C97.4948 47.5718 96.8666 47.481 96.2351 47.4807C95.8745 47.4807 95.5171 47.4964 95.1596 47.5089C94.5375 47.536 93.9213 47.6413 93.3255 47.8225C93.0857 47.8906 92.851 47.9755 92.6231 48.0764C92.4287 48.136 92.2657 48.1956 92.0556 48.2551C91.9522 48.3586 91.8173 48.3743 91.7139 48.4495L91.6543 48.5091C91.5634 49.1362 91.7735 49.7444 91.8926 50.3715H91.9365C92.6388 49.5971 93.2659 48.6721 94.2661 48.2395C94.3256 48.2395 94.3382 48.1956 94.3977 48.1956C94.6456 48.1124 94.9007 48.0526 95.1596 48.0168C95.4896 47.9774 95.8229 48.0563 96.1003 48.2395C96.2532 48.3579 96.393 48.4925 96.5173 48.6408C96.5329 48.6878 96.5329 48.7474 96.5768 48.7474C96.7572 49.4535 96.8082 50.1865 96.7273 50.9108C96.7032 50.9593 96.6697 51.0025 96.6289 51.0381C96.588 51.0736 96.5404 51.1006 96.489 51.1177C96.0846 51.1334 95.6394 51.1334 95.1753 51.1334V51.124ZM95.1753 56.0465C94.9478 56.1427 94.692 56.1483 94.4605 56.0622C94.3584 56.0106 94.271 55.934 94.2065 55.8396C93.9007 55.3176 93.8044 54.6991 93.9369 54.1089C94.0204 53.5798 94.208 53.0726 94.4887 52.6164C94.6675 52.3509 94.9018 52.1274 95.1753 51.9611C95.5252 51.7365 95.9404 51.636 96.3542 51.6758C96.406 51.6861 96.4531 51.7124 96.489 51.7511C96.489 53.1369 96.3229 54.7641 95.5045 55.8835H95.4575L95.4293 55.9148L95.3979 55.943L95.354 55.9744C95.2919 55.9916 95.232 56.0158 95.1753 56.0465ZM63.5082 45.3643C62.8811 45.3372 62.254 45.3225 61.6269 45.3204H61.583C60.448 45.38 59.2848 45.4114 58.1059 45.4709L58.015 45.5148V45.5901C58.1498 45.7813 58.3881 45.797 58.5668 45.9036C58.6017 45.9453 58.6322 45.9905 58.6577 46.0384C58.5549 49.0974 58.175 52.1407 57.5227 55.131C57.3218 55.6062 57.0036 56.0226 56.5978 56.3412V56.4729C56.9113 56.4886 57.2249 56.4886 57.6262 56.4886C59.0747 56.4729 60.5515 56.5921 61.9561 56.4447C61.9702 56.4314 61.9813 56.4153 61.9888 56.3975C61.9964 56.3797 62.0002 56.3606 62 56.3412C61.969 56.2887 61.9438 56.233 61.9248 56.1751C61.8339 56.1594 61.8213 56.0998 61.7743 56.0998C61.7273 56.0998 61.6552 56.0402 61.6269 56.012C61.5298 55.9365 61.4524 55.8386 61.4012 55.7267C61.2479 54.2731 61.3952 52.8036 61.8339 51.4093L61.9373 51.3623C62.4609 51.3184 62.9814 51.3184 63.505 51.3027C63.9141 51.3097 64.3234 51.2951 64.7309 51.2588C65.3946 51.223 66.051 51.1029 66.6843 50.9014H66.7282L66.7438 50.8857C66.7714 50.8583 66.8084 50.8425 66.8473 50.8418C66.8617 50.8247 66.8801 50.8115 66.9009 50.8032C66.9217 50.795 66.9443 50.7921 66.9665 50.7948C67.2079 50.6631 67.4305 50.5565 67.6845 50.4217L67.7127 50.3778L67.744 50.3621L67.7879 50.3339L67.8036 50.3182C68.116 50.0899 68.376 49.7976 68.5663 49.4607C68.7567 49.1238 68.8729 48.7503 68.9072 48.3649L68.9229 48.3492C69.0557 48.3752 69.1824 48.4262 69.296 48.4997C69.3347 48.5452 69.3558 48.603 69.3556 48.6627C69.2051 50.8575 69.0421 53.0773 68.4589 55.3317C68.3538 55.663 68.1307 55.9442 67.8318 56.1218L67.8005 56.1531L67.7566 56.1813H67.7252L67.697 56.2252L67.6531 56.2566L67.5622 56.3475V56.451L67.6374 56.5262C71.2933 56.5983 74.9616 56.5544 78.6927 56.5983C79.2006 56.6297 79.6929 56.6297 80.1852 56.6297C80.7809 55.9744 81.3484 55.2282 81.9284 54.6293V54.5854L81.9754 54.5698C81.2884 54.9346 80.5807 55.2591 79.8559 55.5417C79.7525 55.5856 79.6615 55.6013 79.5424 55.6452C79.4233 55.6891 79.4233 55.7048 79.3637 55.7048C78.7366 55.8835 77.9308 56.1657 77.3476 55.8835C77.3194 55.8396 77.2442 55.8082 77.2442 55.78L77.2285 55.6891C77.2442 55.6452 77.2442 55.6013 77.2881 55.5856C78.2005 54.4506 79.1379 53.3031 80.0942 52.1367C81.2418 50.7039 82.452 49.3149 83.5431 47.8852V47.8381C83.5178 47.8054 83.4807 47.784 83.4397 47.7786C80.8561 47.7786 78.3196 47.719 75.6796 47.719H75.1592C74.8895 48.1674 74.6951 48.6157 74.4412 49.0641C74.2132 49.4968 74.0425 49.9574 73.9332 50.4342L74.0085 50.4812C74.0681 50.4812 74.0681 50.4342 74.1276 50.4342C74.3379 50.2582 74.5577 50.0939 74.7861 49.942H74.8143L74.8582 49.8981L74.8895 49.8698C74.9257 49.8472 74.9603 49.8221 74.993 49.7946H75.04V49.7476C75.1153 49.7476 75.1153 49.688 75.1748 49.688L75.2187 49.6441L75.2344 49.6284L75.2783 49.6002L75.3253 49.5845L75.3536 49.5406H75.3975L75.4288 49.4967H75.4602L75.4884 49.4528C75.572 49.434 75.6489 49.3928 75.711 49.3337C75.8667 49.2293 76.0314 49.139 76.2032 49.0641L76.2346 49.0202C76.3066 48.9764 76.3809 48.9366 76.4572 48.901L76.5042 48.8697C76.858 48.6626 77.232 48.4924 77.6204 48.3617C78.0764 48.2187 78.5637 48.2089 79.0251 48.3335C79.0431 48.3563 79.0563 48.3825 79.0638 48.4105C79.0714 48.4385 79.0731 48.4678 79.069 48.4966C79.0156 48.5579 78.9751 48.6293 78.9498 48.7066C78.2036 49.5406 77.5326 50.4217 76.8178 51.2431L76.7864 51.287C76.5543 51.5442 76.3356 51.8132 76.1311 52.0928C74.9804 53.4661 73.8486 54.8519 72.7136 56.2096H72.6227C72.5349 56.15 72.4439 56.0904 72.3687 56.0308C71.2964 53.8079 72.6822 50.9735 72.5788 48.4683C72.6111 48.2505 72.6216 48.0299 72.6101 47.8099L72.5192 47.7817C71.2964 47.8852 70.0736 47.8413 68.879 47.9604C68.8053 47.6109 68.6694 47.2774 68.4777 46.9759C68.3041 46.6972 68.0755 46.4568 67.806 46.2692C67.5365 46.0816 67.2317 45.9508 66.91 45.8848C65.7885 45.5885 64.6364 45.4233 63.4768 45.3925L63.5082 45.3643ZM63.5082 50.6756C62.9976 50.8288 62.454 50.8343 61.9405 50.6913C61.8966 49.1989 62.2697 47.6939 62.3888 46.1701C62.3888 46.1106 62.4045 46.1105 62.4484 46.051L62.4609 46.029C62.6867 45.9977 62.8058 46.0133 62.9689 45.9977H63.0128L63.505 46.0416C63.7893 46.0715 64.0668 46.1478 64.3265 46.2673L64.3578 46.2955L64.4017 46.3269C64.5334 46.4162 64.6535 46.5215 64.7592 46.6404L64.8187 46.7313C64.8448 46.8052 64.8795 46.8757 64.9222 46.9414C65.0593 47.4119 65.0969 47.9058 65.0326 48.3916C64.9684 48.8774 64.8037 49.3445 64.5491 49.7632C64.3683 50.0289 64.1472 50.2648 63.8938 50.4624C63.7691 50.5366 63.6391 50.6015 63.505 50.6568L63.5082 50.6756ZM71.9078 44.3798L71.9235 44.4237C72.0144 44.4237 72.0426 44.4708 72.1492 44.4708C72.3996 44.574 72.6166 44.7443 72.7763 44.963C72.8998 45.1613 72.9774 45.3848 73.0034 45.6169C73.0295 45.8491 73.0033 46.0842 72.9268 46.3049C72.9015 46.3528 72.8816 46.4033 72.8672 46.4554C72.6965 46.7511 72.4424 46.99 72.1367 47.1421C71.8382 47.2873 71.5123 47.3677 71.1805 47.378C70.8487 47.3883 70.5185 47.3282 70.2116 47.2017C70.0476 47.1114 69.9102 46.9796 69.8134 46.8194C69.7165 46.6593 69.6635 46.4764 69.6597 46.2893C69.6212 45.8862 69.7329 45.4832 69.9733 45.1574C70.0683 44.9816 70.2064 44.8327 70.3746 44.7247L70.3903 44.6934L70.4812 44.6338C70.6824 44.5423 70.8926 44.4719 71.1083 44.4237L71.1835 44.3798H71.9078ZM92.0807 34.5191C90.8423 34.5944 89.6195 34.9643 88.7698 35.6823L88.635 35.7858C88.5597 35.7858 88.5911 35.8454 88.5284 35.8454C88.1048 36.2263 87.7299 36.6581 87.4122 37.1309C86.9595 37.839 86.716 38.6607 86.7098 39.5012V39.6047C86.7079 39.8059 86.7279 40.0067 86.7694 40.2035C87.0673 41.5172 87.6661 42.5143 88.6945 43.0661C88.9981 43.2275 89.3124 43.3679 89.6351 43.4863C90.4245 43.7153 91.2494 43.7961 92.0682 43.7245C92.4895 43.6907 92.9083 43.631 93.3223 43.5458C93.4258 43.5458 93.4697 43.4863 93.5606 43.4863C93.9377 43.4073 94.3004 43.2709 94.636 43.0818C94.6956 43.0536 94.7834 43.0536 94.7991 42.9783C95.7398 42.486 96.4939 41.7 96.9468 40.7397C97.4547 39.6203 97.6617 38.338 97.1851 37.2187C96.8865 36.4813 96.3717 35.8517 95.7083 35.4127C95.2618 35.1318 94.78 34.9114 94.2755 34.7574C93.877 34.6337 93.4675 34.5487 93.0527 34.5034H93.0245C92.7058 34.485 92.3861 34.4902 92.0682 34.5191H92.0807ZM92.0807 43.1727C91.9976 43.1985 91.9127 43.2184 91.8268 43.2323C91.6125 43.2426 91.3985 43.2062 91.1997 43.1257C91.1401 43.1257 91.1276 43.0818 91.0649 43.0661H91.021C90.9614 43.0661 90.9771 42.9909 90.9175 42.9909C90.3343 42.5268 90.2904 41.5298 90.2465 40.7522C90.3939 38.871 90.3939 36.6762 91.648 35.2622C91.7766 35.1608 91.9235 35.0852 92.0807 35.0396C92.2908 34.9877 92.5073 34.9666 92.7235 34.9769C92.7893 34.9796 92.8545 34.9902 92.9179 35.0082C93.0138 35.0516 93.1135 35.0862 93.2157 35.1117L93.291 35.1713C93.357 35.2452 93.4271 35.3153 93.501 35.3813L93.5606 35.4723C93.6045 35.5757 93.6641 35.6949 93.7236 35.8454C94.0513 37.7566 93.9289 39.718 93.3662 41.5737C93.2471 41.8402 93.1562 42.1255 93.0245 42.3951C92.7976 42.7533 92.4627 43.0301 92.0682 43.1853L92.0807 43.1727ZM104.24 34.3529C104.822 34.3609 105.394 34.5048 105.911 34.7731C106.263 34.9849 106.555 35.2847 106.756 35.6431C106.958 36.0015 107.063 36.4061 107.061 36.8173C107.375 38.8741 106.3 41.2068 106.942 43.1257C107.001 43.1883 107.072 43.2394 107.149 43.2762C107.191 43.2986 107.227 43.3296 107.256 43.3671C107.256 43.3953 107.256 43.4549 107.209 43.4706C106.629 43.5458 106.03 43.4706 105.434 43.4988C104.418 43.4706 103.481 43.5145 102.525 43.4392L102.509 43.411V43.3671C102.509 43.3358 102.556 43.3075 102.569 43.2762C103.66 42.2478 103.374 40.3666 103.747 38.9212C103.794 37.7423 104.287 36.3251 103.54 35.3092C103.429 35.2234 103.301 35.1617 103.164 35.1282C103.028 35.0948 102.886 35.0902 102.747 35.1148C102.64 35.1415 102.535 35.1761 102.434 35.2183C102.379 35.2477 102.329 35.2835 102.283 35.3249C100.716 37.3221 100.985 40.2035 100.672 42.5895C100.672 42.6491 100.703 42.693 100.703 42.7526C100.817 42.9415 100.951 43.1172 101.104 43.2762C101.148 43.2762 101.148 43.3358 101.164 43.3671L101.148 43.4392C99.778 43.5145 98.3264 43.4549 96.9123 43.4549H96.5235L96.4357 43.411V43.3671C96.4287 43.3224 96.4287 43.2769 96.4357 43.2323C96.5314 43.1193 96.6363 43.0144 96.7493 42.9187L96.7932 42.9031C96.8465 42.8618 96.8968 42.8167 96.9437 42.7683L96.9719 42.7526L97.0471 42.7087C97.9282 40.6362 97.9721 37.9805 97.9721 35.6823C97.9567 35.5911 97.9214 35.5043 97.8686 35.4284C97.7847 35.3236 97.689 35.2289 97.5833 35.1462L97.599 35.1148C98.7183 34.8922 99.8376 34.7417 100.957 34.563C101.059 34.5324 101.164 34.5176 101.27 34.5191L101.346 34.563C101.465 34.8013 101.27 35.1744 101.437 35.4127L101.465 35.4284C101.719 35.3092 101.869 35.0114 102.108 34.8765H102.152L102.195 34.8326L102.255 34.7731L102.898 34.5191C103.326 34.4034 103.768 34.3475 104.211 34.3529H104.24ZM86.9168 32.4905L86.992 32.5344L87.0359 32.594C87.0516 33.2806 86.7381 33.9673 86.8258 34.6383C86.8415 34.6822 86.8415 34.7417 86.8729 34.7731C87.2146 34.8765 87.616 34.7731 87.9608 34.9361L88.0361 34.98C88.0643 35.0114 88.0957 35.0114 88.1082 35.0866V35.1148C88.0932 35.1882 88.0573 35.2557 88.0047 35.3092C87.7382 35.4879 87.3495 35.3688 86.992 35.4127C86.9167 35.4366 86.8457 35.4726 86.782 35.5193C86.7398 35.5451 86.7043 35.5806 86.6785 35.6228C86.6628 37.9805 85.9166 40.5171 86.3932 42.8341C86.463 42.9634 86.5541 43.08 86.6628 43.179C86.6628 43.2072 86.6785 43.2386 86.6785 43.2824C86.681 43.3228 86.6757 43.3633 86.6628 43.4016C85.5592 43.4455 84.4837 43.4016 83.3644 43.4016C83.2195 43.3244 83.0919 43.2184 82.9894 43.0901C82.887 42.9617 82.8118 42.8138 82.7687 42.6554C82.6182 40.3133 83.2014 37.9711 83.4835 35.629V35.5851C83.4578 35.546 83.4272 35.5102 83.3926 35.4785C83.2296 35.3907 83.0509 35.4942 82.8847 35.4942C82.6807 35.5161 82.4745 35.5066 82.2733 35.466H82.2576C82.1331 36.0801 81.9219 36.6733 81.6306 37.2281C81.5835 37.2281 81.5835 37.272 81.5271 37.2876H81.4362L81.4048 37.2437C81.3609 37.0776 81.2731 36.9145 81.2418 36.7358C81.0421 36.1497 80.6733 35.6359 80.182 35.2591C79.7946 35.0352 79.3581 34.9098 78.911 34.894C78.4638 34.8781 78.0196 34.9723 77.6173 35.1681C77.4758 35.2389 77.3517 35.3399 77.2536 35.4639C77.1555 35.588 77.086 35.7322 77.0498 35.8861C77.0157 36.0341 77.0167 36.188 77.0527 36.3355C77.0886 36.483 77.1585 36.6201 77.2567 36.7358C77.3414 36.8346 77.4491 36.9111 77.5703 36.9584C78.0417 37.1796 78.5317 37.359 79.0345 37.4946C79.3919 37.5698 79.7493 37.736 80.1224 37.8395L80.1538 37.8677C80.3607 37.9147 80.5708 38.0495 80.7809 38.1216C81.4566 38.4247 82.0016 38.9597 82.3172 39.6297C82.4536 40.0346 82.4688 40.4705 82.3611 40.8839C82.2796 41.1201 82.18 41.3496 82.0632 41.5705C82.0037 41.6615 81.9566 41.721 81.8971 41.8245C81.8375 41.928 81.734 42.0346 81.6744 42.138C81.4644 42.3011 81.2136 42.5111 81.0035 42.6742L80.9282 42.7338C80.7338 42.809 80.599 42.8999 80.3607 43.0191C80.2416 43.1069 80.0785 43.1225 79.928 43.2291H79.8842C79.8246 43.2291 79.8089 43.273 79.7493 43.273C79.6898 43.273 79.6615 43.3169 79.602 43.3169C77.8154 43.8353 75.9117 43.7838 74.1558 43.1696C74.0053 43.1696 73.9019 43.063 73.7388 43.0473C73.459 42.9399 73.1927 42.7999 72.9456 42.6303C72.9456 42.6021 72.9017 42.5864 72.886 42.5268C72.8421 41.9907 73.1118 41.4827 73.303 40.9905C73.3581 40.8079 73.4339 40.6323 73.5288 40.4669L73.5883 40.4073C73.6483 40.3645 73.7137 40.3297 73.7827 40.3039H73.8423C73.858 40.3634 73.9019 40.3916 73.9019 40.4512C74.2593 41.3636 74.5885 42.3638 75.3943 42.809C75.7538 43.0119 76.1515 43.1378 76.5623 43.1789C76.973 43.2199 77.3878 43.1751 77.7803 43.0473C77.8117 43.0473 77.8556 43.0034 77.9151 42.9752C77.9747 42.947 78.0625 42.9156 78.1534 42.8843C78.3587 42.7698 78.5345 42.609 78.6668 42.4147C78.799 42.2204 78.8841 41.9979 78.9153 41.7649C78.9084 41.5631 78.8466 41.3669 78.7366 41.1974C78.6939 41.1782 78.6571 41.1479 78.63 41.1096C78.4458 41.005 78.2564 40.9098 78.0625 40.8243C77.6917 40.6857 77.3139 40.5664 76.9306 40.4669C76.6767 40.3916 76.4823 40.3634 76.3036 40.2882C75.8601 40.1833 75.4299 40.0287 75.0212 39.8273C74.9614 39.7908 74.8956 39.7653 74.8268 39.752V39.7081H74.7829L74.739 39.6642H74.7077L74.6638 39.6172L74.6324 39.6015C74.3403 39.3513 74.0801 39.0659 73.858 38.7519C73.6915 38.5099 73.589 38.2298 73.56 37.9377C73.5309 37.6455 73.5763 37.3506 73.6918 37.0807C73.9687 36.3357 74.4761 35.6986 75.1404 35.2622V35.2152C75.4069 35.0835 75.6483 34.933 75.9461 34.7982C77.4386 34.2902 79.0345 34.3655 80.599 34.6194C81.1247 34.6885 81.6372 34.8354 82.1197 35.0553C82.7906 34.817 83.5682 34.9236 84.3144 34.6383C84.374 34.6383 84.3897 34.5944 84.4618 34.5944C84.6122 34.5378 84.757 34.4675 84.8945 34.3843C85.0761 34.3216 85.2515 34.2418 85.4181 34.146V34.1021C85.4776 34.1021 85.4776 34.0425 85.5372 34.0425L85.5654 33.9955H85.5968C86.0106 33.6946 86.354 33.3074 86.6032 32.8605C86.6567 32.783 86.6969 32.6972 86.7224 32.6065L86.7663 32.5626C86.7976 32.547 86.8102 32.5156 86.8572 32.5031L86.9168 32.4905ZM56.5539 32.7288C56.7326 32.757 56.8988 32.7727 57.0775 32.8041C57.2677 32.8499 57.4465 32.9342 57.6029 33.0517C57.7593 33.1693 57.8899 33.3176 57.9868 33.4876C58.1495 33.8857 58.2255 34.3139 58.2098 34.7437C58.1941 35.1735 58.0871 35.595 57.8959 35.9802C57.852 36.0398 57.852 36.0993 57.7767 36.1589C57.7767 36.2028 57.7328 36.2185 57.7171 36.278C57.5858 36.4206 57.4466 36.5556 57.3001 36.6825C57.0744 36.8288 56.82 36.9251 56.5539 36.9647C56.0809 37.0505 55.5973 37.0611 55.1211 36.996V36.9647C55.1493 35.6228 55.3593 34.3247 55.5067 32.9671C55.5063 32.9474 55.5103 32.9279 55.5185 32.91C55.5266 32.8921 55.5387 32.8763 55.5537 32.8636C55.6177 32.8192 55.6873 32.7833 55.7607 32.757C55.9394 32.6975 56.1651 32.757 56.3877 32.6975C56.4513 32.7143 56.5165 32.7248 56.5821 32.7288H56.5539ZM56.5539 37.6952C56.8242 37.7277 57.0895 37.793 57.344 37.8896C57.5618 37.9671 57.7609 38.0894 57.9283 38.2488C58.0958 38.4081 58.2278 38.6009 58.316 38.8146C58.6031 39.6722 58.5492 40.6074 58.1655 41.4263C58.1216 41.4263 58.1216 41.4859 58.1059 41.5298C57.8997 41.85 57.6244 42.12 57.3001 42.3199C57.0818 42.4916 56.8262 42.6097 56.5539 42.6648C56.1024 42.7638 55.6358 42.7733 55.1806 42.693C55.0941 42.6673 55.0118 42.6293 54.9361 42.5801C54.8435 42.5028 54.7679 42.4071 54.714 42.2992C54.66 42.1914 54.6289 42.0735 54.6225 41.9531C54.6225 40.8776 54.7699 39.8179 54.8765 38.7142C54.9183 38.3796 54.9928 38.0498 55.0991 37.7297C55.4344 37.672 55.7752 37.652 56.115 37.6701L56.1745 37.6388C56.3094 37.6388 56.441 37.6701 56.5759 37.6984L56.5539 37.6952ZM68.0262 34.8922C68.2119 34.8459 68.4023 34.8206 68.5937 34.817H68.6533C68.8216 34.8326 68.9849 34.8827 69.133 34.9643L69.1769 34.9957C69.2051 34.9957 69.2051 35.0709 69.2804 35.0709C70.1018 36.115 69.7883 37.7548 69.7726 39.0842C69.7205 39.7654 69.6007 40.4396 69.4152 41.0971C69.4152 41.1567 69.3556 41.188 69.3556 41.2476C69.2183 41.7755 68.9632 42.2654 68.6094 42.6805H68.5655L68.5498 42.7275H68.5059L68.4902 42.7714C68.3524 42.88 68.1948 42.9609 68.0262 43.0097C67.8284 43.0958 67.607 43.1113 67.3991 43.0536C67.2938 43.0513 67.191 43.021 67.1013 42.9658C67.0417 42.9658 67.026 42.9344 66.9539 42.9062L66.9226 42.8749C66.8473 42.8749 66.8473 42.8027 66.7877 42.8027V42.7871C66.7282 42.7871 66.7721 42.7275 66.6811 42.7275V42.6805C66.2955 42.16 66.1889 41.3542 66.1889 40.6676C66.2485 38.9525 66.3676 37.1026 67.1295 35.651L67.1734 35.6071C67.3091 35.3775 67.4867 35.1754 67.697 35.0114C67.7804 34.9564 67.8698 34.9112 67.9635 34.8765L68.0262 34.8922Z" fill="#E73137"/>
<path fill-rule="evenodd" clip-rule="evenodd" d="M83.6436 29.5214C83.3571 29.4982 83.0805 29.4057 82.8378 29.2517C82.7782 29.1922 82.703 29.1922 82.6277 29.1169C82.4133 28.895 82.2552 28.6248 82.1668 28.3291C82.0784 28.0334 82.0623 27.7208 82.1198 27.4176C82.1198 27.3423 82.1951 27.3423 82.1794 27.2671C82.2532 27.0173 82.4047 26.7976 82.6121 26.64C83.0322 26.4456 83.6436 26.3264 84.0763 26.64C84.2528 26.7791 84.3887 26.963 84.4698 27.1726C84.5509 27.3822 84.5741 27.6097 84.5372 27.8314C84.5193 27.918 84.4941 28.003 84.4619 28.0854C84.3585 28.1763 84.3302 28.308 84.1484 28.3707C83.9697 28.562 83.5966 28.5337 83.3144 28.4898C83.2306 28.4501 83.1557 28.3937 83.0943 28.3242C83.0328 28.2547 82.9861 28.1734 82.957 28.0854C82.957 27.9067 82.8974 27.7562 82.9131 27.6088C82.9182 27.515 82.9546 27.4255 83.0165 27.3548C83.0165 27.2953 83.0918 27.2796 83.0918 27.1918C83.1899 27.1856 83.2858 27.16 83.374 27.1166L83.4053 27.0852L83.374 27.057C83.3144 27.0413 83.2987 27.0852 83.2391 27.057C83.1609 27.0949 83.0864 27.1401 83.0165 27.1918H82.957L82.9131 27.22C82.8817 27.2796 82.8817 27.3392 82.8221 27.3548C82.7756 27.4092 82.7491 27.4777 82.7469 27.5492C82.6951 27.7295 82.6951 27.9208 82.7469 28.1011C82.7515 28.1758 82.7776 28.2477 82.8221 28.308C82.8548 28.3846 82.9066 28.4516 82.9726 28.5024C83.0447 28.5024 83.0322 28.562 83.1043 28.609C83.2898 28.7163 83.4994 28.7751 83.7137 28.78C83.9279 28.7849 84.14 28.7358 84.3302 28.6372C84.3796 28.5676 84.4536 28.5194 84.5372 28.5024L84.6281 28.4303C84.817 28.2809 84.9829 28.1045 85.1203 27.9067C85.2251 27.7564 85.2975 27.586 85.3331 27.4063C85.3688 27.2266 85.3668 27.0415 85.3273 26.8626C85.3273 26.7873 85.2834 26.7278 85.2834 26.6525C85.1885 26.5388 85.0836 26.4339 84.9699 26.339C84.6881 26.3437 84.4069 26.3131 84.1327 26.2481C84.0696 26.2117 83.9986 26.1912 83.9258 26.1885L83.9101 26.1289C83.8545 26.1013 83.7935 26.0863 83.7314 26.085C83.4947 25.9525 83.2911 25.7681 83.1357 25.5457H83.0761C82.9969 25.3678 82.8853 25.2062 82.7469 25.0692C82.6649 24.9736 82.6174 24.8532 82.6121 24.7274C83.5809 25.0253 84.7002 25.1287 85.5656 24.5926C85.6251 24.533 85.7004 24.533 85.76 24.4734L85.8352 24.3982C85.8948 24.3386 85.9105 24.2634 86.0453 24.2352C86.1049 24.1756 86.1174 24.1003 86.1926 24.069C86.6067 23.6239 86.9088 23.0864 87.0737 22.5013L87.0894 22.4417C87.112 22.3125 87.152 22.187 87.2085 22.0686C87.729 23.7241 87.4907 25.5896 86.7915 27.2169C86.6654 27.4874 86.5252 27.7512 86.3714 28.007C86.0627 28.3737 85.7182 28.7088 85.343 29.0072C85.2991 29.0072 85.2677 29.0511 85.1799 29.0667V29.1263C85.1215 29.1564 85.0607 29.1816 84.9981 29.2016L84.9385 29.2611C84.8336 29.2784 84.7357 29.3252 84.6563 29.396C84.4916 29.4167 84.3309 29.4621 84.1797 29.5308C83.954 29.5308 83.8505 29.5308 83.7157 29.5308L83.6436 29.5214ZM78.8089 23.3134C78.7789 23.3105 78.7504 23.2993 78.7266 23.281C78.7027 23.2627 78.6845 23.2381 78.674 23.2099C78.674 23.1346 78.5706 23.0751 78.4953 22.9559V22.9402C78.2257 22.611 77.9592 22.2693 77.63 21.8962C77.6456 21.8366 77.7334 21.7614 77.793 21.7018L77.8526 21.6861C77.9852 21.5919 78.11 21.487 78.2257 21.3726L78.2853 21.2973C78.4227 21.1607 78.539 21.0043 78.6302 20.8333C78.6302 20.7894 78.6897 20.7894 78.6897 20.7016H78.8089C78.9099 21.5637 78.9152 22.4344 78.8245 23.2977L78.8089 23.3259V23.3134ZM70.4092 27.1479C69.5439 25.5959 69.6191 23.6112 69.826 21.8178C69.9013 21.5043 70.0204 21.1625 70.1239 20.849C70.1239 20.7455 70.2305 20.6389 70.2587 20.5198C70.3721 20.2268 70.5073 19.9428 70.6632 19.6701C70.7104 19.5984 70.7404 19.5169 70.751 19.4318C71.0049 19.1465 71.1241 18.789 71.4094 18.5351V18.5821C71.1862 19.3787 71.1561 20.2171 71.3216 21.0277C71.3327 21.0993 71.363 21.1665 71.4094 21.2221C71.469 21.2221 71.5003 21.2503 71.5599 21.2503L71.6038 21.2221C71.6352 21.1468 71.6038 21.0872 71.6038 20.9838C71.6634 20.9838 71.7386 21.012 71.7982 21.012C71.933 21.012 72.0678 21.2064 72.187 21.2816C72.2572 21.4295 72.2911 21.5921 72.2856 21.7558C72.2802 21.9194 72.2356 22.0794 72.1556 22.2223C72.0798 22.3287 71.9902 22.4247 71.8891 22.5076L71.7982 22.5515C71.6698 22.6051 71.5313 22.6303 71.3922 22.6255C71.2531 22.6206 71.1167 22.5857 70.9924 22.5232C70.9328 22.5232 70.9172 22.4637 70.845 22.448C70.7729 22.4323 70.798 22.3571 70.7259 22.3289C70.6663 22.2223 70.5911 22.1188 70.5158 21.984C70.4845 22.0153 70.4845 22.1188 70.4406 22.1501C70.4345 22.3403 70.4492 22.5306 70.4845 22.7176C70.5063 22.8405 70.542 22.9604 70.5911 23.0751L70.6506 23.1942C70.7303 23.3193 70.8251 23.434 70.9328 23.536C71.1429 23.7021 71.4564 23.6708 71.7104 23.7617V23.8056C71.5966 23.9585 71.4662 24.0984 71.3216 24.2226V24.2665C70.9711 24.77 70.6994 25.324 70.5158 25.9094C70.4406 26.2825 70.4563 26.6995 70.3967 27.1166L70.4092 27.1479ZM78.0627 32.6818C77.0813 32.6409 76.1133 32.4396 75.1969 32.0861L75.153 32.0265C74.9075 31.9285 74.6687 31.8143 74.4382 31.6848C74.3467 31.6076 74.2398 31.551 74.1246 31.5186C74.1246 31.4747 74.0964 31.4151 74.0212 31.4465C73.7672 31.2364 73.5446 31.1173 73.3345 30.9072C73.1802 30.8392 73.047 30.7309 72.9489 30.5937L72.9771 30.578C73.2203 30.7337 73.4871 30.8491 73.7672 30.9197C74.6843 31.2891 75.6845 31.4029 76.6611 31.249C76.782 31.1927 76.8931 31.1176 76.9904 31.0263C76.9904 30.9793 77.0217 30.9041 76.9904 30.8445C76.9523 30.7976 76.9067 30.7574 76.8555 30.7254C76.7834 30.7254 76.7082 30.7724 76.6329 30.7254L76.589 30.6532C76.6316 30.529 76.7025 30.4163 76.796 30.324C76.9026 30.3084 76.9151 30.2331 76.9904 30.1892L77.0217 30.1735C77.1834 30.1009 77.3586 30.0633 77.5359 30.0633C77.7132 30.0633 77.8884 30.1009 78.0501 30.1735C78.0815 30.2488 78.1849 30.2801 78.2288 30.3679C78.2933 30.4525 78.3393 30.5497 78.3636 30.6532C78.4232 30.8445 78.3198 31.0702 78.348 31.2803L78.4389 31.2521C78.558 31.1455 78.7368 31.1016 78.8245 30.9072C79.1851 30.6407 79.4516 30.2362 79.7965 29.998L79.8561 29.9666L79.8718 29.9227L79.9909 29.8631C80.2453 29.7081 80.5506 29.6597 80.8406 29.7283C81.0235 29.7814 81.1849 29.8912 81.3015 30.0419C81.4206 30.1453 81.3767 30.2488 81.452 30.3083C81.452 30.4118 81.5116 30.578 81.5116 30.7254C81.4955 30.8145 81.4648 30.9003 81.4206 30.9793C81.3767 31.0264 81.361 31.0702 81.2889 31.158C81.1541 31.2929 80.8406 31.2646 80.6619 31.249C80.5866 31.249 80.5866 31.2051 80.4957 31.1894C80.4048 31.1737 80.364 31.0702 80.2731 30.995C80.2648 30.9504 80.2648 30.9047 80.2731 30.8602C80.2987 30.8615 80.3242 30.8568 80.3476 30.8465C80.371 30.8361 80.3917 30.8204 80.4079 30.8006L80.527 30.7724C80.548 30.7253 80.5732 30.6802 80.6023 30.6376V30.578C80.573 30.4951 80.5208 30.4223 80.4518 30.3679C80.364 30.324 80.317 30.3679 80.1978 30.3679C80.1822 30.4118 80.1226 30.4432 80.0505 30.5184C79.997 30.6728 79.997 30.8406 80.0505 30.995C80.1244 31.1521 80.2508 31.2785 80.4079 31.3524C80.6413 31.4439 80.8922 31.482 81.1423 31.4641C81.3924 31.4462 81.6353 31.3727 81.8533 31.249C81.9909 31.1712 82.121 31.0809 82.2421 30.9793C82.4411 30.8124 82.608 30.6105 82.7343 30.3836L82.8096 30.2801C82.8692 30.114 82.9005 29.9509 82.9601 29.7565L83.004 29.7126H83.0322C83.0918 29.7408 83.0918 29.8004 83.167 29.8475C83.2266 30.0105 83.2579 30.161 83.3018 30.324L83.3457 30.3679C83.5196 30.39 83.6955 30.39 83.8693 30.3679C84.0042 30.2801 84.2581 30.324 84.3898 30.1735C84.5283 30.1287 84.6634 30.0742 84.7943 30.0105H84.8382C84.1121 30.8905 83.1716 31.5686 82.1073 31.9795C82.0477 31.9795 82.0352 32.0234 81.9442 32.0234L81.8533 32.0986C80.8753 32.4266 79.8553 32.6125 78.8245 32.6505C78.5825 32.684 78.3383 32.6987 78.094 32.6944L78.0627 32.6818ZM78.3009 17.792C78.3009 17.7042 78.1975 17.6603 78.1536 17.5537C78.0031 17.4063 77.793 17.168 77.6456 17.0175C77.372 16.7916 77.0582 16.6193 76.7207 16.5096L76.6737 16.45C75.7986 16.1921 74.8809 16.1111 73.9741 16.2118V16.1835C74.0396 16.1273 74.1099 16.0769 74.1842 16.033C74.3606 15.9158 74.545 15.811 74.736 15.7195L74.7517 15.7038H74.7956C75.2945 15.4806 75.8077 15.291 76.3319 15.1363C77.8914 14.7648 79.5163 14.7648 81.0757 15.1363L81.1196 15.1959C81.5241 15.3025 81.8658 15.4655 82.286 15.5847L82.3299 15.6443C82.3894 15.6913 82.4804 15.6443 82.5243 15.7038L82.6121 15.7791C82.7062 15.8451 82.8129 15.8911 82.9256 15.9139C83.4424 16.2534 83.9396 16.6219 84.4149 17.0175V17.0771C84.4745 17.0771 84.4901 17.1524 84.5654 17.2119V17.2715H84.4901C84.371 17.2119 84.2236 17.1524 84.0731 17.0928L83.8944 17.0019C83.0291 16.7479 82.1324 16.5535 81.1949 16.9141V16.867C81.13 16.5326 81.0247 16.2073 80.8813 15.8982C80.8374 15.8386 80.7308 15.823 80.7026 15.7038C80.4582 15.504 80.153 15.3934 79.8373 15.3903C79.8373 15.5094 79.9125 15.569 79.9564 15.6568L80.016 15.7164C80.1274 16.0308 80.1274 16.3739 80.016 16.6883C79.9564 16.6883 79.8968 16.7604 79.8373 16.82C79.6725 16.9013 79.4912 16.9436 79.3074 16.9436C79.1236 16.9436 78.9423 16.9013 78.7775 16.82C78.6584 16.7009 78.5674 16.6288 78.4797 16.5222V16.4626L78.4483 16.4469C78.4143 16.3798 78.3744 16.3158 78.3292 16.2557C78.3213 16.1262 78.3213 15.9963 78.3292 15.8669L78.3887 15.8512C78.464 15.8512 78.464 15.9108 78.5079 15.9264L78.5236 15.986L78.5674 16.0456H78.765L78.8402 15.9703V15.9108C78.8223 15.8241 78.7972 15.7392 78.765 15.6568C78.6227 15.5731 78.4726 15.5038 78.3166 15.4499C77.8643 15.3387 77.3907 15.3484 76.9433 15.4781V15.5094C76.959 15.6411 77.1377 15.6568 77.1816 15.7759C77.4513 15.9264 77.6143 16.2243 77.8839 16.4626V16.5222L77.9749 16.5974C78.2091 16.9265 78.348 17.3138 78.3762 17.7167L78.3166 17.8045L78.3009 17.792Z" fill="#0077BE"/>
<path fill-rule="evenodd" clip-rule="evenodd" d="M75.2446 30.6094C75.5184 30.5612 75.7879 30.4909 76.0504 30.3994L76.0786 30.3398C76.1382 30.3555 76.1695 30.2959 76.2291 30.3398C76.3482 30.2677 76.4517 30.2207 76.5426 30.1611H76.574C76.8828 30.0292 77.1736 29.8585 77.4393 29.6531L77.4832 29.6218V29.5936C77.5742 29.5622 77.6024 29.5183 77.6463 29.5183C77.7657 29.3741 77.8957 29.2389 78.0351 29.1139C78.3445 28.7876 78.6015 28.4153 78.797 28.0102C79.046 27.426 79.1767 26.7982 79.1816 26.1632C79.1864 25.5281 79.0653 24.8984 78.8252 24.3105V24.2509C78.6787 23.877 78.4893 23.5214 78.2608 23.1912C78.2012 23.0877 78.1417 23.0563 78.1103 22.9372C77.9473 22.7898 77.8407 22.5954 77.6933 22.4606L77.6181 22.3415C77.455 22.1314 77.245 22.0593 77.1258 21.8492C77.1697 21.7583 77.2606 21.7583 77.3202 21.6862C77.4599 21.6265 77.5866 21.5402 77.6933 21.4322C77.7686 21.4322 77.7686 21.3413 77.8281 21.3413V21.2598C78.1054 21.0894 78.3115 20.8243 78.4082 20.5136C78.8126 19.7548 78.5587 18.7703 78.1699 18.0962C77.9392 17.7232 77.6219 17.4113 77.245 17.1869C77.1854 17.1117 77.1101 17.1117 77.0506 17.0521L76.9753 16.9769H76.9157C76.6568 16.8005 76.3693 16.67 76.0661 16.5912C75.8842 16.5861 75.7078 16.5284 75.5581 16.425H74.2005L74.1409 16.4846C73.9663 16.5383 73.7867 16.574 73.6048 16.5912C73.293 16.7183 72.9929 16.8725 72.7081 17.0521C72.6485 17.0678 72.636 17.1274 72.5764 17.1274L72.5607 17.1587C72.3747 17.2699 72.2127 17.417 72.0841 17.5914C71.9902 17.6767 71.9051 17.7712 71.8302 17.8736C71.7832 17.9398 71.7521 18.016 71.7393 18.0962C71.8584 18.1558 72.0842 18.0962 72.1563 18.2153L72.2315 18.2906C72.472 19.6194 72.5321 20.9746 72.4102 22.3195C72.3699 22.6962 72.2846 23.0667 72.1563 23.4232L72.2158 23.4545C72.8899 23.141 73.6644 23.1849 74.3792 23.2445C74.358 23.0923 74.3234 22.9422 74.2758 22.7961C74.244 22.6981 74.2329 22.5945 74.2432 22.492C74.2534 22.3895 74.2848 22.2902 74.3353 22.2004C74.6321 22.1158 74.9491 22.1369 75.2321 22.26C75.3355 22.2913 75.439 22.3352 75.5456 22.3634C75.8485 22.5785 76.1197 22.835 76.3514 23.1253C76.3796 23.3354 76.5583 23.4828 76.6179 23.6615C77.3202 24.9909 77.5303 26.7498 76.7997 28.1388C76.5504 28.479 76.2476 28.7765 75.903 29.0198H75.8121V29.0794C75.6359 29.1723 75.4511 29.2479 75.2603 29.3051C74.8888 29.4218 74.4975 29.4619 74.11 29.4231C73.7225 29.3843 73.347 29.2674 73.0059 29.0794L72.9903 29.0198C72.9307 29.0198 72.8554 29.0198 72.8554 28.9602C72.7833 28.8881 72.6767 28.8411 72.5419 28.6937C72.4667 28.6028 72.3914 28.4837 72.3162 28.3959C71.8582 27.6509 71.7086 26.7567 71.8992 25.9033C71.9587 25.7245 72.0026 25.6336 72.0653 25.4549C72.1969 25.1804 72.3849 24.9368 72.6172 24.74C72.7976 24.6177 72.9862 24.5077 73.1815 24.4108C73.5215 24.273 73.8903 24.2212 74.2551 24.26C74.6199 24.2988 74.9695 24.4271 75.2728 24.6334C75.3246 24.6652 75.3738 24.7008 75.4202 24.74C75.555 24.9344 75.6898 25.0536 75.7776 25.2166L75.8246 25.2448V25.3075C75.9091 25.5509 75.9793 25.799 76.0347 26.0506C76.0347 26.6338 75.9751 27.2891 75.5425 27.6935C75.4233 27.6935 75.4829 27.797 75.4233 27.797C75.3801 27.8501 75.324 27.8911 75.2603 27.9162C75.229 27.9428 75.1928 27.9631 75.1537 27.9757C75.043 28.0578 74.9156 28.1145 74.7806 28.1419C74.4492 28.1614 74.1177 28.1045 73.8117 27.9757C73.6622 27.8753 73.5226 27.7609 73.3947 27.634C73.2249 27.4146 73.107 27.1595 73.0499 26.888C72.9929 26.6164 72.9982 26.3355 73.0655 26.0663L73.122 25.9628C73.1733 25.8337 73.2442 25.7131 73.332 25.6054L73.3602 25.5458C73.4266 25.4772 73.4967 25.4123 73.5703 25.3514V25.3075C73.873 25.1911 74.2082 25.1911 74.5109 25.3075C74.5413 25.3653 74.5829 25.4165 74.6332 25.458L74.6018 25.4863C74.4608 25.4456 74.3157 25.4204 74.1692 25.411C74.0616 25.4212 73.9561 25.4465 73.8556 25.4863C73.6926 25.5458 73.6173 25.6806 73.5421 25.7402C73.4302 25.9351 73.3595 26.1508 73.3341 26.374C73.3088 26.5972 73.3294 26.8233 73.3947 27.0383C73.4337 27.1373 73.4831 27.2319 73.5421 27.3204C73.633 27.4114 73.7522 27.5901 73.8556 27.6058C73.9591 27.6214 74.0061 27.681 74.0939 27.681C74.1535 27.7406 74.2131 27.7406 74.2287 27.7688C74.4046 27.8142 74.589 27.8142 74.7649 27.7688L74.7962 27.7406C74.9658 27.7067 75.1217 27.6238 75.2446 27.5023C75.3323 27.408 75.4071 27.3026 75.4672 27.1888C75.7807 26.6087 75.6616 25.8782 75.4076 25.3263C75.3637 25.2511 75.3042 25.1759 75.2446 25.0849C75.1589 24.9632 75.0528 24.8571 74.9311 24.7714C74.5053 24.5293 74.0061 24.4502 73.5264 24.5488C73.3791 24.624 73.2599 24.6993 73.1094 24.7588C72.9306 24.9187 72.7707 25.0986 72.6328 25.295C72.5733 25.4455 72.498 25.4737 72.4541 25.5929C72.318 25.9647 72.2597 26.3606 72.2829 26.756C72.3061 27.1513 72.4102 27.5377 72.5889 27.8911C72.7154 28.1143 72.8823 28.3121 73.0812 28.4743H73.1408L73.2003 28.562C73.6737 28.8734 74.2297 29.0351 74.7962 29.0261C74.9494 29.0087 75.1 28.9729 75.2446 28.9195C75.7494 28.726 76.1708 28.3622 76.436 27.8911C76.8219 27.0097 76.8754 26.0184 76.5865 25.1006C76.3111 24.5059 75.8426 24.0219 75.2571 23.7273V23.6991L75.2258 23.6677C74.9436 23.6238 74.7053 23.4295 74.4043 23.4295C73.9311 23.3704 73.4508 23.4101 72.9937 23.5461C72.5366 23.6821 72.1126 23.9114 71.7487 24.2196C71.5411 24.4316 71.3473 24.6568 71.1686 24.8937C71.1373 24.9658 71.0777 24.9971 71.0777 25.0254C70.8012 25.5564 70.653 26.1449 70.645 26.7435V26.9222C70.6626 27.4122 70.7427 27.898 70.8833 28.3677C70.9429 28.4147 70.9429 28.4743 70.9899 28.5025V28.562C71.0777 28.6969 71.1373 28.8599 71.2125 28.979C71.4842 29.4645 71.8874 29.8634 72.3757 30.1297L72.4353 30.205C72.5701 30.2645 72.6611 30.2928 72.7802 30.3367H72.8084V30.3962C73.2084 30.5631 73.6311 30.6688 74.0626 30.7098H74.1221C74.4973 30.7169 74.8723 30.6865 75.2415 30.6188L75.2446 30.6094ZM79.2265 29.9667L79.1669 29.9385C79.2773 29.4628 79.3424 28.9778 79.3613 28.4899C79.631 25.8813 79.4366 23.2852 79.2579 20.6515C79.1265 19.515 78.917 18.3888 78.6308 17.281C79.7242 17.3726 80.8241 17.3526 81.9135 17.2214C82.808 17.1377 83.7098 17.2544 84.5535 17.5632L84.5974 17.6228C85.5311 18.1949 86.286 19.0171 86.7765 19.9962C87.1415 20.924 87.1258 21.9583 86.7326 22.8745C86.5792 23.2335 86.3545 23.5575 86.0721 23.827C85.7896 24.0965 85.4554 24.3058 85.0896 24.4422C84.2749 24.7085 83.3892 24.6547 82.6127 24.2917L82.5249 24.2196L82.4214 24.1882C82.0754 23.9457 81.8057 23.6097 81.6439 23.2194V23.141C81.3643 22.5369 81.3218 21.8498 81.5247 21.2159C81.579 20.9748 81.6802 20.7468 81.8226 20.5449C81.8665 20.4101 82.0609 20.291 82.1957 20.1561C82.2866 20.1122 82.3587 20.0527 82.434 20.0213L82.481 19.9617H82.528C82.7351 19.8692 82.9598 19.8226 83.1866 19.8253C83.4134 19.828 83.637 19.8799 83.8418 19.9774C84.136 20.1602 84.3576 20.4395 84.4688 20.7675C84.5636 21.0422 84.6019 21.3332 84.5814 21.6231C84.561 21.913 84.4821 22.1957 84.3497 22.4544C84.2637 22.5561 84.1693 22.6505 84.0675 22.7365C83.965 22.8085 83.8545 22.8685 83.7383 22.9153C83.663 22.8714 83.663 22.9466 83.5596 22.9905C83.3294 23.03 83.0929 23.0095 82.8729 22.9309C82.7035 22.8732 82.5499 22.7766 82.4246 22.6487C82.3807 22.6017 82.3807 22.5296 82.2898 22.4544C82.2079 22.088 82.2285 21.7061 82.3493 21.3507C82.3795 21.2493 82.4249 21.1531 82.4841 21.0654C82.5437 20.9776 82.619 20.9462 82.6942 20.871C82.7621 20.8427 82.8272 20.8081 82.8886 20.7675C83.0078 20.708 83.083 20.7675 83.1708 20.7393C83.2636 20.7768 83.3538 20.8208 83.4404 20.871L83.5596 20.9462L83.5878 21.0058C83.6746 21.1545 83.7119 21.3268 83.6944 21.4981C83.7226 21.5576 83.6944 21.6172 83.7383 21.6329C83.7981 21.5998 83.8454 21.548 83.8731 21.4855C83.9044 21.3535 83.9085 21.2166 83.8854 21.0829C83.8622 20.9493 83.8122 20.8217 83.7383 20.708C83.663 20.6327 83.5596 20.5888 83.5 20.501C83.234 20.4088 82.9446 20.4088 82.6785 20.501C82.619 20.5888 82.5155 20.6327 82.412 20.7393C82.3086 20.8459 82.2459 21.0058 82.1706 21.1563C82.0233 21.5599 82.0134 22.0007 82.1424 22.4105C82.2109 22.5862 82.3245 22.7408 82.4716 22.8588C82.5155 22.8588 82.5437 22.9184 82.5594 22.978C82.6705 23.0323 82.7858 23.0774 82.9043 23.1128C82.9482 23.1128 83.0078 23.1724 83.036 23.1128L83.0955 23.1724H83.4843L83.5596 23.1128C83.7685 23.1169 83.9712 23.0418 84.1271 22.9027C84.5161 22.6184 84.7828 22.1971 84.8733 21.7238C84.9666 21.1548 84.9203 20.5716 84.7385 20.0244L84.6789 20.0088V19.9492C84.6193 19.7391 84.4845 19.6074 84.3936 19.366C84.1323 18.9101 83.7372 18.5457 83.2617 18.3219V18.278C82.8279 18.1154 82.3558 18.0837 81.9041 18.1871C81.8571 18.2185 81.785 18.2342 81.7097 18.278C80.7252 20.1279 81.3805 22.6205 81.2018 24.6773C81.2457 25.364 81.2018 26.0506 81.3053 26.7686C81.3805 27.7813 81.7254 28.7376 81.9166 29.6908C81.7745 29.6632 81.6349 29.6233 81.4996 29.5716L81.4557 29.556C80.9909 29.4901 80.5191 29.4901 80.0542 29.556L80.0072 29.5716C79.8598 29.6312 79.725 29.6626 79.5306 29.7503L79.4867 29.7974C79.4272 29.7974 79.4272 29.8256 79.3519 29.857L79.2171 29.9291L79.2265 29.9667ZM75.2446 18.1965C75.4192 18.1834 75.594 18.2192 75.7494 18.3C75.809 18.3752 75.8999 18.4505 75.9595 18.5383C76.1785 19.047 76.2204 19.6145 76.0786 20.1499C76.0368 20.2175 76.0161 20.2961 76.019 20.3756C75.9595 20.4352 75.9595 20.523 75.8999 20.6421C75.809 20.7017 75.7494 20.8083 75.6616 20.8804C75.5369 20.9723 75.3951 21.0384 75.2446 21.0748C75.1671 21.0992 75.0872 21.1149 75.0063 21.1218C74.9311 21.0748 74.8558 21.1218 74.7367 21.0309C74.6606 20.991 74.5935 20.9359 74.5395 20.8691C74.4856 20.8022 74.446 20.7249 74.4231 20.6421C74.1692 20.0621 74.3636 19.3159 74.6614 18.7609C74.721 18.67 74.8245 18.5508 74.8997 18.4474C74.9541 18.3532 75.0378 18.2795 75.138 18.2373C75.1744 18.2313 75.2101 18.2219 75.2446 18.2091V18.1965Z" fill="#E73137"/>
</svg>
