<svg width="158" height="70" viewBox="0 0 158 70" fill="none" xmlns="http://www.w3.org/2000/svg">
<g clip-path="url(#clip0_32_127)">
<path d="M90.3252 37.5463C90.3252 34.7135 89.1053 32.223 84.985 32.223C83.334 32.1912 81.7019 32.5746 80.2412 33.3373L80.9189 35.613C81.9597 35.0008 83.1444 34.6698 84.3547 34.6531C86.4488 34.6531 86.7944 35.8278 86.7944 36.5863V36.7609C82.2268 36.7609 79.3399 38.3182 79.3399 41.5068C79.3381 42.0205 79.4425 42.5292 79.6465 43.0015C79.8506 43.4737 80.15 43.8997 80.5265 44.253C80.9029 44.6064 81.3483 44.8798 81.8354 45.0563C82.3224 45.2328 82.8408 45.3087 83.3585 45.2794C84.0547 45.3046 84.7475 45.172 85.3841 44.8916C86.0206 44.6112 86.5841 44.1905 87.0316 43.6616H87.1061C87.1061 43.6616 87.628 45.8165 90.4946 45.0042C90.3438 44.0067 90.2758 42.9987 90.2913 41.9902M86.9028 40.5402C86.9065 40.7666 86.8791 40.9924 86.8215 41.2115C86.657 41.6847 86.3454 42.0941 85.9315 42.3811C85.5176 42.6681 85.0226 42.818 84.5174 42.8091C84.2918 42.8282 84.0647 42.7985 83.8518 42.7222C83.6389 42.6459 83.4453 42.5248 83.2842 42.3671C83.1232 42.2095 82.9985 42.0192 82.9189 41.8092C82.8393 41.5993 82.8067 41.3747 82.8232 41.1511C82.8232 39.4393 84.7342 38.9627 86.8893 38.9761L86.9028 40.5402Z" fill="#0078BF"/>
<path d="M19.269 28.3699C19.269 28.3699 22.2509 40.4529 22.7252 42.4265C23.2809 44.7223 24.2771 45.5614 27.1641 44.9975L29.0277 37.4993C29.4953 35.6331 29.8138 34.304 30.112 32.411H30.1662C30.382 34.1212 30.6851 35.8195 31.0743 37.4993C31.0743 37.4993 31.8333 40.9094 32.2196 42.695C32.6059 44.4806 33.6902 45.6084 36.5162 44.9975L40.955 28.3699H37.37L35.8588 35.5593C35.4454 37.647 35.0795 39.2849 34.7948 41.198H34.7406C34.4831 39.305 34.1578 37.7342 33.7444 35.6935L32.1451 28.3699H28.4178L26.7236 35.5123C26.2424 37.6805 25.7952 39.4326 25.5105 41.2786H25.4631C25.1717 39.54 24.7854 37.3382 24.3652 35.2371C24.3652 35.2371 23.3623 30.1286 23.0099 28.3699" fill="#0078BF"/>
<path d="M51.1201 37.5463C51.1201 34.7135 49.9002 32.223 45.7799 32.223C44.129 32.1912 42.4968 32.5746 41.0361 33.3373L41.7138 35.613C42.7542 34.9999 43.9392 34.6689 45.1497 34.6531C47.2437 34.6531 47.5893 35.8278 47.5893 36.5863V36.7609C43.0217 36.7609 40.1348 38.3182 40.1348 41.5068C40.133 42.0205 40.2374 42.5292 40.4414 43.0015C40.6455 43.4737 40.945 43.8997 41.3214 44.253C41.6978 44.6064 42.1432 44.8798 42.6303 45.0563C43.1173 45.2328 43.6357 45.3087 44.1535 45.2794C44.8497 45.3046 45.5424 45.172 46.179 44.8916C46.8156 44.6112 47.3791 44.1905 47.8265 43.6616H47.9011C47.9011 43.6616 48.4229 45.8165 51.2895 45.0042C51.1354 44.0071 51.0674 42.9987 51.0862 41.9902M47.7316 40.5268C47.7364 40.7536 47.7067 40.9799 47.6435 41.198C47.4803 41.6707 47.17 42.08 46.7572 42.367C46.3444 42.6541 45.8505 42.8041 45.3462 42.7957C45.1206 42.8147 44.8935 42.7851 44.6806 42.7088C44.4677 42.6325 44.2741 42.5113 44.113 42.3537C43.952 42.1961 43.8273 42.0057 43.7477 41.7958C43.6682 41.5858 43.6355 41.3613 43.652 41.1376C43.652 39.4259 45.5563 38.9493 47.7181 38.9627L47.7316 40.5268Z" fill="#0078BF"/>
<path d="M56.8067 41.4666V28.3699H53.3979V44.9975H56.8067" fill="#0078BF"/>
<path d="M101.398 28.3699V40.6342C101.398 42.3258 101.717 43.514 102.408 44.2322C102.774 44.5844 103.208 44.859 103.685 45.0391C104.162 45.2191 104.67 45.3009 105.18 45.2794C106.016 45.2833 106.848 45.161 107.647 44.9169L107.606 42.2788C107.182 42.3788 106.748 42.4284 106.312 42.4265C105.146 42.4265 104.76 41.6948 104.76 40.171V35.472H107.728V32.3036H104.76V28.3699" fill="#0078BF"/>
<path d="M92.6011 32.5051V44.9976H96.1115V38.6003C96.1086 38.2919 96.1358 37.9839 96.1928 37.6807C96.299 37.0388 96.6421 36.4588 97.1555 36.0533C97.6688 35.6477 98.3159 35.4454 98.9713 35.4856C99.312 35.4874 99.6519 35.5166 99.9879 35.5728V32.3037C99.7321 32.2471 99.4706 32.22 99.2085 32.2231C98.4295 32.2499 97.6788 32.5193 97.0632 32.9929C96.4476 33.4665 95.9984 34.1203 95.7794 34.8613H95.6845V32.5051" fill="#0078BF"/>
<path d="M59.1914 32.505V44.9975H62.5798V37.6739C62.5714 37.3246 62.6265 36.9767 62.7425 36.6468C62.886 36.2024 63.1624 35.8116 63.5352 35.5263C63.9079 35.241 64.3594 35.0746 64.8298 35.0491C66.1851 35.0491 66.8628 36.2038 66.8628 37.8752V44.9975H70.2512V37.6134C70.25 37.2706 70.298 36.9293 70.3936 36.5998C70.5268 36.1664 70.7955 35.7861 71.1608 35.5135C71.5261 35.2408 71.9693 35.09 72.4266 35.0827C73.8226 35.0827 74.5003 36.2172 74.5003 38.184V45.0311H77.9226V37.647C77.9226 33.767 75.937 32.2298 73.6871 32.2298C72.8104 32.2139 71.9474 32.4468 71.2 32.901C70.5906 33.3193 70.0759 33.8589 69.6888 34.4853H69.6413C69.366 33.8025 68.884 33.221 68.2614 32.8207C67.6389 32.4205 66.9064 32.221 66.1648 32.2499C65.4239 32.2129 64.6873 32.3819 64.0382 32.7378C63.3892 33.0937 62.8535 33.6222 62.4917 34.2637H62.4443V32.505" fill="#0078BF"/>
<path d="M126.147 30.6657C126.424 30.6979 126.705 30.6367 126.943 30.4918C127.182 30.3469 127.364 30.1268 127.461 29.8669L128.139 22.3687C128.139 21.6303 127.265 21.0261 126.16 21.0261C125.055 21.0261 124.188 21.6303 124.188 22.3687L124.866 29.8669C124.933 30.3166 125.496 30.6657 126.174 30.6657" fill="#FCBD1B"/>
<path d="M122.06 33.0084C122.228 32.7867 122.315 32.5151 122.306 32.2382C122.297 31.9614 122.194 31.6956 122.013 31.4846L115.792 27.1615C115.114 26.7923 114.179 27.2421 113.623 28.1886C113.067 29.1351 113.169 30.2024 113.82 30.5582L120.705 33.7333C120.98 33.7791 121.263 33.7327 121.508 33.6014C121.754 33.47 121.948 33.2614 122.06 33.0084Z" fill="#FCBD1B"/>
<path d="M130.24 33.0085C130.352 33.2615 130.546 33.4702 130.792 33.6015C131.037 33.7328 131.32 33.7792 131.595 33.7335L138.487 30.5583C139.165 30.1824 139.226 29.1285 138.677 28.1887C138.128 27.2489 137.186 26.7924 136.508 27.1616L130.287 31.4847C130.108 31.6968 130.006 31.9622 129.998 32.2385C129.989 32.5147 130.074 32.7859 130.24 33.0085Z" fill="#FCBD1B"/>
<path d="M126.147 40.0301C126.424 39.9979 126.705 40.0591 126.943 40.204C127.182 40.3489 127.364 40.569 127.461 40.8289L128.139 48.3271C128.139 49.0655 127.265 49.6697 126.16 49.6697C125.055 49.6697 124.188 49.0588 124.188 48.3271L124.866 40.8289C124.933 40.3792 125.496 40.0301 126.174 40.0301" fill="#FCBD1B"/>
<path d="M130.239 37.6939C130.35 37.4394 130.544 37.2293 130.79 37.0977C131.036 36.9661 131.32 36.9207 131.595 36.9689L138.487 40.1441C139.165 40.5133 139.226 41.5672 138.677 42.5137C138.128 43.4602 137.186 43.8831 136.508 43.5341L130.287 39.1842C130.107 38.9726 130.004 38.707 129.996 38.4304C129.987 38.1539 130.073 37.8825 130.239 37.6604" fill="#FCBD1B"/>
<path d="M122.06 37.6873C122.228 37.909 122.315 38.1806 122.306 38.4575C122.297 38.7343 122.194 39.0001 122.013 39.2111L115.792 43.5342C115.114 43.9034 114.179 43.4536 113.623 42.5138C113.067 41.574 113.169 40.5 113.82 40.1375L120.705 36.969C120.98 36.9196 121.265 36.9644 121.511 37.0962C121.757 37.2279 121.951 37.4388 122.06 37.694" fill="#FCBD1B"/>
</g>
<defs>
<clipPath id="clip0_32_127">
<rect width="119.767" height="28.6503" fill="white" transform="translate(19.269 21.0261)"/>
</clipPath>
</defs>
</svg>
