<svg width="158" height="71" viewBox="0 0 158 71" fill="none" xmlns="http://www.w3.org/2000/svg">
<path d="M133.735 30.0055H136.011V30.3419H135.059V32.8091H134.682V30.3419H133.733L133.735 30.0055ZM139.036 32.8091V30.0055H138.498L137.702 32.3782H137.698L136.893 30.0055H136.352V32.8091H136.714V31.1536C136.714 31.0708 136.71 30.7161 136.71 30.4582H136.714L137.505 32.8091H137.887L138.669 30.45H138.679C138.679 30.7144 138.669 31.0708 138.669 31.1536V32.8091H139.036ZM68.3931 35.8428C68.3931 37.262 68.7122 38.4387 69.3794 39.2184C69.9431 39.8839 70.7278 40.2307 71.6333 40.2307C72.5389 40.2307 73.3269 39.8839 73.8902 39.2184C74.5574 38.4387 74.8786 37.262 74.8786 35.8428C74.8786 34.4236 74.5574 33.2432 73.8902 32.4635C73.3269 31.7976 72.5389 31.4515 71.6333 31.4515C70.7278 31.4515 69.9431 31.7976 69.3794 32.4635C68.7122 33.2432 68.3931 34.4191 68.3931 35.8428ZM76.8776 30.7666C78.1518 32.0129 78.7882 33.7076 78.7868 35.8507C78.7868 37.9752 78.1532 39.664 76.8859 40.917C75.6186 42.1699 73.8654 42.795 71.6263 42.7922C69.3938 42.7922 67.6433 42.1672 66.3746 40.917C65.1059 39.6668 64.4713 37.978 64.4707 35.8507C64.4707 33.7051 65.1054 32.0104 66.3746 30.7666C67.6438 29.5227 69.3944 28.8997 71.6263 28.8975C73.8516 28.8975 75.602 29.5205 76.8776 30.7666ZM105.815 42.3283C106.859 42.3283 107.227 42.1789 107.727 40.2932L107.798 40.0176H100.988V36.6759H104.869C105.865 36.6759 106.281 36.5232 106.785 34.6405L106.854 34.3727H100.988V31.5703H105.176C106.417 31.5703 106.55 31.4168 107.004 29.5171L107.064 29.2539H97.0211V42.3283H105.815ZM127.023 40.3537C126.123 40.3454 124.968 40.2055 123.723 39.5259L122.787 41.6458L122.988 41.7555C123.537 42.0452 125.094 42.7902 127.416 42.7902C130.435 42.7902 133.185 41.532 133.185 38.7246C133.185 36.6552 131.703 35.6864 129.879 34.6815C128.055 33.6766 126.843 33.1534 126.865 32.2238C126.882 31.5799 127.63 31.2848 128.756 31.3063C130.193 31.3299 131.052 31.6448 131.759 32.0206L132.767 30.0021L132.577 29.8995C132.07 29.6326 130.62 28.9476 128.224 28.9476C124.573 28.9476 123.033 30.8672 123.033 32.6638C123.033 33.7229 123.226 35.1525 126.2 36.7467C128.631 38.0633 128.973 38.4751 128.98 39.1261C128.99 39.9584 128.179 40.3677 127.023 40.3566M122.535 42.3283C122.535 42.3283 120.946 40.5072 119.765 38.8372C119.049 37.8327 118.484 37.0161 118.04 36.3312C119.498 35.8304 120.498 34.7278 120.498 32.8592C120.498 31.4718 119.945 30.5828 118.931 29.9835C117.807 29.3143 116.104 29.2547 114.084 29.2547H109.694V42.3283H113.56V37.3166H113.954C114.268 37.3166 114.469 37.3928 114.918 38.1253C115.883 39.6728 116.36 40.398 116.994 41.4256C117.334 41.9715 117.88 42.3275 118.914 42.3275H122.535M116.582 33.2585C116.582 34.2295 116.139 34.6657 115.62 34.9335C115.251 35.126 114.683 35.2195 114.084 35.2195H113.56V31.3874H114.378C115.873 31.3874 116.582 32.0682 116.582 33.2585ZM64.3644 42.3283C64.3644 42.3283 62.7722 40.5072 61.5939 38.8372C60.8816 37.8327 60.3158 37.0161 59.8692 36.3312C61.3269 35.8304 62.3256 34.7278 62.3256 32.8592C62.3256 31.4718 61.7743 30.5828 60.7595 29.9835C59.6333 29.3143 57.9306 29.2547 55.9117 29.2547H51.5192V42.3283H55.3902V37.3166H55.7834C56.0955 37.3166 56.2946 37.3928 56.7494 38.1253C57.7129 39.6728 58.1877 40.398 58.8238 41.4256C59.1628 41.9715 59.7087 42.3275 60.7434 42.3275H64.3644M58.4124 33.2585C58.4124 34.2295 57.9617 34.6657 57.4489 34.9335C57.0797 35.126 56.5123 35.2195 55.9117 35.2195H55.3902V31.3874H56.2035C57.7018 31.3874 58.4124 32.0682 58.4124 33.2585ZM94.095 35.3188L94.1053 35.3147H87.1074C87.1074 35.3147 87.3972 36.3304 87.4439 36.5021C87.7307 37.5178 87.9443 37.6072 88.5345 37.6142L88.5378 37.6208H90.3866V40.3048C89.815 40.4214 89.2309 40.4651 88.6483 40.4348C86.2983 40.3429 84.344 38.6965 84.344 35.794C84.344 33.1244 86.1588 31.3998 88.962 31.3998C90.4412 31.3998 91.6986 31.704 92.7763 32.1998L94.1223 30.0617L93.9153 29.9376C93.066 29.4368 91.6675 28.9443 89.294 28.8776C86.8078 28.8093 84.5472 29.6313 83.3614 30.4156C82.2543 31.1647 80.4001 32.8794 80.4001 35.9562C80.4001 37.7508 80.951 39.2387 82.0304 40.3773C83.4976 41.9268 85.9966 42.7864 88.8892 42.7864C91.3062 42.7864 93.0408 42.3312 94.1355 41.6992V35.3188H94.095ZM24.2537 35.14C24.5708 34.5763 24.7736 34.2105 25.2661 33.5449C28.1918 29.6441 34.8217 23.4703 40.4774 26.1829C38.2735 24.1871 35.3093 22.842 32.0996 22.842C28.7307 22.842 26.3517 23.7393 24.2169 25.8427C23.7591 26.2975 22.7079 28.4633 22.7079 30.1801C22.7079 31.6175 23.1255 33.2209 24.2537 35.14ZM31.5674 43.5182C31.0041 43.1983 30.6382 42.9975 29.9731 42.5017C26.0731 39.5781 19.8968 32.9473 22.6094 27.29C20.6141 29.498 19.2686 32.4606 19.2686 35.6719C19.2686 39.0392 20.1642 41.4173 22.2692 43.5534C22.7244 44.0107 24.8878 45.0628 26.6046 45.0628C28.0432 45.0628 29.6462 44.6448 31.5674 43.5182ZM39.9435 36.2062C39.6235 36.7658 39.422 37.1316 38.9295 37.8C36.0042 41.6988 29.3747 47.8734 23.7173 45.1617C25.9241 47.1591 28.8879 48.5042 32.0996 48.5042C35.4657 48.5042 37.843 47.6032 39.9778 45.5011C40.4393 45.0487 41.4914 42.8816 41.4914 41.1665C41.4914 39.7271 41.0688 38.1253 39.9435 36.2062ZM32.6294 27.8256C33.1935 28.1434 33.5577 28.347 34.2253 28.8404C38.1257 31.7665 44.3008 38.396 41.5866 44.0529C43.5819 41.8445 44.9299 38.8844 44.9299 35.6719C44.9299 32.3041 44.0301 29.9248 41.9288 27.7916C41.4736 27.3322 39.309 26.2793 37.591 26.2793C36.1511 26.2793 34.5506 26.6998 32.6294 27.8256Z" fill="#DD052B"/>
</svg>
