<svg width="158" height="71" viewBox="0 0 158 71" fill="none" xmlns="http://www.w3.org/2000/svg">
<path fill-rule="evenodd" clip-rule="evenodd" d="M136.691 42.2515H137.618V42.4151H137.291V43.0694H137.025V42.4151H136.691V42.2515Z" fill="#4BB5E8"/>
<path fill-rule="evenodd" clip-rule="evenodd" d="M139.036 42.2515V43.0694H138.777V42.49V42.4628C138.779 42.4923 138.779 42.5219 138.777 42.5514L138.573 43.0967H138.341L138.143 42.5718L138.102 42.4287C138.099 42.4809 138.099 42.5332 138.102 42.5855V43.0967H137.843V42.2787H138.232L138.402 42.7422L138.436 42.8717C138.435 42.8377 138.435 42.8036 138.436 42.7695L138.613 42.2787L139.036 42.2515Z" fill="#4BB5E8"/>
<path fill-rule="evenodd" clip-rule="evenodd" d="M134.668 41.4677C130.046 46.089 123.469 47.0092 119.986 43.5125C116.503 40.0158 117.416 33.445 122.03 28.8237C126.645 24.2023 133.236 23.2821 136.719 26.7788C140.202 30.2755 139.289 36.8395 134.674 41.4677H134.668Z" fill="#4BB5E8"/>
<path fill-rule="evenodd" clip-rule="evenodd" d="M132.812 43.056H123.501C123.303 43.057 123.11 42.9952 122.95 42.8795C122.79 42.7638 122.67 42.6001 122.609 42.4121C122.547 42.2241 122.547 42.0215 122.608 41.8334C122.669 41.6453 122.789 41.4815 122.949 41.3656L125.805 39.2866C126.005 39.1402 126.254 39.0791 126.499 39.1168C126.744 39.1545 126.964 39.288 127.11 39.4877C127.257 39.6875 127.318 39.9372 127.28 40.182C127.242 40.4268 127.109 40.6466 126.909 40.793L126.364 41.1884H131.537L123.263 34.8357C123.109 34.7195 122.996 34.559 122.938 34.3759C122.879 34.1929 122.879 33.9963 122.936 33.8129C122.993 33.6296 123.106 33.4684 123.258 33.3513C123.411 33.2343 123.595 33.1671 123.787 33.1589H134.264C134.508 33.1643 134.74 33.265 134.911 33.4395C135.082 33.6141 135.177 33.8486 135.177 34.0927C135.173 34.2242 135.14 34.3531 135.081 34.4708C135.022 34.5884 134.939 34.692 134.836 34.7743L132.11 37.0578C132.016 37.137 131.907 37.1967 131.79 37.2335C131.672 37.2703 131.549 37.2833 131.426 37.2719C131.304 37.2605 131.185 37.2248 131.077 37.167C130.968 37.1092 130.872 37.0303 130.794 36.9351C130.638 36.7448 130.564 36.5006 130.586 36.2555C130.609 36.0104 130.728 35.7843 130.917 35.6264L131.674 34.9925H126.596L134.83 41.2838C134.232 41.9367 133.562 42.5198 132.832 43.0219L132.812 43.056ZM123.828 30.4597H134.243C134.491 30.4597 134.729 30.5581 134.904 30.7332C135.079 30.9083 135.177 31.1459 135.177 31.3935C135.177 31.6412 135.079 31.8787 134.904 32.0538C134.729 32.2289 134.491 32.3273 134.243 32.3273H123.828C123.581 32.3273 123.343 32.2289 123.168 32.0538C122.993 31.8787 122.894 31.6412 122.894 31.3935C122.894 31.1459 122.993 30.9083 123.168 30.7332C123.343 30.5581 123.581 30.4597 123.828 30.4597Z" fill="white"/>
<path fill-rule="evenodd" clip-rule="evenodd" d="M131.3 28.1966L132.895 27.1469C133.104 27.0144 133.356 26.9695 133.598 27.0218C133.84 27.0741 134.051 27.2195 134.186 27.4264C134.321 27.6334 134.37 27.8853 134.321 28.1277C134.272 28.37 134.129 28.5833 133.924 28.7214L132.329 29.7711C132.12 29.9076 131.866 29.9555 131.622 29.9044C131.378 29.8532 131.164 29.7072 131.027 29.4985C130.958 29.3956 130.91 29.2799 130.886 29.1582C130.862 29.0365 130.863 28.9113 130.888 28.7899C130.914 28.6685 130.963 28.5534 131.034 28.4515C131.105 28.3496 131.195 28.2629 131.3 28.1966Z" fill="white"/>
<path fill-rule="evenodd" clip-rule="evenodd" d="M57.0122 38.0461H59.1184C60.1107 37.9729 61.1039 38.1758 61.988 38.6323C62.2892 38.841 62.5332 39.1219 62.6975 39.4495C62.8619 39.777 62.9413 40.1405 62.9286 40.5067C62.9338 40.8344 62.8784 41.1603 62.7651 41.4678C62.1516 43.0151 60.3112 43.0423 59.616 43.0491H57.0122V38.0461ZM58.6822 39.1026V42.0472H59.1866C60.0658 42.0472 61.2859 41.9927 61.2859 40.5544C61.2988 40.3716 61.2746 40.1879 61.2149 40.0146C61.1552 39.8413 61.0611 39.6818 60.9383 39.5456C60.7158 39.3686 60.4599 39.2381 60.1859 39.162C59.9118 39.0859 59.6253 39.0657 59.3433 39.1026H58.6822Z" fill="#DB261B"/>
<path fill-rule="evenodd" clip-rule="evenodd" d="M63.8892 38.0459H67.1473C68.8718 38.0459 69.5534 38.8025 69.5534 39.6477C69.5534 40.6565 68.6468 40.9291 68.1902 41.0518L69.717 43.0558H67.8902L66.5816 41.27H65.5387V43.0558H63.8892V38.0459ZM65.5455 38.9865V40.3498H66.9087C67.1405 40.3498 67.8971 40.3498 67.8971 39.6681C67.8971 38.9865 67.2904 38.9865 66.9428 38.9865H65.5455Z" fill="#DB261B"/>
<path fill-rule="evenodd" clip-rule="evenodd" d="M101.315 38.0459H104.574C106.298 38.0459 106.98 38.8025 106.98 39.6477C106.98 40.6565 106.073 40.9291 105.616 41.0518L107.136 43.0558H105.317L104.001 41.27H102.965V43.0558H101.309V38.0459H101.315ZM102.972 38.9865V40.3498H104.335C104.567 40.3498 105.323 40.3498 105.323 39.6681C105.323 38.9865 104.717 38.9865 104.369 38.9865H102.972Z" fill="#DB261B"/>
<path fill-rule="evenodd" clip-rule="evenodd" d="M76.0211 38.0459V40.8405C76.0699 41.3438 75.9342 41.8476 75.6393 42.2583C74.9577 43.124 73.4582 43.1648 73.1787 43.1648C72.653 43.168 72.131 43.0756 71.6383 42.8922C71.2156 42.7627 70.8545 42.4837 70.6224 42.1074C70.3904 41.7311 70.3032 41.2832 70.3773 40.8474V38.0527H72.0677V41.1745C72.0435 41.3882 72.0839 41.6042 72.1836 41.7948C72.3275 41.9243 72.4974 42.0217 72.6819 42.0805C72.8664 42.1393 73.0613 42.1581 73.2537 42.1356C74.3784 42.1356 74.3784 41.5562 74.3852 41.1609V38.0527L76.0211 38.0459Z" fill="#DB261B"/>
<path fill-rule="evenodd" clip-rule="evenodd" d="M81.8339 42.5855C81.2707 42.9932 80.5858 43.1975 79.8913 43.1649C78.0509 43.1649 76.9126 42.0334 76.9126 40.5543C76.9126 38.9457 78.2759 37.8755 80.1707 37.8755C80.7101 37.8526 81.2483 37.9441 81.7499 38.1438C82.2514 38.3435 82.7052 38.6469 83.0812 39.0343L81.8271 39.6068C81.6457 39.3776 81.4114 39.1958 81.1442 39.0771C80.8771 38.9583 80.5851 38.9062 80.2934 38.9252C80.0686 38.8967 79.8403 38.9181 79.6248 38.988C79.4092 39.0579 79.2118 39.1744 79.0464 39.3293C78.8811 39.4843 78.7519 39.6738 78.6682 39.8843C78.5845 40.0949 78.5483 40.3213 78.5621 40.5475C78.5477 40.7857 78.5875 41.0242 78.6784 41.245C78.7693 41.4657 78.9089 41.663 79.087 41.8221C79.4396 42.0695 79.8628 42.1962 80.2934 42.1833C80.6061 42.1885 80.9159 42.1232 81.2 41.9925C81.3495 41.9312 81.4787 41.829 81.5728 41.6976C81.6668 41.5661 81.7219 41.4108 81.7316 41.2495H80.2457V40.3021H83.1153V43.0762H81.8202V42.6127L81.8339 42.5855Z" fill="#DB261B"/>
<path fill-rule="evenodd" clip-rule="evenodd" d="M93.5384 38.0459V43.049H91.957L92.0593 39.4841V38.9797L92.0047 39.1569C91.9161 39.4432 91.9093 39.4773 91.8343 39.6886L90.587 43.049H89.1624L87.9696 39.8318L87.6765 38.9388C87.6765 39.3342 87.6765 39.4228 87.731 39.8931L87.8128 43.049H86.2383V38.0459H88.6307L89.6395 40.8542L89.8781 41.6517C89.9667 41.304 89.9804 41.27 90.0553 41.0382L91.1118 38.0459H93.5384Z" fill="#DB261B"/>
<path fill-rule="evenodd" clip-rule="evenodd" d="M98.2843 38.0459L100.718 43.049H98.9591L98.6251 42.2515H96.1917L95.8645 43.049H94.106L96.5598 38.0459H98.2843ZM97.3914 39.2387C97.3096 39.4909 97.2141 39.7568 97.1187 40.009C96.9824 40.3838 96.7302 40.97 96.5802 41.3722H98.257L97.3914 39.2592V39.2387Z" fill="#DB261B"/>
<path fill-rule="evenodd" clip-rule="evenodd" d="M107.184 38.0459H112.848V39.0342H110.851V43.0558H109.188V39.0342H107.184V38.0459Z" fill="#DB261B"/>
<path fill-rule="evenodd" clip-rule="evenodd" d="M31.6338 27.0037H35.2532V30.2141H38.7021V27.0037H42.3556V35.8101H38.7021V32.4157H35.2532V35.8101H31.6338V27.0037Z" fill="#DB261B"/>
<path fill-rule="evenodd" clip-rule="evenodd" d="M55.8315 31.3252C55.8315 33.554 54.1275 36.0965 49.6356 36.0965C44.9529 36.0965 43.542 33.4313 43.542 31.4206C43.542 28.9054 45.5868 26.6833 49.6765 26.6833C54.2025 26.6833 55.8111 29.2258 55.8111 31.3252H55.8315ZM47.1682 31.4069C47.1682 32.9406 47.9793 33.8676 49.697 33.8676C50.0347 33.8932 50.3739 33.8445 50.6907 33.7249C51.0075 33.6052 51.2943 33.4177 51.5308 33.1753C51.7673 32.9329 51.9478 32.6417 52.0597 32.322C52.1715 32.0024 52.2119 31.6621 52.1781 31.3252C52.1933 30.9265 52.1236 30.5292 51.9736 30.1596C51.7527 29.7556 51.4212 29.423 51.018 29.2009C50.6147 28.9787 50.1565 28.8762 49.697 28.9054C49.3593 28.8733 49.0186 28.9157 48.6991 29.0297C48.3795 29.1436 48.0889 29.3263 47.8477 29.5649C47.6065 29.8035 47.4207 30.0921 47.3032 30.4104C47.1858 30.7287 47.1397 31.0689 47.1682 31.4069Z" fill="#DB261B"/>
<path fill-rule="evenodd" clip-rule="evenodd" d="M57.0122 27.0039H63.5625C64.8099 27.0448 65.8937 27.0789 66.8207 27.815C67.1284 28.0576 67.375 28.369 67.5407 28.7241C67.7064 29.0792 67.7867 29.4682 67.7749 29.8599C67.7905 30.2946 67.7 30.7266 67.5111 31.1185C67.3223 31.5104 67.0409 31.8505 66.6911 32.1092C65.7301 32.8658 64.6804 32.9067 63.433 32.9272H60.6384V35.7968H57.0122V27.0039ZM60.6384 28.8511V31.0936H62.6833C62.8849 31.0968 63.0862 31.0762 63.2831 31.0323C63.5327 30.9882 63.7581 30.8559 63.9183 30.6594C64.0785 30.463 64.1627 30.2155 64.1556 29.9621C64.1556 28.9261 63.1058 28.8783 62.6492 28.8511H60.6384Z" fill="#DB261B"/>
<path fill-rule="evenodd" clip-rule="evenodd" d="M68.7881 27.0039H75.3316C76.5858 27.0448 77.6695 27.0789 78.5897 27.815C78.8991 28.0566 79.1473 28.3675 79.3143 28.7228C79.4812 29.078 79.5623 29.4675 79.5508 29.8599C79.5664 30.2946 79.4758 30.7266 79.287 31.1185C79.0982 31.5104 78.8168 31.8505 78.467 32.1092C77.506 32.8658 76.4563 32.9067 75.2089 32.9272H72.4143V35.7968H68.7881V27.0039ZM72.4143 28.8511V31.0936H74.4932C74.6949 31.0965 74.8962 31.0759 75.093 31.0323C75.3426 30.9882 75.5681 30.8559 75.7283 30.6594C75.8884 30.463 75.9726 30.2155 75.9655 29.9621C75.9655 28.9261 74.9158 28.8783 74.4591 28.8511H72.4143Z" fill="#DB261B"/>
<path fill-rule="evenodd" clip-rule="evenodd" d="M80.5522 27.0037H89.6109V28.9395H84.1853V30.2482H89.2565V32.1567H84.1853V33.9016H90.0949V35.8101H80.5522V27.0037Z" fill="#DB261B"/>
<path fill-rule="evenodd" clip-rule="evenodd" d="M91.2495 27.0038H96.9546C97.903 26.9615 98.8527 27.051 99.7765 27.2697C100.338 27.4198 100.835 27.7495 101.192 28.2086C101.549 28.6676 101.746 29.2307 101.753 29.8121C101.753 31.1072 100.894 31.857 99.4016 32.2591L102.189 35.8103H98.1679L95.9254 32.709H94.8552V35.8103H91.229V27.0038H91.2495ZM94.8757 28.8374V30.8822H96.3888C96.9887 30.8822 98.1406 30.8822 98.1406 29.8598C98.1406 28.8374 97.0023 28.8238 96.3684 28.8238L94.8757 28.8374Z" fill="#DB261B"/>
<path fill-rule="evenodd" clip-rule="evenodd" d="M104.717 32.7703C105.398 33.7518 106.945 33.9291 107.988 33.9291C108.602 33.9291 109.624 33.7927 109.624 33.2474C109.624 32.968 109.42 32.7771 108.943 32.6953L106.012 32.2386C104.014 31.9046 102.897 30.9981 102.897 29.669C102.897 27.8286 104.941 26.7244 107.954 26.7244C110.095 26.7244 111.996 27.256 113.094 28.2853L110.824 29.7439C110.272 29.1032 109.024 28.8442 107.825 28.8442C107.211 28.8442 106.53 28.9737 106.53 29.4167C106.53 29.8598 107.116 29.9348 108.104 30.0984C110.64 30.521 113.175 30.78 113.175 32.968C113.175 34.7606 111.274 36.0898 107.777 36.0898C105.412 36.0898 103.408 35.6195 101.942 34.154L104.717 32.7907V32.7703Z" fill="#DB261B"/>
<path fill-rule="evenodd" clip-rule="evenodd" d="M22.016 32.7702C22.6976 33.7518 24.2448 33.929 25.2877 33.929C25.9012 33.929 26.9304 33.7927 26.9304 33.2474C26.9304 32.9679 26.7259 32.7771 26.2488 32.6953L23.3451 32.2113C21.3412 31.8773 20.2233 30.9708 20.2233 29.6416C20.2233 27.8012 22.3091 26.697 25.2877 26.697C27.428 26.697 29.3297 27.2287 30.4271 28.2579L28.1573 29.7166C27.5984 29.0759 26.351 28.8169 25.1582 28.8169C24.5448 28.8169 23.8631 28.9464 23.8631 29.3894C23.8631 29.8325 24.4493 29.9074 25.4309 30.071C27.9733 30.4936 30.5089 30.7526 30.5089 32.9406C30.5089 34.7333 28.6072 36.0624 25.1105 36.0624C22.7453 36.0624 20.7413 35.5921 19.269 34.1266L22.0432 32.7634L22.016 32.7702Z" fill="#DB261B"/>
</svg>
