<svg width="158" height="70" viewBox="0 0 158 70" fill="none" xmlns="http://www.w3.org/2000/svg">
<path fill-rule="evenodd" clip-rule="evenodd" d="M45.0798 12.5496C45.6322 13.1635 45.8166 13.9624 46.1239 14.6993C45.1412 15.9886 43.5446 16.6031 42.1939 17.4008C41.7643 17.5237 41.58 17.8303 41.1498 18.0147C40.5358 17.7689 39.4917 17.4622 39.4917 16.541C39.0622 15.8656 38.632 15.2517 38.632 14.5143C39.7376 13.2243 41.5793 13.5316 42.7463 12.3037C43.3603 12.3037 43.7905 11.8121 44.4044 12.1808C44.5888 12.3652 44.7731 12.5496 45.0798 12.5496ZM40.781 20.3488C41.8866 20.1644 43.2374 19.6727 44.0971 20.6554C44.4658 20.8398 44.3429 21.2079 44.4658 21.4537C44.4044 21.6381 44.2815 22.1291 43.8519 22.1905C43.4224 22.1291 42.9307 22.5593 42.4391 22.743C42.6849 22.8659 43.1759 23.1117 43.2988 23.4798C43.6055 23.9715 43.2988 24.5854 43.2988 25.0149C42.9915 25.9976 41.5179 25.8747 41.6408 27.164C40.0442 27.7165 39.0622 29.313 37.3427 29.4974C36.36 30.3572 35.1322 31.0325 34.3332 32.1381C33.9651 29.1293 36.1757 26.2434 38.6934 24.892C38.5091 24.2167 37.4656 23.9094 37.4656 23.1111C37.0354 22.6194 36.7288 21.8832 36.7288 21.2687C37.7729 20.4704 38.817 19.3648 40.2292 19.795C40.29 20.0415 40.6588 20.0415 40.781 20.3488Z" fill="black"/>
<path fill-rule="evenodd" clip-rule="evenodd" d="M50.4887 28.7618C50.4887 28.6388 50.3658 28.5159 50.2429 28.4545C49.9363 28.5159 49.6904 28.2701 49.4446 28.5159C49.3223 27.9635 48.339 28.393 48.1553 27.8406C49.0765 27.5947 49.9971 28.1472 50.4887 28.7618ZM49.1988 28.9455L49.1373 28.5159L49.3217 28.7003L49.1988 28.9455ZM50.8568 29.0684C50.7954 29.498 50.4881 29.6823 50.1814 29.8052L50.4881 29.1913C50.4881 29.2528 50.5495 29.3142 50.5495 29.3142C50.7339 29.3142 50.7954 29.0684 50.8568 29.0684ZM49.6904 29.1299C49.629 29.2528 49.4446 29.3757 49.5061 29.5601C49.6904 29.4371 49.9971 29.7438 49.9971 29.9282C49.9971 29.9896 49.9356 30.0511 49.8748 30.1125C49.8748 29.9281 49.6904 29.8059 49.5061 29.8667L49.4446 29.9282C49.4446 30.2969 49.5061 29.7438 49.3831 29.7438C48.5234 29.8059 49.1373 30.665 48.339 30.7264C48.339 30.4806 48.5234 30.4198 48.7078 30.2969C48.4619 29.7438 48.1553 30.4198 47.848 30.2969L48.1547 29.9902L48.0932 29.9288C48.1547 29.9288 48.7071 30.0517 48.7686 29.6221C48.953 30.0517 49.2596 29.5607 49.444 29.4378C49.4446 29.2528 49.4446 29.0069 49.6904 29.1299ZM47.2949 30.6035C47.172 30.4806 47.172 30.3577 47.3564 30.2354C47.2949 30.3577 47.2341 30.4806 47.2949 30.6035ZM41.2773 32.6918C40.8478 32.6918 40.479 32.6918 40.2332 32.9984L40.1103 32.9369C40.1718 32.5688 40.9086 32.7526 41.2773 32.5074V32.6918ZM39.0054 34.7179C38.9439 34.9023 38.7595 34.9023 38.6366 34.9023C38.6981 34.7794 38.8825 34.7179 39.0054 34.7179ZM34.891 35.3318C34.7066 35.3318 34.4614 35.3933 34.3379 35.2704C34.4608 35.086 34.7681 35.2704 34.891 35.086V35.3318Z" fill="#C7BD2A"/>
<path fill-rule="evenodd" clip-rule="evenodd" d="M33.4765 27.2263C32.9849 28.9458 31.4497 28.4541 30.1604 29.1916C30.2219 29.3145 29.7302 29.376 29.3621 29.4368L28.9934 29.6211C27.6426 29.8055 26.7829 30.7267 25.5544 31.2792C25.6159 31.8316 24.8784 31.525 24.5717 31.8316C24.4488 32.2618 23.6505 32.0775 23.8349 32.6299C23.2824 33.0595 22.4842 33.4282 22.2383 34.0428C22.9137 34.6567 23.8349 34.5338 24.5717 34.7182C27.0281 34.964 29.1771 34.6567 31.4497 34.6567C32.1251 34.5338 32.7397 34.288 33.4765 34.288V34.3494C33.9682 34.5338 34.3362 33.9199 34.8894 34.1651C35.2575 33.7355 35.9949 34.1036 36.363 33.6126C37.0999 33.3668 38.1433 33.5511 38.6964 33.1824V33.3053C38.4506 33.2432 38.5121 33.489 38.3898 33.612C38.5127 33.7349 38.7579 33.6734 38.9423 33.6734C39.7412 32.8137 40.4166 33.9192 41.1534 32.9366C41.4601 32.507 41.9517 32.3227 42.4427 32.1997L42.6271 32.4456C42.8729 31.7087 43.6712 31.9539 44.1007 31.5858C43.7935 31.6473 43.732 32.1383 43.3025 31.9546C43.6091 32.5077 42.8114 32.5685 42.6271 32.8758C42.4427 32.9372 42.0132 32.8758 42.0746 32.5691C41.8902 32.7535 41.8902 33.4289 41.4607 33.183C40.9697 33.306 40.2937 33.4897 39.7412 33.797C39.1273 33.8584 38.3283 34.2265 37.653 34.0428C37.1005 34.3494 36.5474 34.288 35.9335 34.5338C35.1352 34.7182 33.9688 34.6567 33.2928 35.0863C33.0476 35.0863 33.1705 35.455 32.9247 35.455C33.1705 35.455 33.109 36.1304 33.4771 35.8237C33.2928 35.8237 33.1705 36.0696 33.1084 35.8237C32.7403 35.8852 32.433 36.3154 32.1257 35.9466C31.6347 36.1918 30.9594 36.0689 30.4063 36.1304V35.9466C30.775 36.2533 30.6521 35.6394 30.9594 35.5779V35.3321C30.0382 35.7008 28.994 35.5779 27.9499 36.0081C28.2566 36.622 27.3975 36.1304 27.2131 36.3762C27.2131 36.2533 27.3354 36.2533 27.3975 36.1918C26.1082 35.7623 25.4936 36.622 24.0814 36.3147L23.897 36.6214C23.2831 36.2526 22.4848 36.9895 21.8702 36.5599C21.1949 36.437 20.2737 36.2527 20.0278 35.5773C19.7826 35.6387 19.7212 35.4544 19.6597 35.2706C19.7826 34.5953 18.5542 34.3494 19.1073 33.6126C18.7385 33.1824 19.2295 32.6914 19.2916 32.2618C19.3531 32.2004 19.3531 32.0775 19.4139 31.9546L19.5368 32.1389C19.8435 31.8931 19.9056 31.525 20.0278 31.2184L20.949 30.2357C20.8876 30.2972 20.949 30.358 21.0105 30.358C21.1334 30.358 21.1949 30.2357 21.3171 30.1736C21.1942 29.8055 21.44 29.7434 21.6859 29.5597C21.8702 29.4982 22.1154 29.682 22.1775 29.4368C21.9931 28.9458 22.7914 29.4368 22.7914 28.8843C23.4668 28.9458 23.5897 28.1475 24.2651 28.2704C25.1857 27.3492 26.4756 27.2877 27.5197 26.5509C29.3007 25.9984 32.3716 24.647 33.4765 27.2263ZM31.5733 35.3321H31.3275L31.5733 35.5165V35.3321ZM30.9594 35.9466H31.2052C31.3275 35.8846 31.3275 35.7623 31.4504 35.6394C31.2052 35.6394 31.0202 35.7623 30.9594 35.9466Z" fill="#C7BD2A"/>
<path fill-rule="evenodd" clip-rule="evenodd" d="M27.0906 36.3146C27.0291 36.4369 26.9062 36.3761 26.8447 36.3761V36.2532C26.9068 36.2532 27.0291 36.1917 27.0906 36.3146ZM46.7418 30.6037C46.6189 30.7266 46.4345 30.9724 46.2502 30.7266H46.1887C46.3116 30.6651 46.4954 30.5422 46.7418 30.6037Z" fill="#C7BD2A"/>
<path fill-rule="evenodd" clip-rule="evenodd" d="M35.135 40.5518C35.3802 42.0261 34.6433 43.3154 33.845 44.4824L33.4763 44.5439L33.5378 44.4824L33.4763 44.421C32.8009 45.2807 32.0026 45.9561 31.8183 47.0617C31.6954 47.1231 31.5724 47.1231 31.5116 47.1839C31.3273 46.57 30.8977 45.7717 31.2658 45.1578C31.1429 43.3154 32.0026 41.9646 32.8624 40.4289C33.4148 40.1222 33.968 39.1389 34.5819 39.6306L35.135 40.5518ZM31.5731 52.5268C31.8189 53.0184 31.7574 53.5088 31.6345 54.0005C31.2658 54.0625 30.8977 54.0005 30.5904 53.8161L30.529 53.8782C30.0994 53.6324 29.7307 53.3257 29.6692 52.8341C29.5463 52.1587 30.4061 52.2816 30.529 51.7285C30.8977 51.8508 31.2658 52.2195 31.5731 52.5268ZM54.7242 45.403V48.2895C53.9873 48.6582 51.1008 48.9034 50.364 48.9034C46.3725 48.9034 45.0826 46.8152 45.0826 43.0702C45.0826 39.1396 46.7406 37.2363 50.7321 37.2363C52.2057 37.2363 53.2498 37.4822 54.7235 37.9124V40.491H53.8023V40.0614C53.5565 38.219 52.7582 37.8509 50.7321 37.8509C47.6618 37.8509 46.8021 40.0614 46.8021 42.7636C46.8021 45.7109 47.2931 48.3516 50.7935 48.3516C53.3113 48.3516 53.5571 47.6762 53.8029 45.4043H54.7242V45.403ZM59.0837 43.1925C59.0837 39.0781 60.4345 37.3593 64.6717 37.3593C68.909 37.3593 70.2598 39.0787 70.2598 43.1925C70.2598 47.3075 69.1542 49.0263 64.6717 49.0263C60.4351 49.0263 59.0837 47.3068 59.0837 43.1925ZM60.7417 43.1925C60.7417 45.9561 61.4171 48.4739 64.6717 48.4739C67.9878 48.4739 68.6017 45.9561 68.6017 43.1925C68.6017 40.4295 67.9878 37.9732 64.6717 37.9732C61.4171 37.9725 60.7417 40.4289 60.7417 43.1925ZM84.5067 39.2625H84.4453L80.5153 48.7191C80.393 48.9028 80.2701 48.9028 80.1465 48.7805L76.1551 39.4462V47.1225C76.1551 48.1666 76.4009 48.228 77.5059 48.228V48.7805H74.0669V48.228C75.1724 48.228 75.4176 48.1666 75.4176 47.1225V39.1389C75.4176 38.0334 75.111 38.0334 74.0669 38.0334V37.4809H76.6461L80.699 46.5694L84.5676 37.4809H87.2083V38.0334C86.1641 38.0334 85.8581 38.0334 85.8581 39.1389V47.1225C85.8581 48.1666 86.1033 48.228 87.2083 48.228V48.7805H83.0945V48.228C84.2609 48.228 84.5061 48.1666 84.5061 47.1225L84.5067 39.2625ZM94.8845 47.1225C94.8845 47.9822 94.8231 48.228 96.4196 48.228V48.7805C95.6835 48.7805 94.8845 48.7805 94.1477 48.7191C93.35 48.7805 92.6126 48.7805 91.8143 48.7805V48.228C93.4109 48.228 93.4109 47.9822 93.4109 47.1225V39.1389C93.4109 38.2184 93.4109 37.9725 91.8143 37.9725V37.4201C92.6119 37.4815 93.3494 37.4815 94.1477 37.4815C95.2533 37.4815 96.3582 37.4815 97.5246 37.4201C99.6128 37.4201 100.718 38.034 100.718 40.3066C100.718 43.3768 98.9983 43.7449 96.3576 43.7449H94.8832V47.1225H94.8845ZM94.8845 43.131H95.6835C97.7102 43.131 99.1218 43.0696 99.1218 40.6132C99.1218 38.2184 98.3242 38.034 96.4824 38.034H94.8845V43.131ZM109.93 37.4815L113.369 46.4471C113.553 46.9387 113.983 48.351 115.273 48.228V48.7805H110.79V48.228C110.79 48.228 112.203 48.228 112.203 47.552C112.203 47.2454 112.079 46.9381 111.957 46.6923L110.912 43.9293H106.982L105.938 46.7537C105.877 47.0002 105.816 47.2454 105.816 47.4906C105.816 48.2274 106.614 48.2274 107.166 48.2274V48.7799H103.298V48.2274C103.85 48.166 104.158 48.2274 104.525 47.7358C104.772 47.4899 105.202 46.3235 105.386 46.0163L108.886 37.4802H109.93V37.4815ZM110.606 43.131L108.948 38.9558L107.166 43.316H110.667L110.606 43.131ZM123.378 42.455C124.913 43.0075 126.326 43.7449 126.326 45.5874C126.326 48.2895 124.115 48.9649 121.842 48.9649C120.676 48.9649 119.448 48.7805 118.342 48.2889V45.3415H119.386C119.57 46.9381 119.141 48.4124 122.027 48.4124C123.5 48.4124 124.851 47.7364 124.851 46.1398C124.851 44.2974 123.071 43.9293 121.658 43.4377C120.123 42.8852 118.772 42.3321 118.772 40.4289C118.772 38.2798 120.553 37.2972 122.519 37.2972C123.624 37.2972 124.668 37.4809 125.835 37.9111V40.6132H124.914C124.791 39.3233 125.099 37.9111 122.58 37.9111C121.229 37.9111 120.185 38.4635 120.185 39.9372C120.185 40.9199 120.676 41.4115 121.536 41.7796L123.378 42.455ZM135.782 42.2713C137.317 42.8237 138.73 43.4991 138.73 45.403C138.73 48.1058 136.52 48.7805 134.247 48.7805C133.08 48.7805 131.852 48.5961 130.747 48.1051V45.1578H131.791C131.975 46.7537 131.544 48.228 134.432 48.228C135.905 48.228 137.256 47.552 137.256 45.9561C137.256 44.1137 135.476 43.7449 134.063 43.2539C132.528 42.7008 131.177 42.1484 131.177 40.2445C131.177 38.034 132.957 37.1128 134.923 37.1128C136.029 37.1128 137.072 37.2972 138.239 37.7267V40.4289H137.318C137.196 39.1389 137.502 37.7267 134.985 37.7267C133.633 37.7267 132.589 38.2792 132.589 39.7528C132.589 40.674 133.081 41.2272 133.941 41.5953L135.782 42.2713ZM74.1904 56.3953C74.1904 56.0272 74.1904 55.9658 73.4536 55.9658V55.7199C73.8838 55.7814 74.1904 55.7814 74.4977 55.7814C74.805 55.7814 75.1116 55.7814 75.296 55.7199V55.9658C74.8043 55.9658 74.8043 56.088 74.8043 56.3953V57.2551C74.2519 57.4394 73.638 57.5617 73.0848 57.5617C71.4883 57.5617 70.9358 56.7641 70.9358 55.2898C70.9358 53.7546 71.6112 52.9563 73.2078 52.9563C73.8217 52.9563 74.2519 53.0178 74.8043 53.2015V54.2456H74.4362C74.3748 53.3251 74.129 53.1401 73.2078 53.1401C71.9185 53.1401 71.6112 54.1842 71.6112 55.2891C71.6112 56.517 71.9178 57.3159 73.2692 57.3159C73.5144 57.3159 73.8831 57.2538 74.1904 57.0701V56.3953ZM81.9269 56.8249C81.9269 57.193 81.8654 57.3165 82.5421 57.3165V57.5003H80.6997V57.3165C81.3136 57.3165 81.3136 57.1936 81.3136 56.8249V53.6925C81.3136 53.3244 81.3136 53.263 80.6997 53.263V53.0178H82.8487C83.6476 53.0178 84.2001 53.0792 84.2001 53.9998C84.2001 54.7981 83.7699 55.106 83.0945 55.1668C83.2783 55.4735 84.0151 56.6405 84.2001 56.8863C84.3838 57.0707 84.5067 57.2544 84.8755 57.3165V57.5003H83.8922C83.462 56.8249 82.5421 55.3512 82.3571 55.2898C82.2348 55.2283 82.0504 55.2283 81.9269 55.2283V56.8249ZM81.9269 55.0439H82.2341C82.9095 55.0439 83.5855 55.0439 83.5855 54.1234C83.5855 53.4473 83.2783 53.2636 82.6029 53.2636H81.9262L81.9269 55.0439ZM90.3406 55.2283C90.3406 53.6317 90.8931 52.9563 92.5511 52.9563C94.2706 52.9563 94.7616 53.6317 94.7616 55.2283C94.7616 56.8863 94.3327 57.5617 92.5511 57.5617C90.8931 57.5617 90.3406 56.8863 90.3406 55.2283ZM91.016 55.2283C91.016 56.3339 91.2624 57.3165 92.5511 57.3165C93.8417 57.3165 94.0862 56.3339 94.0862 55.2283C94.0862 54.1842 93.841 53.1401 92.5511 53.1401C91.2618 53.1407 91.016 54.1842 91.016 55.2283ZM101.64 56.0266C101.64 56.8863 102.008 57.3165 102.867 57.3165C103.85 57.3165 104.28 56.9478 104.28 55.9658V53.6932C104.28 53.2636 104.28 53.2636 103.605 53.2636V53.0178H105.201V53.2636C104.586 53.2636 104.586 53.3251 104.586 53.6932V55.9037C104.586 57.1936 103.911 57.5617 102.683 57.5617C101.639 57.5617 101.025 57.1322 101.025 56.088V53.6932C101.025 53.3251 101.086 53.2636 100.473 53.2636V53.0178H102.254V53.2636C101.64 53.2636 101.64 53.3251 101.64 53.6932V56.0266ZM111.834 56.8249C111.834 57.193 111.834 57.3165 112.448 57.3165V57.5003H110.606V57.3165C111.22 57.3165 111.22 57.1936 111.22 56.8249V53.6925C111.22 53.3244 111.22 53.263 110.606 53.263V53.0178H112.878C113.675 53.0178 114.167 53.2636 114.167 54.1234C114.167 55.3512 113.431 55.5356 112.387 55.5356H111.834L111.834 56.8249ZM111.834 55.2898H112.141C112.939 55.2898 113.491 55.2283 113.491 54.2456C113.491 53.3251 113.184 53.2636 112.447 53.2636H111.833V55.2898H111.834Z" fill="black"/>
<path fill-rule="evenodd" clip-rule="evenodd" d="M44.6545 32.3233C44.5316 32.3233 44.2858 32.3848 44.1021 32.2619C44.2864 32.0775 44.5316 32.2619 44.6545 32.0775V32.3233ZM45.7594 31.2178C45.3907 31.2178 45.0226 31.2177 44.7153 31.5858L44.6539 31.4636C44.7153 31.0948 45.4522 31.2792 45.7594 31.0334V31.2178ZM47.1717 31.2178C47.0494 31.1563 46.8036 31.2792 46.6807 31.0948C46.8036 30.9719 47.0494 31.1563 47.1717 30.9719V31.2178ZM46.1896 31.5865L46.1282 31.1569L46.3126 31.2792L46.1896 31.5865Z" fill="#C7BD2A"/>
</svg>
