<svg width="159" height="71" viewBox="0 0 159 71" fill="none" xmlns="http://www.w3.org/2000/svg">
<path fill-rule="evenodd" clip-rule="evenodd" d="M75.5929 42.6076C75.0337 42.6018 74.4767 42.6805 73.9409 42.8408C73.4324 42.9928 72.9575 43.2401 72.5415 43.5696C72.1168 43.9165 71.7832 44.3619 71.5697 44.867C71.3196 45.4837 71.1989 46.1453 71.215 46.8106C71.195 47.4603 71.3603 48.1022 71.6916 48.6615C72.0228 49.2207 72.5064 49.6742 73.0857 49.9689C73.7627 50.3007 74.5087 50.4673 75.2625 50.4548L76.5161 50.3236C76.8546 50.2499 77.1816 50.1306 77.4879 49.9689L77.5754 49.483L77.7212 48.9971L77.5851 48.9048C77.4252 49.0875 77.2302 49.2362 77.0118 49.3421C76.7951 49.4682 76.5632 49.5662 76.3218 49.6336L75.5929 49.7259C75.1613 49.7387 74.7344 49.6328 74.3587 49.4198C73.9477 49.1791 73.6114 48.8293 73.387 48.4092C73.1028 47.845 72.9658 47.2183 72.9885 46.5871C72.9868 46.0806 73.0655 45.5771 73.2218 45.0954C73.3365 44.7058 73.5374 44.3471 73.8097 44.0458C74.0153 43.7979 74.2719 43.5971 74.5619 43.4571C74.852 43.317 75.1689 43.2411 75.4909 43.2344C75.8464 43.2287 76.198 43.3087 76.5161 43.4676C76.8497 43.6574 77.1421 43.9118 77.3762 44.2159H77.5268L77.6094 43.6425L77.7795 43.0935C77.5808 42.9781 77.3708 42.8837 77.1527 42.8116L76.3509 42.627L75.5929 42.6076ZM80.9378 47.1847L80.034 47.4374C79.605 47.5151 79.2004 47.6933 78.8533 47.9573C78.7108 48.0968 78.5985 48.2641 78.5233 48.4489C78.4481 48.6336 78.4115 48.8317 78.416 49.0311C78.4205 49.2725 78.4785 49.5098 78.5861 49.7259C78.6944 49.9425 78.8632 50.1231 79.072 50.2459C79.3488 50.3934 79.6572 50.4718 79.9709 50.4742C80.2626 50.469 80.5483 50.3905 80.8017 50.2459C81.0346 50.0906 81.2345 49.8908 81.3897 49.6579C81.452 49.8896 81.5882 50.0947 81.7776 50.242C81.967 50.3893 82.1993 50.4708 82.4392 50.4742L82.9251 50.4062L83.4547 50.173V49.896L83.0806 49.8572C82.984 49.8167 82.9072 49.7399 82.8668 49.6434C82.8134 49.4772 82.7919 49.3024 82.8036 49.1283L82.8279 47.9427V46.6357C82.8471 46.2746 82.7628 45.9155 82.585 45.6007C82.4177 45.3353 82.1636 45.1361 81.8659 45.037C81.5409 44.904 81.1915 44.8411 80.8406 44.8524C80.4799 44.8484 80.1218 44.9144 79.7862 45.0468C79.4232 45.1834 79.085 45.3787 78.7853 45.625L78.9262 46.3004H78.9942L79.3198 45.9797L79.8057 45.7659L80.3207 45.6736C80.6015 45.676 80.8728 45.7756 81.0884 45.9554C81.1811 46.0419 81.2539 46.1476 81.3018 46.265C81.3496 46.3825 81.3713 46.509 81.3654 46.6357C81.3738 46.6889 81.3708 46.7432 81.3566 46.7952C81.3423 46.8471 81.3172 46.8954 81.2828 46.9369C81.1971 47.0554 81.0709 47.1384 80.9281 47.1701L80.9378 47.1847ZM80.0778 48.2391C80.174 48.0975 80.298 47.9768 80.4422 47.8844L80.9281 47.6803L81.414 47.4617V48.6327C81.4366 48.9224 81.3538 49.2106 81.1807 49.4441C81.1129 49.529 81.0262 49.5969 80.9275 49.6425C80.8288 49.688 80.7209 49.7099 80.6122 49.7065C80.5246 49.7096 80.4375 49.6918 80.3581 49.6546C80.2787 49.6174 80.2093 49.562 80.1555 49.4927C80.037 49.3129 79.9776 49.1006 79.9854 48.8854C79.9762 48.6635 80.0177 48.4425 80.1069 48.2391H80.0778ZM87.6383 47.1847L87.5994 48.9388L87.5071 50.3139L87.8715 50.2847H88.3574H88.8433L89.1786 50.3139V49.4927V48.7444V47.8844V46.8834C89.2267 46.3323 89.0673 45.783 88.7316 45.3432C88.5686 45.1758 88.3712 45.0456 88.1532 44.9618C87.9351 44.8779 87.7014 44.8422 87.4683 44.8573C87.1365 44.8585 86.8123 44.9564 86.5353 45.1391C86.2422 45.3017 85.9949 45.5357 85.8162 45.8193H85.7871L85.8356 45.0079L85.4323 45.0419H85.0242H84.6501L84.2662 45.0079L84.3196 46.174V47.4374V47.8747V49.1332L84.2662 50.3042L84.6209 50.275H85.0679H85.5538L85.9182 50.3042L85.7968 49.1186V47.8601V47.4228C85.7795 47.0173 85.8559 46.6132 86.0203 46.2421C86.0894 46.1103 86.1947 46.001 86.3238 45.927C86.4529 45.853 86.6005 45.8173 86.7491 45.8242C86.8771 45.8182 87.0046 45.8449 87.1193 45.9019C87.2341 45.9589 87.3325 46.0442 87.4051 46.1498C87.5948 46.4511 87.6833 46.8052 87.6577 47.1604L87.6383 47.1847ZM92.4973 47.1847L91.5887 47.4374C91.1623 47.5161 90.7598 47.6924 90.4128 47.9524C90.2685 48.0904 90.1553 48.2575 90.0808 48.4427C90.0062 48.6279 89.9719 48.8268 89.9803 49.0263C89.9824 49.2679 90.0406 49.5058 90.1504 49.7211C90.258 49.9382 90.427 50.1189 90.6363 50.241C90.9151 50.3879 91.2249 50.4662 91.5401 50.4694C91.8305 50.4657 92.115 50.387 92.3661 50.241C92.5987 50.0822 92.8011 49.8831 92.9637 49.6531C93.0252 49.8852 93.1598 50.0913 93.3476 50.241C93.5356 50.383 93.7632 50.4628 93.9987 50.4694L94.4846 50.4014L95.0191 50.1681V49.896L94.6449 49.8572C94.5953 49.8382 94.55 49.8095 94.5116 49.7728C94.4732 49.7361 94.4426 49.6921 94.4214 49.6434C94.3702 49.4768 94.3504 49.3021 94.3631 49.1283L94.3923 47.9427V46.6357C94.4133 46.2732 94.3253 45.9127 94.1396 45.6007C93.9751 45.3367 93.7245 45.1377 93.4302 45.037C93.1032 44.9052 92.7525 44.8424 92.4001 44.8524C92.0362 44.8484 91.6749 44.9143 91.336 45.0468C90.9833 45.1864 90.6552 45.3816 90.3642 45.625L90.5051 46.3004H90.5829L90.9084 45.9797L91.3943 45.7659L91.9093 45.6736C92.1859 45.6748 92.453 45.7748 92.6625 45.9554C92.7566 46.0411 92.8307 46.1465 92.8794 46.264C92.9281 46.3816 92.9503 46.5085 92.9443 46.6357C92.9554 46.6881 92.9546 46.7424 92.942 46.7945C92.9294 46.8467 92.9053 46.8953 92.8714 46.9369C92.7836 47.0532 92.6583 47.1356 92.5167 47.1701L92.4973 47.1847ZM91.6275 48.2148C91.7202 48.0735 91.841 47.9528 91.9822 47.8601L92.4681 47.656L92.954 47.4374V48.6084C92.9767 48.8982 92.8939 49.1863 92.7208 49.4198C92.6517 49.5058 92.5633 49.5743 92.4629 49.6199C92.3625 49.6654 92.2528 49.6868 92.1426 49.6822C92.0557 49.6849 91.9695 49.6669 91.8909 49.6297C91.8123 49.5926 91.7437 49.5373 91.6907 49.4684C91.5698 49.2899 91.5117 49.0762 91.5255 48.8611C91.5141 48.639 91.5557 48.4175 91.647 48.2148H91.6275ZM100.641 43.2149L100.69 41.9905L100.345 42.0391H99.8586H99.3727L99.018 41.9905L99.086 43.8126V45.6639C98.9495 45.4196 98.7498 45.2165 98.5078 45.0759C98.2059 44.9059 97.8605 44.8285 97.5148 44.8536C97.1691 44.8787 96.8385 45.005 96.5642 45.2168C96.2324 45.468 95.974 45.8036 95.816 46.1886C95.6274 46.6317 95.5252 47.1066 95.5147 47.588C95.513 48.0829 95.5901 48.575 95.7431 49.0457C95.8693 49.4458 96.105 49.8026 96.4233 50.0758C96.7679 50.3343 97.1879 50.4725 97.6186 50.4694C97.9628 50.483 98.3022 50.3855 98.5866 50.1912C98.871 49.9969 99.0853 49.7162 99.1978 49.3907V49.4198V49.6725L99.1589 50.0564L99.1152 50.309L99.431 50.2799H99.8635H100.349L100.694 50.309L100.646 49.1137V47.8795V44.4783V43.2441L100.641 43.2149ZM99.1298 47.5491C99.1689 48.1334 99.0724 48.7187 98.8479 49.2595C98.7854 49.4055 98.6809 49.5296 98.5476 49.6161C98.4144 49.7027 98.2585 49.7476 98.0997 49.7454C98.0158 49.7527 97.9314 49.7398 97.8536 49.7076C97.7758 49.6755 97.7069 49.6251 97.6526 49.5607C97.4787 49.3848 97.3561 49.1647 97.298 48.9242C97.2014 48.5367 97.1573 48.1379 97.1667 47.7386C97.1495 47.3019 97.2036 46.8654 97.3271 46.4461C97.3804 46.1897 97.511 45.9557 97.7012 45.7756C97.7639 45.7113 97.8399 45.6615 97.9238 45.6296C98.0077 45.5977 98.0976 45.5846 98.1871 45.591C98.34 45.5884 98.4898 45.6339 98.6154 45.7211C98.7409 45.8082 98.8359 45.9327 98.8868 46.0769C99.0888 46.5436 99.1787 47.0511 99.1492 47.5589L99.1298 47.5491ZM104.052 47.1604L103.148 47.4131C102.719 47.4909 102.314 47.669 101.967 47.933C101.825 48.0725 101.713 48.2399 101.637 48.4246C101.562 48.6093 101.526 48.8074 101.53 49.0068C101.535 49.2482 101.593 49.4855 101.7 49.7017C101.809 49.9183 101.977 50.0988 102.186 50.2216C102.463 50.3691 102.771 50.4475 103.085 50.4499C103.377 50.4447 103.662 50.3662 103.916 50.2216C104.149 50.0664 104.349 49.8665 104.504 49.6336C104.566 49.8653 104.702 50.0704 104.892 50.2177C105.081 50.365 105.313 50.4466 105.553 50.4499L106.039 50.3819L106.569 50.1487V49.896L106.195 49.8572C106.098 49.8167 106.021 49.7399 105.981 49.6434C105.93 49.4767 105.909 49.3024 105.918 49.1283L105.942 47.9427V46.6357C105.961 46.2746 105.877 45.9155 105.699 45.6007C105.532 45.3353 105.278 45.1361 104.98 45.037C104.655 44.904 104.306 44.8411 103.955 44.8524C103.594 44.8484 103.236 44.9144 102.9 45.0468C102.537 45.1834 102.199 45.3787 101.899 45.625L102.04 46.3004H102.113L102.439 45.9797L102.925 45.7659L103.44 45.6736C103.72 45.676 103.992 45.7756 104.207 45.9554C104.3 46.0419 104.373 46.1476 104.421 46.265C104.469 46.3825 104.49 46.509 104.484 46.6357C104.493 46.6889 104.49 46.7432 104.476 46.7952C104.461 46.8471 104.436 46.8954 104.402 46.9369C104.316 47.0554 104.19 47.1384 104.047 47.1701L104.052 47.1604ZM103.192 48.2148C103.288 48.0732 103.412 47.9525 103.556 47.8601L104.042 47.656L104.528 47.4374V48.6084C104.551 48.8982 104.468 49.1863 104.295 49.4198C104.227 49.5047 104.14 49.5726 104.042 49.6182C103.943 49.6637 103.835 49.6856 103.726 49.6822C103.639 49.6853 103.552 49.6675 103.472 49.6303C103.393 49.5932 103.323 49.5377 103.27 49.4684C103.151 49.2886 103.092 49.0763 103.1 48.8611C103.09 48.6392 103.132 48.4182 103.221 48.2148H103.192Z" fill="#DD1F1A"/>
<path fill-rule="evenodd" clip-rule="evenodd" d="M45.0248 25.0616C45.1657 24.221 45.8459 23.8177 47.0801 23.8663L48.4989 24.1287C48.9297 24.391 49.197 24.9887 49.3006 25.9216H51.7301V25.8099C51.7253 25.0898 51.5381 24.3826 51.1859 23.7545C50.53 22.7827 49.393 22.3357 47.7555 22.3357C44.4222 22.3357 42.6844 23.4063 42.5418 25.5475C42.4301 26.9614 43.8537 28.0353 46.774 28.7981L47.3182 28.9682L47.9256 29.0799C50.7195 29.7602 51.9634 30.9749 51.6621 32.7047C51.1228 35.6833 48.8585 37.1604 44.8596 37.1604C42.9451 37.1604 41.5538 36.5287 40.6857 35.2654C40.1026 34.4977 39.8451 33.2101 39.918 31.3491H37.644C37.1581 36.1659 39.5082 38.6116 44.6943 38.6861C50.2303 38.6861 53.3239 36.6923 53.975 32.7047C54.3685 30.0809 52.9449 28.3317 49.6942 27.4473L46.3804 26.4755C45.3697 26.1451 44.9227 25.6787 45.0248 25.0713V25.0616ZM52.5173 25.8099V25.9216H54.8982C54.7864 21.8692 52.5707 19.8479 48.2268 19.8479C43.0423 19.8479 40.1366 21.7186 39.4807 25.4357C38.9948 28.0693 40.3213 29.8088 43.3678 30.698L46.5165 31.5094C47.4591 31.8058 47.8818 32.2577 47.7798 32.8845C47.5563 33.9195 46.7594 34.454 45.3795 34.454L43.81 34.0604C43.2026 33.5745 42.9208 32.6561 42.9937 31.3491H40.6614C40.6128 32.9865 40.8266 34.1236 41.3125 34.7795C42.0316 35.8242 43.2026 36.349 44.8353 36.349C48.3872 36.349 50.3745 35.1051 50.8166 32.6027C51.0304 31.3394 49.9566 30.4064 47.6 29.8282L47.0607 29.6679L46.5165 29.6144C43.2026 28.6767 41.5749 27.287 41.6866 25.4357C41.8761 22.841 43.8829 21.5485 47.7118 21.5485C49.7039 21.5485 51.0596 22.1559 51.7982 23.3804C52.2608 24.1058 52.5038 24.9495 52.4979 25.8099H52.5173Z" fill="#332C63"/>
<path fill-rule="evenodd" clip-rule="evenodd" d="M62.096 24.7359H69.9044L70.3466 23.0353H60.3468L57.31 35.4354H67.334L67.7762 33.7347H59.8609L60.5169 31.3976H67.9608L68.335 29.6143H60.8424L61.168 28.798H68.4953L68.8792 26.9613H61.4401L62.096 24.7359ZM70.9345 20.324H57.5286L53.4082 38.1418H66.8141L67.198 36.1982H56.3965L56.4402 35.7609L59.7103 22.253H70.5021L70.9345 20.3434V20.324Z" fill="#332C63"/>
<path fill-rule="evenodd" clip-rule="evenodd" d="M77.7252 20.324L67.1958 38.1418H69.4261L80.0138 20.324H77.7252ZM81.5832 22.6125L84.4694 38.1612H86.413L83.2644 20.3434H80.8835L70.4076 38.1612H72.565L74.2462 35.173H80.7766L81.3014 38.1612H83.6385L82.7882 33.2294H75.5581L75.9322 32.3985H82.6084L80.9758 23.7107L81.5832 22.632V22.6125ZM77.0206 30.4598L79.3578 26.5726L80.0575 30.4598H77.0206Z" fill="#332C63"/>
<path fill-rule="evenodd" clip-rule="evenodd" d="M95.2917 24.7361H98.3917C99.7295 24.7361 100.398 25.2026 100.398 26.1355C100.398 27.3697 99.4267 27.9868 97.5122 27.9868H94.5725L95.2917 24.7361ZM103.911 25.7079C103.908 26.9402 103.424 28.1224 102.561 29.0023C101.949 29.6939 101.128 30.168 100.224 30.3531L100.923 30.907C101.202 31.2727 101.404 31.6911 101.517 32.1371C101.63 32.5831 101.651 33.0473 101.579 33.5017L101.531 33.7835C101.317 35.8583 101.361 37.3062 101.691 38.1274H103.809C103.555 37.4115 103.539 36.6322 103.766 35.9069C104.475 32.9915 104.14 31.1937 102.716 30.4648C105.003 29.493 106.147 27.7406 106.147 25.2074C106.147 21.9454 104.101 20.3128 100.01 20.3096H90.8311L86.769 38.142H89.0576L92.7504 22.0734H100.039C100.577 22.0535 101.113 22.1441 101.614 22.3397C102.116 22.5352 102.572 22.8316 102.954 23.2104C103.277 23.537 103.53 23.9262 103.697 24.354C103.864 24.7818 103.942 25.2392 103.926 25.6982L103.911 25.7079ZM102.41 23.7643C101.753 23.1737 100.892 22.8618 100.01 22.8945H93.3918L89.9662 38.1517H92.1868L93.4404 32.5639H96.5793C97.8864 32.5639 98.4208 33.1275 98.1682 34.2451C97.9507 35.5317 97.9507 36.8457 98.1682 38.1323H100.86C100.481 37.0099 100.432 35.4987 100.758 33.6183V33.3948C100.872 32.6946 100.716 31.9772 100.321 31.388C100.12 31.1538 99.8673 30.9689 99.5834 30.8476C99.2995 30.7263 98.9915 30.6718 98.6832 30.6883H93.9214L94.0818 29.8817H98.6832C99.8869 29.8597 101.036 29.3741 101.89 28.5261C102.274 28.1603 102.579 27.7198 102.786 27.2318C102.993 26.7438 103.098 26.2186 103.095 25.6885C103.115 25.3341 103.064 24.9793 102.943 24.6453C102.823 24.3114 102.637 24.0051 102.395 23.7449L102.41 23.7643Z" fill="#332C63"/>
<path fill-rule="evenodd" clip-rule="evenodd" d="M118.488 23.7545C117.832 22.7827 116.656 22.3357 114.956 22.3357C111.666 22.3357 109.956 23.4095 109.844 25.5475C109.742 26.9614 111.146 28.0353 114.042 28.7981L114.63 28.9682L115.116 29.0799C117.963 29.8477 119.246 31.0235 118.916 32.7047C118.376 35.6833 116.088 37.1604 112.069 37.1604C110.228 37.1604 108.858 36.5288 107.939 35.2654C107.4 34.4977 107.128 33.2101 107.128 31.3491H104.97C104.387 36.1659 106.7 38.6116 111.909 38.6861C117.487 38.6861 120.602 36.6923 121.253 32.7047C121.607 30.0809 120.198 28.3317 117.021 27.4473L113.702 26.4755C112.686 26.1451 112.244 25.6787 112.351 25.0713C112.424 24.2307 113.061 23.8274 114.295 23.876L115.816 24.1384C116.253 24.4639 116.486 25.0713 116.515 25.9313H118.916L118.478 23.7642L118.488 23.7545ZM114.951 21.5291C116.943 21.5291 118.313 22.1365 119.081 23.3609C119.494 24.1525 119.718 25.0289 119.737 25.9216H122.118C122.118 21.8692 119.931 19.8447 115.558 19.8479C110.374 19.8479 107.458 21.7186 106.812 25.4357C106.326 28.0693 107.643 29.8088 110.699 30.698L113.882 31.5094C114.854 31.8058 115.257 32.2577 115.145 32.8845C114.931 33.9195 114.134 34.454 112.754 34.454L111.127 34.0604C110.471 33.6279 110.184 32.7242 110.257 31.3491H107.968C107.939 33.0206 108.138 34.1527 108.576 34.7795C109.343 35.8242 110.519 36.349 112.098 36.349C115.723 36.349 117.751 35.1002 118.182 32.6027C118.357 31.3394 117.293 30.4064 114.975 29.8282L114.436 29.6679L113.882 29.6144C110.519 28.6767 108.921 27.287 109.062 25.4357C109.203 22.841 111.175 21.5485 114.975 21.5485L114.951 21.5291Z" fill="#332C63"/>
<path fill-rule="evenodd" clip-rule="evenodd" d="M114.049 43.2827L115.142 40.6831L116.187 43.2827L117.241 42.6947L116.61 46.3438L118.252 45.027V46.1106L120.953 45.7121L119.253 47.8112L120.215 48.3554L117.29 49.3272L117.878 49.9151L116.056 49.7742L115.541 49.7256H115.375V51.7858H114.812L114.86 49.7742H114.224L112.805 49.9151L113.271 49.4487L110.021 48.3554L111.031 47.8112L109.282 45.7121L111.994 46.1106V45.027L113.626 46.3438L112.99 42.6947L114.049 43.2827Z" fill="#DD1F1A"/>
</svg>
