<svg width="158" height="70" viewBox="0 0 158 70" fill="none" xmlns="http://www.w3.org/2000/svg">
<path d="M59.7017 15.7322V22.2501C59.7441 23.7787 61.018 24.9818 62.5466 24.9393C64.0186 24.8969 65.2005 23.715 65.2358 22.2501V15.7322C65.2358 14.2248 64.0115 13.0005 62.5041 13.0005H62.4971C60.9826 12.9722 59.73 14.1823 59.7017 15.6968V15.7322ZM61.6832 22.2501V15.7322C61.6761 15.3217 62.0088 14.975 62.4192 14.975C62.4475 14.975 62.4688 14.975 62.4971 14.975C62.9005 14.9679 63.2401 15.2863 63.2472 15.6968C63.2472 15.711 63.2472 15.7251 63.2472 15.7322V22.2501C63.2401 22.6676 62.9075 23.0002 62.49 23.0073C62.0583 23.0286 61.6903 22.6889 61.6691 22.2572" fill="#201A1B"/>
<path d="M73.7487 24.8119H71.6539L70.196 19.2848C70.196 19.2848 71.477 19.0512 71.477 17.7137V15.9091C71.4911 15.4703 71.1373 15.1023 70.6985 15.0952H69.9059V24.8119H67.9243V13.1137H70.6702C72.1705 13.0995 73.409 14.2884 73.4656 15.7887V17.65C73.4656 18.8106 73.0551 19.6245 72.3616 20.2118L73.7487 24.8119Z" fill="#201A1B"/>
<path d="M55.0948 13.2908H53.1769H53V24.989H55.0948V19.9785H57.0197V18.004H55.0948V15.2723H58.1308V13.2908H55.0948Z" fill="#201A1B"/>
<path d="M81.2082 13.1138H75.6104V15.0953H77.4221V24.812H79.4036V15.0953H81.2082V13.1138Z" fill="#201A1B"/>
<path d="M87.039 13.1138V22.2501C87.0531 22.6748 86.7205 23.0215 86.2959 23.0357C85.8713 23.0498 85.5245 22.7172 85.5103 22.2926C85.5103 22.2784 85.5103 22.2643 85.5103 22.2431V13.1138H83.4722V22.2501C83.5429 23.7929 84.8522 24.9889 86.395 24.9182C87.8387 24.8545 88.9993 23.6938 89.063 22.2501V13.1138H87.039Z" fill="#201A1B"/>
<path d="M105.165 15.0953V13.1138H100.268V24.812H105.165V22.8375H102.249V19.8086H104.11V17.827H102.249V15.0953H105.165Z" fill="#201A1B"/>
<path d="M95.8371 13.1138V19.5184L93.7989 13.1138H91.7607V24.812H93.7989V19.108L95.6602 24.812H97.8752V13.1138H95.8371Z" fill="#201A1B"/>
<path d="M99.8496 51.7187C99.8354 52.3132 99.3542 52.7803 98.7597 52.7732H95.4972C94.9028 52.7803 94.4215 52.3132 94.4074 51.7187V34.0263C94.4357 33.4318 94.924 32.9648 95.5185 32.9718H98.788C99.3683 32.9648 99.8425 33.4248 99.8496 34.0051C99.8496 34.0121 99.8496 34.0192 99.8496 34.0263V51.7187ZM99.5453 27.749H94.7471C91.6474 27.749 89.135 30.1764 89.135 33.1771V52.384C89.135 55.3775 91.6474 57.812 94.7541 57.812H99.5523C102.652 57.812 105.171 55.3846 105.171 52.384V33.1771C105.164 30.1764 102.645 27.749 99.5453 27.749ZM81.8174 51.7187C81.8033 52.3132 81.315 52.7803 80.7276 52.7732H77.4722C76.8777 52.7803 76.3965 52.3132 76.3823 51.7187V34.0263C76.4106 33.4318 76.906 32.9577 77.5005 32.9718H80.7559C81.3362 32.9648 81.8104 33.4318 81.8174 34.0121V34.0263V51.7187ZM81.5061 27.749H76.7079C73.6082 27.749 71.1029 30.1764 71.1029 33.1771V52.384C71.1029 55.3775 73.6223 57.812 76.722 57.812H81.5202C84.6199 57.812 87.1393 55.3846 87.1393 52.384V33.1771C87.1393 30.1835 84.627 27.749 81.5202 27.749H81.5061ZM69.0931 44.0544C69.0931 41.0537 66.5312 38.6334 63.3678 38.6334H58.5271V32.9577H69.0577V27.749H53.0566V44.0685H62.561C63.1626 44.0473 63.665 44.5214 63.6862 45.123V51.7187C63.665 52.3132 63.1696 52.7873 62.5681 52.7732H59.6382C59.0438 52.7873 58.5413 52.3132 58.5271 51.7187V47.5787H53.1486V52.3769C53.1486 55.3704 55.7176 57.8049 58.8739 57.8049H63.3749C66.5312 57.8049 69.1001 55.3775 69.1001 52.3769L69.0931 44.0544Z" fill="#010101"/>
</svg>
