<svg width="120" height="120" viewBox="0 0 120 120" fill="none" xmlns="http://www.w3.org/2000/svg">
<path d="M78.2148 20.6131H26.6334C23.5274 20.6131 21 23.1529 21 26.274V95.2227C21 98.3438 23.5274 100.884 26.6334 100.884H78.2148C81.3207 100.884 83.8481 98.3438 83.8481 95.2227V26.274C83.8481 23.1529 81.3225 20.6131 78.2148 20.6131ZM26.6334 23.1331H78.2148C79.9379 23.1331 81.3404 24.5424 81.3404 26.274V85.3122H23.5077V26.274C23.5077 24.5424 24.9102 23.1331 26.6334 23.1331ZM78.2148 98.3636H26.6334C24.9102 98.3636 23.5077 96.9542 23.5077 95.2227V87.8339H81.3404V95.2227C81.3404 96.9542 79.9397 98.3636 78.2148 98.3636ZM52.425 88.8851C50.1573 88.8851 48.3123 90.739 48.3123 93.0178C48.3123 95.2965 50.1573 97.1504 52.425 97.1504C54.6926 97.1504 56.5376 95.2965 56.5376 93.0178C56.5376 90.739 54.6926 88.8851 52.425 88.8851ZM52.425 94.6305C51.5401 94.6305 50.82 93.9069 50.82 93.0178C50.82 92.1286 51.5401 91.405 52.425 91.405C53.3098 91.405 54.0299 92.1286 54.0299 93.0178C54.0299 93.9069 53.3098 94.6305 52.425 94.6305ZM30.0402 35.4807H74.8097C75.5029 35.4807 76.0635 34.9173 76.0635 34.2207V29.5751C76.0635 28.8785 75.5029 28.3151 74.8097 28.3151H30.0402C29.347 28.3151 28.7864 28.8785 28.7864 29.5751V34.2207C28.7864 34.9155 29.347 35.4807 30.0402 35.4807ZM31.2941 30.835H73.5559V32.9608H31.2941V30.835ZM28.7864 44.6118C28.7864 43.9152 29.347 43.3519 30.0402 43.3519H58.7515C59.4447 43.3519 60.0054 43.9152 60.0054 44.6118C60.0054 45.3084 59.4447 45.8718 58.7515 45.8718H30.0402C29.347 45.8718 28.7864 45.3066 28.7864 44.6118ZM28.7255 50.3572C28.7255 49.6607 29.2861 49.0973 29.9793 49.0973H74.8706C75.5638 49.0973 76.1244 49.6607 76.1244 50.3572C76.1244 51.0538 75.5638 51.6172 74.8706 51.6172H29.9793C29.2861 51.6172 28.7255 51.0538 28.7255 50.3572ZM28.7255 56.1027C28.7255 55.4061 29.2861 54.8427 29.9793 54.8427H74.8706C75.5638 54.8427 76.1244 55.4061 76.1244 56.1027C76.1244 56.7992 75.5638 57.3626 74.8706 57.3626H29.9793C29.2861 57.3626 28.7255 56.7992 28.7255 56.1027ZM28.7255 61.8481C28.7255 61.1515 29.2861 60.5881 29.9793 60.5881H74.8706C75.5638 60.5881 76.1244 61.1515 76.1244 61.8481C76.1244 62.5447 75.5638 63.1081 74.8706 63.1081H29.9793C29.2861 63.1081 28.7255 62.5447 28.7255 61.8481ZM98.459 16.3257C94.6975 14.5581 90.2051 14.5581 86.4436 16.3257C86.003 16.5327 85.7199 16.9772 85.7199 17.4668V89.5799C85.7199 89.7365 85.7486 89.8913 85.8059 90.0371L91.2816 104.197C91.4697 104.681 91.9336 105 92.4495 105C92.9672 105 93.4311 104.681 93.6174 104.197L99.0949 90.0371C99.1504 89.8913 99.1809 89.7365 99.1809 89.5799V17.4668C99.1827 16.979 98.9015 16.5327 98.459 16.3257ZM96.675 18.3002V87.6449C93.938 86.6712 90.9664 86.6712 88.2294 87.6449V18.3002C90.9234 17.258 93.981 17.258 96.675 18.3002ZM92.4513 100.264L88.5662 90.217C91.0613 89.1803 93.8431 89.1803 96.3382 90.217L92.4513 100.264ZM28.7255 68.3891C28.7255 67.6925 29.2861 67.1291 29.9793 67.1291H61.7016C62.3948 67.1291 62.9555 67.6925 62.9555 68.3891C62.9555 69.0857 62.3948 69.6491 61.7016 69.6491H29.9793C29.2861 69.6491 28.7255 69.0839 28.7255 68.3891Z" fill="black"/>
</svg>
