<svg width="120" height="120" viewBox="0 0 120 120" fill="none" xmlns="http://www.w3.org/2000/svg">
<path fill-rule="evenodd" clip-rule="evenodd" d="M81.2186 56.7561H89.233C89.3996 56.7561 89.5645 56.789 89.7184 56.8527C89.8723 56.9165 90.0121 57.01 90.1299 57.1278C90.2476 57.2457 90.341 57.3855 90.4046 57.5395C90.4683 57.6934 90.501 57.8584 90.5009 58.025V62.9497L91.9175 63.4921V35.8657H14.5358V78.5112C14.5358 82.1147 17.0057 85.5542 20.5101 85.5542H69.8554L69.3139 84.1376H64.3882C64.0517 84.1376 63.729 84.0039 63.491 83.766C63.2531 83.528 63.1194 83.2053 63.1194 82.8687V74.8554C63.1194 74.6888 63.1522 74.5238 63.216 74.37C63.2798 74.2161 63.3733 74.0763 63.4911 73.9585C63.6089 73.8408 63.7488 73.7474 63.9028 73.6837C64.0567 73.6201 64.2217 73.5874 64.3882 73.5875H69.313C69.5692 72.8181 69.8805 72.0682 70.2443 71.3434L66.761 67.8582C66.6431 67.7404 66.5496 67.6006 66.4858 67.4467C66.422 67.2928 66.3891 67.1278 66.3891 66.9611C66.3891 66.7945 66.422 66.6295 66.4858 66.4756C66.5496 66.3217 66.6431 66.1818 66.761 66.0641L72.4274 60.3977C72.5451 60.2798 72.685 60.1863 72.8389 60.1225C72.9928 60.0587 73.1578 60.0258 73.3244 60.0258C73.491 60.0258 73.656 60.0587 73.81 60.1225C73.9639 60.1863 74.1037 60.2798 74.2215 60.3977L77.7048 63.8801C78.4299 63.5168 79.1801 63.2062 79.9498 62.9506V58.025C79.9498 57.6885 80.0835 57.3657 80.3214 57.1278C80.5594 56.8898 80.8821 56.7561 81.2186 56.7561ZM69.3978 48.6312C69.0613 48.6312 68.7386 48.4975 68.5006 48.2596C68.2627 48.0216 68.129 47.6989 68.129 47.3624C68.129 47.0259 68.2627 46.7031 68.5006 46.4652C68.7386 46.2272 69.0613 46.0936 69.3978 46.0936H85.7516C86.0881 46.0936 86.4108 46.2272 86.6488 46.4652C86.8867 46.7031 87.0204 47.0259 87.0204 47.3624C87.0204 47.6989 86.8867 48.0216 86.6488 48.2596C86.4108 48.4975 86.0881 48.6312 85.7516 48.6312H69.3978ZM74.231 41.8838C74.0615 41.8885 73.8928 41.8591 73.7349 41.7974C73.5769 41.7358 73.4329 41.6431 73.3114 41.5249C73.1899 41.4066 73.0933 41.2652 73.0273 41.109C72.9614 40.9528 72.9274 40.785 72.9274 40.6155C72.9274 40.4459 72.9614 40.2781 73.0273 40.1219C73.0933 39.9657 73.1899 39.8243 73.3114 39.706C73.4329 39.5878 73.5769 39.4951 73.7349 39.4335C73.8928 39.3718 74.0615 39.3424 74.231 39.3471H85.7516C85.921 39.3424 86.0897 39.3718 86.2477 39.4335C86.4056 39.4951 86.5496 39.5878 86.6712 39.706C86.7927 39.8243 86.8893 39.9657 86.9552 40.1219C87.0212 40.2781 87.0552 40.4459 87.0552 40.6155C87.0552 40.785 87.0212 40.9528 86.9552 41.109C86.8893 41.2652 86.7927 41.4066 86.6712 41.5249C86.5496 41.6431 86.4056 41.7358 86.2477 41.7974C86.0897 41.8591 85.921 41.8885 85.7516 41.8838H74.231ZM22.7045 78.8916C22.368 78.8916 22.0453 78.7579 21.8073 78.52C21.5694 78.282 21.4357 77.9593 21.4357 77.6228C21.4357 77.2863 21.5694 76.9635 21.8073 76.7256C22.0453 76.4876 22.368 76.3539 22.7045 76.3539H58.4712C58.8077 76.3539 59.1304 76.4876 59.3684 76.7256C59.6063 76.9635 59.74 77.2863 59.74 77.6228C59.74 77.9593 59.6063 78.282 59.3684 78.52C59.1304 78.7579 58.8077 78.8916 58.4712 78.8916H22.7045ZM22.7045 71.1223C22.368 71.1223 22.0453 70.9886 21.8073 70.7506C21.5694 70.5127 21.4357 70.19 21.4357 69.8534C21.4357 69.5169 21.5694 69.1942 21.8073 68.9562C22.0453 68.7183 22.368 68.5846 22.7045 68.5846H62.1652C62.5017 68.5846 62.8244 68.7183 63.0624 68.9562C63.3003 69.1942 63.434 69.5169 63.434 69.8534C63.434 70.19 63.3003 70.5127 63.0624 70.7506C62.8244 70.9886 62.5017 71.1223 62.1652 71.1223H22.7045ZM22.7045 63.352C22.535 63.3566 22.3663 63.3273 22.2084 63.2656C22.0504 63.204 21.9065 63.1113 21.7849 62.993C21.6634 62.8748 21.5668 62.7334 21.5009 62.5772C21.4349 62.421 21.4009 62.2532 21.4009 62.0836C21.4009 61.9141 21.4349 61.7462 21.5009 61.59C21.5668 61.4338 21.6634 61.2924 21.7849 61.1742C21.9065 61.056 22.0504 60.9633 22.2084 60.9016C22.3663 60.84 22.535 60.8106 22.7045 60.8153H65.8077C65.9772 60.8106 66.1459 60.84 66.3038 60.9016C66.4618 60.9633 66.6058 61.056 66.7273 61.1742C66.8488 61.2924 66.9454 61.4338 67.0114 61.59C67.0773 61.7462 67.1113 61.9141 67.1113 62.0836C67.1113 62.2532 67.0773 62.421 67.0114 62.5772C66.9454 62.7334 66.8488 62.8748 66.7273 62.993C66.6058 63.1113 66.4618 63.204 66.3038 63.2656C66.1459 63.3273 65.9772 63.3566 65.8077 63.352H22.7045ZM32.2584 43.0621C32.3452 42.7374 32.5573 42.4606 32.8482 42.2923C33.139 42.1241 33.4848 42.0783 33.8095 42.165C34.1341 42.2518 34.411 42.4639 34.5792 42.7548C34.7474 43.0456 34.7932 43.3914 34.7065 43.716L31.7008 54.9315C31.614 55.2562 31.4019 55.5331 31.111 55.7013C30.8202 55.8695 30.4744 55.9153 30.1498 55.8286C29.8251 55.7419 29.5482 55.5297 29.38 55.2389C29.2118 54.948 29.166 54.6022 29.2527 54.2776L32.2584 43.0592V43.0621ZM36.1183 45.0001C35.9856 44.9 35.8738 44.7747 35.7895 44.6313C35.7052 44.488 35.6499 44.3294 35.6268 44.1648C35.6038 44.0001 35.6134 43.8324 35.6551 43.6715C35.6968 43.5105 35.7698 43.3593 35.87 43.2265C35.9701 43.0938 36.0955 42.982 36.2388 42.8977C36.3821 42.8134 36.5407 42.7581 36.7054 42.735C36.8701 42.712 37.0377 42.7216 37.1987 42.7633C37.3596 42.805 37.5108 42.878 37.6436 42.9782L44.3167 47.9877C44.4745 48.1074 44.6021 48.2623 44.6893 48.4402C44.7765 48.618 44.8208 48.8138 44.8186 49.0119C44.8165 49.2099 44.768 49.4047 44.677 49.5806C44.586 49.7566 44.4551 49.9087 44.2947 50.0249L37.6436 55.0183C37.5108 55.1184 37.3596 55.1915 37.1987 55.2332C37.0377 55.2749 36.8701 55.2845 36.7054 55.2614C36.5407 55.2384 36.3821 55.1831 36.2388 55.0988C36.0955 55.0145 35.9701 54.9027 35.87 54.77C35.7698 54.6372 35.6968 54.486 35.6551 54.325C35.6134 54.164 35.6038 53.9964 35.6268 53.8317C35.6499 53.667 35.7052 53.5085 35.7895 53.3652C35.8738 53.2218 35.9856 53.0965 36.1183 52.9963L41.4568 48.9982L36.1183 45.0001ZM26.3213 42.9782C26.4541 42.8787 26.6052 42.8063 26.7659 42.7651C26.9266 42.724 27.0939 42.7149 27.2582 42.7384C27.4224 42.7619 27.5804 42.8175 27.7232 42.9021C27.8659 42.9867 27.9906 43.0985 28.0902 43.2313C28.1897 43.3641 28.2621 43.5151 28.3032 43.6759C28.3444 43.8366 28.3535 44.0039 28.33 44.1681C28.3065 44.3324 28.2508 44.4904 28.1663 44.6331C28.0817 44.7759 27.9698 44.9006 27.8371 45.0001L22.5062 48.9982L27.8371 52.9963C27.9698 53.0959 28.0817 53.2206 28.1663 53.3633C28.2508 53.5061 28.3065 53.6641 28.33 53.8284C28.3535 53.9926 28.3444 54.1599 28.3032 54.3206C28.2621 54.4814 28.1897 54.6324 28.0902 54.7652C27.9906 54.898 27.8659 55.0098 27.7232 55.0944C27.5804 55.1789 27.4224 55.2346 27.2582 55.2581C27.0939 55.2816 26.9266 55.2725 26.7659 55.2314C26.6052 55.1902 26.4541 55.1178 26.3213 55.0183L19.6635 50.0249C19.503 49.9088 19.372 49.7566 19.281 49.5806C19.19 49.4046 19.1415 49.2097 19.1394 49.0116C19.1374 48.8135 19.1819 48.6177 19.2692 48.4399C19.3566 48.262 19.4845 48.1072 19.6426 47.9877L26.3213 42.9782ZM38.3014 28.7017C38.1319 28.7063 37.9632 28.6769 37.8052 28.6153C37.6473 28.5536 37.5033 28.461 37.3818 28.3427C37.2603 28.2245 37.1637 28.0831 37.0977 27.9269C37.0317 27.7707 36.9978 27.6029 36.9978 27.4333C36.9978 27.2638 37.0317 27.0959 37.0977 26.9397C37.1637 26.7835 37.2603 26.6421 37.3818 26.5239C37.5033 26.4057 37.6473 26.313 37.8052 26.2513C37.9632 26.1897 38.1319 26.1603 38.3014 26.165H68.149C68.3185 26.1603 68.4872 26.1897 68.6451 26.2513C68.8031 26.313 68.9471 26.4057 69.0686 26.5239C69.1901 26.6421 69.2867 26.7835 69.3527 26.9397C69.4186 27.0959 69.4526 27.2638 69.4526 27.4333C69.4526 27.6029 69.4186 27.7707 69.3527 27.9269C69.2867 28.0831 69.1901 28.2245 69.0686 28.3427C68.9471 28.461 68.8031 28.5536 68.6451 28.6153C68.4872 28.6769 68.3185 28.7063 68.149 28.7017H38.3014ZM30.0077 24.9104C30.5066 24.9104 30.9943 25.0584 31.4091 25.3355C31.8239 25.6127 32.1472 26.0066 32.3381 26.4675C32.529 26.9285 32.579 27.4356 32.4817 27.9249C32.3843 28.4142 32.1441 28.8637 31.7913 29.2165C31.4386 29.5692 30.9891 29.8095 30.4998 29.9068C30.0105 30.0041 29.5033 29.9542 29.0424 29.7632C28.5815 29.5723 28.1876 29.249 27.9104 28.8342C27.6332 28.4194 27.4853 27.9317 27.4853 27.4328C27.4861 26.7641 27.7521 26.1229 28.2249 25.6501C28.6978 25.1772 29.339 24.9112 30.0077 24.9104ZM22.9076 24.9104C23.4069 24.9095 23.8953 25.0567 24.3109 25.3334C24.7265 25.6102 25.0507 26.004 25.2424 26.465C25.4341 26.9261 25.4846 27.4337 25.3877 27.9235C25.2908 28.4133 25.0508 28.8634 24.698 29.2167C24.3452 29.5701 23.8955 29.8108 23.4058 29.9084C22.9161 30.0061 22.4085 29.9562 21.9471 29.7653C21.4858 29.5743 21.0915 29.2507 20.8141 28.8355C20.5367 28.4203 20.3888 27.9322 20.389 27.4328C20.39 26.7642 20.6561 26.1232 21.1289 25.6503C21.6017 25.1775 22.2427 24.9114 22.9114 24.9104H22.9076ZM20.5081 19H85.9432C90.8727 19 94.4551 23.5987 94.4551 28.5806V62.1708L96.2292 60.3977C96.347 60.2798 96.4868 60.1863 96.6407 60.1225C96.7946 60.0587 96.9596 60.0258 97.1263 60.0258C97.2929 60.0258 97.4579 60.0587 97.6118 60.1225C97.7657 60.1863 97.9056 60.2798 98.0233 60.3977L103.69 66.0641C103.808 66.1818 103.901 66.3217 103.965 66.4756C104.029 66.6295 104.062 66.7945 104.062 66.9611C104.062 67.1278 104.029 67.2928 103.965 67.4467C103.901 67.6006 103.808 67.7404 103.69 67.8582L100.206 71.3415C100.57 72.0664 100.881 72.8167 101.137 73.5865H106.062C106.229 73.5867 106.394 73.6196 106.548 73.6834C106.701 73.7472 106.841 73.8407 106.959 73.9586C107.076 74.0764 107.17 74.2162 107.233 74.3701C107.297 74.524 107.329 74.6889 107.329 74.8554V82.8697C107.329 83.2062 107.196 83.529 106.958 83.7669C106.72 84.0049 106.397 84.1385 106.061 84.1385H101.138C100.881 84.9079 100.57 85.6579 100.206 86.3826L103.69 89.8669C103.808 89.9846 103.901 90.1245 103.965 90.2784C104.029 90.4323 104.062 90.5973 104.062 90.7639C104.062 90.9306 104.029 91.0955 103.965 91.2495C103.901 91.4034 103.808 91.5432 103.69 91.661L98.0233 97.3273C97.9056 97.4452 97.7657 97.5388 97.6118 97.6026C97.4579 97.6664 97.2929 97.6992 97.1263 97.6992C96.9596 97.6992 96.7946 97.6664 96.6407 97.6026C96.4868 97.5388 96.347 97.4452 96.2292 97.3273L92.744 93.8431C92.0191 94.2071 91.2688 94.5181 90.499 94.7735V99.6991C90.4991 99.8657 90.4664 100.031 90.4027 100.185C90.3391 100.339 90.2457 100.478 90.1279 100.596C90.0102 100.714 89.8704 100.808 89.7165 100.871C89.5626 100.935 89.3977 100.968 89.2311 100.968H81.2186C80.8821 100.968 80.5594 100.834 80.3214 100.596C80.0835 100.358 79.9498 100.036 79.9498 99.6991V94.7792C79.1804 94.523 78.4305 94.2117 77.7058 93.8478L74.2215 97.3264C74.1037 97.4443 73.9639 97.5378 73.81 97.6016C73.656 97.6654 73.491 97.6983 73.3244 97.6983C73.1578 97.6983 72.9928 97.6654 72.8389 97.6016C72.685 97.5378 72.5451 97.4443 72.4274 97.3264L66.761 91.66C66.6431 91.5423 66.5496 91.4024 66.4858 91.2485C66.422 91.0946 66.3891 90.9296 66.3891 90.763C66.3891 90.5964 66.422 90.4314 66.4858 90.2774C66.5496 90.1235 66.6431 89.9837 66.761 89.8659L68.5351 88.0918H20.5101C15.5806 88.0918 12 83.4932 12 78.5112V28.5806C12 23.5987 15.5825 19 20.512 19H20.5081ZM85.9432 21.5377H20.5101C17.0057 21.5377 14.5358 24.9772 14.5358 28.5806V33.329H91.9175V28.5806C91.9175 24.9772 89.4475 21.5377 85.9432 21.5377ZM85.2253 69.168C87.1428 69.168 89.0171 69.7366 90.6114 70.802C92.2056 71.8673 93.4481 73.3815 94.1817 75.153C94.9154 76.9245 95.1072 78.8738 94.7329 80.7543C94.3586 82.6349 93.4351 84.3622 92.0791 85.7178C90.723 87.0734 88.9954 87.9965 87.1148 88.3702C85.2342 88.7439 83.2849 88.5515 81.5136 87.8174C79.7423 87.0832 78.2285 85.8402 77.1636 84.2457C76.0988 82.6511 75.5307 80.7766 75.5313 78.8592C75.5321 76.2887 76.5537 73.8237 78.3716 72.0063C80.1895 70.189 82.6548 69.168 85.2253 69.168ZM90.2854 73.801C91.2863 74.8018 91.968 76.077 92.2442 77.4652C92.5203 78.8534 92.3787 80.2924 91.837 81.6001C91.2954 82.9077 90.3782 84.0255 89.2013 84.8118C88.0244 85.5982 86.6408 86.018 85.2253 86.018C83.8099 86.018 82.4263 85.5982 81.2494 84.8118C80.0725 84.0255 79.1553 82.9077 78.6136 81.6001C78.072 80.2924 77.9303 78.8534 78.2065 77.4652C78.4827 76.077 79.1643 74.8018 80.1653 73.801C81.5073 72.4591 83.3275 71.7052 85.2253 71.7052C87.1232 71.7052 88.9434 72.4591 90.2854 73.801ZM87.9641 59.2938V63.8925C87.9644 64.1829 88.0643 64.4644 88.2472 64.69C88.4301 64.9156 88.6848 65.0715 88.9689 65.1318C90.1488 65.4548 91.2826 65.9274 92.3426 66.5379C92.5836 66.6765 92.8635 66.732 93.1391 66.6958C93.4148 66.6596 93.6708 66.5338 93.8679 66.3377L97.1224 63.087L100.996 66.9602L97.743 70.2128C97.5354 70.4206 97.4062 70.694 97.3775 70.9864C97.3488 71.2788 97.4224 71.5721 97.5857 71.8163C98.1886 72.8737 98.6529 74.0044 98.9671 75.1804C99.0392 75.4501 99.1982 75.6884 99.4195 75.8585C99.6408 76.0286 99.912 76.121 100.191 76.1213H104.794V81.599H100.195C99.9045 81.5992 99.623 81.6991 99.3974 81.882C99.1718 82.0649 99.0159 82.3197 98.9556 82.6037C98.6344 83.7843 98.1618 84.9182 97.5495 85.9774C97.4106 86.2183 97.3549 86.4983 97.3911 86.774C97.4273 87.0497 97.5533 87.3058 97.7497 87.5027L101.002 90.7553L97.1291 94.6353L93.8765 91.3836C93.6687 91.1759 93.3953 91.0467 93.1029 91.018C92.8105 90.9894 92.5172 91.063 92.273 91.2263C91.2153 91.8294 90.0843 92.2936 88.9079 92.6076C88.6385 92.6799 88.4004 92.839 88.2305 93.0603C88.0605 93.2815 87.9683 93.5526 87.968 93.8316V98.4303H82.4865V93.8316C82.4859 93.5413 82.3859 93.26 82.2031 93.0345C82.0202 92.809 81.7657 92.6529 81.4818 92.5923C80.3013 92.2715 79.1673 91.7992 78.108 91.1872C77.8672 91.0483 77.5872 90.9926 77.3115 91.0288C77.0358 91.065 76.7797 91.191 76.5828 91.3874L73.3301 94.6391L69.4569 90.7668L72.7095 87.5141C72.9172 87.3063 73.0464 87.033 73.0751 86.7406C73.1037 86.4482 73.0302 86.1549 72.8668 85.9107C72.2638 84.853 71.7995 83.722 71.4855 82.5456C71.4132 82.2761 71.2541 82.038 71.0328 81.8681C70.8116 81.6982 70.5405 81.606 70.2615 81.6056H65.6571V76.1233H70.2558C70.5462 76.123 70.8277 76.0231 71.0533 75.8402C71.2788 75.6573 71.4348 75.4026 71.4951 75.1185C71.8162 73.938 72.2889 72.804 72.9012 71.7448C73.0401 71.5039 73.0957 71.2239 73.0596 70.9482C73.0234 70.6725 72.8973 70.4164 72.701 70.2195L69.4483 66.9669L73.3216 63.0936L76.5742 66.3463C76.782 66.5539 77.0555 66.6831 77.3479 66.7116C77.6403 66.7401 77.9336 66.6662 78.1776 66.5026C79.2358 65.9005 80.3667 65.4363 81.5428 65.1213C81.8124 65.0493 82.0507 64.8902 82.2206 64.6689C82.3906 64.4476 82.4827 64.1763 82.4827 63.8973V59.2938H87.9641Z" fill="black"/>
</svg>
