<svg width="120" height="120" viewBox="0 0 120 120" fill="none" xmlns="http://www.w3.org/2000/svg">
<path d="M96.6071 19H23.3929C22.2278 19 21.1105 19.4628 20.2866 20.2866C19.4628 21.1105 19 22.2278 19 23.3929V36.5714C19 37.7365 19.4628 38.8538 20.2866 39.6776C21.1105 40.5015 22.2278 40.9643 23.3929 40.9643H96.6071C97.7722 40.9643 98.8895 40.5015 99.7134 39.6776C100.537 38.8538 101 37.7365 101 36.5714V23.3929C101 22.2278 100.537 21.1105 99.7134 20.2866C98.8895 19.4628 97.7722 19 96.6071 19ZM98.0714 36.5714C98.0714 36.9598 97.9172 37.3322 97.6426 37.6068C97.3679 37.8814 96.9955 38.0357 96.6071 38.0357H23.3929C23.0045 38.0357 22.6321 37.8814 22.3575 37.6068C22.0828 37.3322 21.9286 36.9598 21.9286 36.5714V23.3929C21.9286 23.0045 22.0828 22.6321 22.3575 22.3575C22.6321 22.0828 23.0045 21.9286 23.3929 21.9286H96.6071C96.9955 21.9286 97.3679 22.0828 97.6426 22.3575C97.9172 22.6321 98.0714 23.0045 98.0714 23.3929V36.5714ZM96.6071 48.2857H23.3929C22.2278 48.2857 21.1105 48.7485 20.2866 49.5724C19.4628 50.3962 19 51.5135 19 52.6786V65.8571C19 67.0222 19.4628 68.1395 20.2866 68.9634C21.1105 69.7872 22.2278 70.25 23.3929 70.25H96.6071C97.7722 70.25 98.8895 69.7872 99.7134 68.9634C100.537 68.1395 101 67.0222 101 65.8571V52.6786C101 51.5135 100.537 50.3962 99.7134 49.5724C98.8895 48.7485 97.7722 48.2857 96.6071 48.2857ZM98.0714 65.8571C98.0714 66.2455 97.9172 66.6179 97.6426 66.8926C97.3679 67.1672 96.9955 67.3214 96.6071 67.3214H23.3929C23.0045 67.3214 22.6321 67.1672 22.3575 66.8926C22.0828 66.6179 21.9286 66.2455 21.9286 65.8571V52.6786C21.9286 52.2902 22.0828 51.9178 22.3575 51.6432C22.6321 51.3686 23.0045 51.2143 23.3929 51.2143H96.6071C96.9955 51.2143 97.3679 51.3686 97.6426 51.6432C97.9172 51.9178 98.0714 52.2902 98.0714 52.6786V65.8571ZM99.5357 83.4286H98.0714V80.5C98.0695 78.8195 97.4894 77.1909 96.4287 75.8874C95.368 74.584 93.8912 73.6851 92.2462 73.3417C90.6012 72.9983 88.8881 73.2312 87.3945 74.0014C85.9009 74.7716 84.7177 76.0321 84.0436 77.5714H23.3929C22.256 77.5478 21.1559 77.9749 20.3329 78.7596C19.5099 79.5442 19.0307 80.6226 19 81.7593V95.3479C19.0307 96.4846 19.5099 97.5629 20.3329 98.3476C21.1559 99.1322 22.256 99.5593 23.3929 99.5357H80.5C80.5 99.9241 80.6543 100.297 80.9289 100.571C81.2035 100.846 81.5759 101 81.9643 101H99.5357C99.9241 101 100.297 100.846 100.571 100.571C100.846 100.297 101 99.9241 101 99.5357V84.8929C101 84.5045 100.846 84.1321 100.571 83.8575C100.297 83.5828 99.9241 83.4286 99.5357 83.4286ZM90.75 76.1071C91.9151 76.1071 93.0324 76.57 93.8562 77.3938C94.68 78.2176 95.1429 79.3349 95.1429 80.5V83.4286H86.3571V80.5C86.3571 79.3349 86.82 78.2176 87.6438 77.3938C88.4676 76.57 89.5849 76.1071 90.75 76.1071ZM23.3929 96.6071C23.0375 96.6106 22.6931 96.4848 22.4237 96.2531C22.1543 96.0214 21.9783 95.6997 21.9286 95.3479V81.7593C21.9783 81.4075 22.1543 81.0857 22.4237 80.854C22.6931 80.6223 23.0375 80.4965 23.3929 80.5H83.4286V83.4286H81.9643C81.5759 83.4286 81.2035 83.5828 80.9289 83.8575C80.6543 84.1321 80.5 84.5045 80.5 84.8929V96.6071H23.3929ZM98.0714 98.0714H83.4286V86.3571H98.0714V98.0714ZM64.3929 24.8571H32.1786C31.0135 24.8571 29.8962 25.32 29.0724 26.1438C28.2485 26.9676 27.7857 28.0849 27.7857 29.25V30.7143C27.7857 31.8793 28.2485 32.9967 29.0724 33.8205C29.8962 34.6443 31.0135 35.1071 32.1786 35.1071H64.3929C65.5579 35.1071 66.6753 34.6443 67.4991 33.8205C68.3229 32.9967 68.7857 31.8793 68.7857 30.7143V29.25C68.7857 28.0849 68.3229 26.9676 67.4991 26.1438C66.6753 25.32 65.5579 24.8571 64.3929 24.8571ZM65.8571 30.7143C65.8571 31.1026 65.7029 31.4751 65.4283 31.7497C65.1537 32.0243 64.7812 32.1786 64.3929 32.1786H32.1786C31.7902 32.1786 31.4178 32.0243 31.1432 31.7497C30.8686 31.4751 30.7143 31.1026 30.7143 30.7143V29.25C30.7143 28.8616 30.8686 28.4892 31.1432 28.2146C31.4178 27.94 31.7902 27.7857 32.1786 27.7857H64.3929C64.7812 27.7857 65.1537 27.94 65.4283 28.2146C65.7029 28.4892 65.8571 28.8616 65.8571 29.25V30.7143ZM76.1071 24.8571C75.2383 24.8571 74.389 25.1148 73.6666 25.5975C72.9442 26.0802 72.3812 26.7662 72.0487 27.5689C71.7162 28.3716 71.6292 29.2549 71.7987 30.107C71.9682 30.9591 72.3866 31.7419 73.0009 32.3562C73.6153 32.9706 74.398 33.389 75.2501 33.5585C76.1023 33.7279 76.9855 33.641 77.7882 33.3085C78.5909 32.976 79.277 32.4129 79.7597 31.6905C80.2424 30.9681 80.5 30.1188 80.5 29.25C80.5 28.0849 80.0372 26.9676 79.2134 26.1438C78.3895 25.32 77.2722 24.8571 76.1071 24.8571ZM76.1071 30.7143C75.8175 30.7143 75.5344 30.6284 75.2936 30.4675C75.0528 30.3066 74.8652 30.0779 74.7543 29.8104C74.6435 29.5428 74.6145 29.2484 74.671 28.9643C74.7275 28.6803 74.867 28.4194 75.0717 28.2146C75.2765 28.0098 75.5374 27.8703 75.8215 27.8139C76.1055 27.7574 76.3999 27.7863 76.6675 27.8972C76.9351 28.008 77.1638 28.1957 77.3247 28.4365C77.4856 28.6773 77.5714 28.9604 77.5714 29.25C77.5714 29.6384 77.4172 30.0108 77.1426 30.2854C76.8679 30.56 76.4955 30.7143 76.1071 30.7143ZM87.8214 24.8571C86.9526 24.8571 86.1033 25.1148 85.3809 25.5975C84.6585 26.0802 84.0954 26.7662 83.763 27.5689C83.4305 28.3716 83.3435 29.2549 83.513 30.107C83.6825 30.9591 84.1009 31.7419 84.7152 32.3562C85.3296 32.9706 86.1123 33.389 86.9644 33.5585C87.8166 33.7279 88.6998 33.641 89.5025 33.3085C90.3052 32.976 90.9913 32.4129 91.474 31.6905C91.9566 30.9681 92.2143 30.1188 92.2143 29.25C92.2143 28.0849 91.7515 26.9676 90.9276 26.1438C90.1038 25.32 88.9865 24.8571 87.8214 24.8571ZM87.8214 30.7143C87.5318 30.7143 87.2487 30.6284 87.0079 30.4675C86.7671 30.3066 86.5794 30.0779 86.4686 29.8104C86.3578 29.5428 86.3288 29.2484 86.3853 28.9643C86.4418 28.6803 86.5812 28.4194 86.786 28.2146C86.9908 28.0098 87.2517 27.8703 87.5358 27.8139C87.8198 27.7574 88.1142 27.7863 88.3818 27.8972C88.6493 28.008 88.878 28.1957 89.0389 28.4365C89.1998 28.6773 89.2857 28.9604 89.2857 29.25C89.2857 29.6384 89.1314 30.0108 88.8568 30.2854C88.5822 30.56 88.2098 30.7143 87.8214 30.7143ZM64.3929 54.1429H32.1786C31.0135 54.1429 29.8962 54.6057 29.0724 55.4295C28.2485 56.2533 27.7857 57.3707 27.7857 58.5357V60C27.7857 61.1651 28.2485 62.2824 29.0724 63.1062C29.8962 63.93 31.0135 64.3929 32.1786 64.3929H64.3929C65.5579 64.3929 66.6753 63.93 67.4991 63.1062C68.3229 62.2824 68.7857 61.1651 68.7857 60V58.5357C68.7857 57.3707 68.3229 56.2533 67.4991 55.4295C66.6753 54.6057 65.5579 54.1429 64.3929 54.1429ZM65.8571 60C65.8571 60.3884 65.7029 60.7608 65.4283 61.0354C65.1537 61.31 64.7812 61.4643 64.3929 61.4643H32.1786C31.7902 61.4643 31.4178 61.31 31.1432 61.0354C30.8686 60.7608 30.7143 60.3884 30.7143 60V58.5357C30.7143 58.1474 30.8686 57.7749 31.1432 57.5003C31.4178 57.2257 31.7902 57.0714 32.1786 57.0714H64.3929C64.7812 57.0714 65.1537 57.2257 65.4283 57.5003C65.7029 57.7749 65.8571 58.1474 65.8571 58.5357V60ZM76.1071 54.1429C75.2383 54.1429 74.389 54.4005 73.6666 54.8832C72.9442 55.3659 72.3812 56.052 72.0487 56.8546C71.7162 57.6573 71.6292 58.5406 71.7987 59.3927C71.9682 60.2449 72.3866 61.0276 73.0009 61.6419C73.6153 62.2563 74.398 62.6747 75.2501 62.8442C76.1023 63.0137 76.9855 62.9267 77.7882 62.5942C78.5909 62.2617 79.277 61.6987 79.7597 60.9763C80.2424 60.2539 80.5 59.4045 80.5 58.5357C80.5 57.3707 80.0372 56.2533 79.2134 55.4295C78.3895 54.6057 77.2722 54.1429 76.1071 54.1429ZM76.1071 60C75.8175 60 75.5344 59.9141 75.2936 59.7532C75.0528 59.5923 74.8652 59.3636 74.7543 59.0961C74.6435 58.8285 74.6145 58.5341 74.671 58.25C74.7275 57.966 74.867 57.7051 75.0717 57.5003C75.2765 57.2955 75.5374 57.1561 75.8215 57.0996C76.1055 57.0431 76.3999 57.0721 76.6675 57.1829C76.9351 57.2937 77.1638 57.4814 77.3247 57.7222C77.4856 57.963 77.5714 58.2461 77.5714 58.5357C77.5714 58.9241 77.4172 59.2965 77.1426 59.5711C76.8679 59.8457 76.4955 60 76.1071 60ZM87.8214 54.1429C86.9526 54.1429 86.1033 54.4005 85.3809 54.8832C84.6585 55.3659 84.0954 56.052 83.763 56.8546C83.4305 57.6573 83.3435 58.5406 83.513 59.3927C83.6825 60.2449 84.1009 61.0276 84.7152 61.6419C85.3296 62.2563 86.1123 62.6747 86.9644 62.8442C87.8166 63.0137 88.6998 62.9267 89.5025 62.5942C90.3052 62.2617 90.9913 61.6987 91.474 60.9763C91.9566 60.2539 92.2143 59.4045 92.2143 58.5357C92.2143 57.3707 91.7515 56.2533 90.9276 55.4295C90.1038 54.6057 88.9865 54.1429 87.8214 54.1429ZM87.8214 60C87.5318 60 87.2487 59.9141 87.0079 59.7532C86.7671 59.5923 86.5794 59.3636 86.4686 59.0961C86.3578 58.8285 86.3288 58.5341 86.3853 58.25C86.4418 57.966 86.5812 57.7051 86.786 57.5003C86.9908 57.2955 87.2517 57.1561 87.5358 57.0996C87.8198 57.0431 88.1142 57.0721 88.3818 57.1829C88.6493 57.2937 88.878 57.4814 89.0389 57.7222C89.1998 57.963 89.2857 58.2461 89.2857 58.5357C89.2857 58.9241 89.1314 59.2965 88.8568 59.5711C88.5822 59.8457 88.2098 60 87.8214 60ZM64.3929 83.4286H32.1786C31.0135 83.4286 29.8962 83.8914 29.0724 84.7152C28.2485 85.539 27.7857 86.6564 27.7857 87.8214V89.2857C27.7857 90.4508 28.2485 91.5681 29.0724 92.3919C29.8962 93.2158 31.0135 93.6786 32.1786 93.6786H64.3929C65.5579 93.6786 66.6753 93.2158 67.4991 92.3919C68.3229 91.5681 68.7857 90.4508 68.7857 89.2857V87.8214C68.7857 86.6564 68.3229 85.539 67.4991 84.7152C66.6753 83.8914 65.5579 83.4286 64.3929 83.4286ZM65.8571 89.2857C65.8571 89.6741 65.7029 90.0465 65.4283 90.3211C65.1537 90.5957 64.7812 90.75 64.3929 90.75H32.1786C31.7902 90.75 31.4178 90.5957 31.1432 90.3211C30.8686 90.0465 30.7143 89.6741 30.7143 89.2857V87.8214C30.7143 87.4331 30.8686 87.0606 31.1432 86.786C31.4178 86.5114 31.7902 86.3571 32.1786 86.3571H64.3929C64.7812 86.3571 65.1537 86.5114 65.4283 86.786C65.7029 87.0606 65.8571 87.4331 65.8571 87.8214V89.2857Z" fill="black"/>
</svg>
