<svg width="120" height="120" viewBox="0 0 120 120" fill="none" xmlns="http://www.w3.org/2000/svg">
<path d="M94.6915 38.7084C91.7841 31.8388 85.5768 20.7544 80.7977 22.7508C80.3151 22.9531 79.6868 23.4038 79.2082 24.283L69.6851 34.9942C66.6929 38.3553 62.9144 41.0516 58.7592 42.7906C55.7635 43.8251 53.1354 45.8454 51.9736 48.8583C48.8918 55.8846 55.4042 63.9499 62.8019 62.6611C62.8017 62.6612 70.4612 80.7546 70.4612 80.7546C70.8072 81.578 71.7647 81.9511 72.5619 81.6108L78.9944 78.9183C79.7992 78.5988 80.2072 77.6012 79.8537 76.8097C79.8537 76.8097 72.5872 59.6452 72.5872 59.6452C77.4566 58.426 89.1523 59.7259 94.2208 59.8204C94.9715 60.0595 95.7224 60.0673 96.4509 59.759C101.541 57.0304 97.2385 45.1142 94.6915 38.7084ZM91.7315 39.9609C95.7217 49.3865 96.0841 55.951 95.2667 56.7786C93.6003 56.435 91.5056 53.8251 88.5725 48.823C90.8138 47.3613 91.7183 44.3173 90.625 41.8544C89.5145 39.2308 86.663 37.8749 83.9679 38.5205C81.776 31.7128 81.0882 27.7878 82.0235 25.7341C83.3496 25.7731 87.7705 30.604 91.7315 39.9609ZM87.6909 45.0412C87.5484 45.3885 87.3236 45.6753 87.0527 45.9204C86.4047 44.5958 85.7011 43.0413 85.1209 41.5762C86.9066 41.3636 88.4375 43.3757 87.6909 45.0412ZM54.9861 55.3323C53.23 51.148 55.8185 46.9787 60.0007 45.7555C60.2864 45.6357 60.5655 45.4998 60.848 45.3721C60.863 50.3621 62.6716 54.638 66.2474 58.138C65.702 58.3536 64.6327 58.769 64.0852 59.0151C60.5531 60.4927 56.4724 58.8409 54.9861 55.3323ZM76.2643 76.5767L72.7973 78.0277L65.9016 61.7392C67.0472 61.2474 68.2347 60.7886 69.4295 60.4308L76.2643 76.5767ZM69.8051 56.9879C65.5245 53.5022 63.6694 49.124 64.1523 43.6492C67.1083 41.8923 69.8067 39.692 72.0872 37.1311L78.5739 29.8351C79.0057 34.1247 80.7489 39.5301 82.5571 43.8021C84.3079 47.9205 86.9751 53.009 89.8114 56.3837C83.8347 56.1196 75.5708 55.1955 69.8051 56.9879Z" fill="black"/>
<path d="M69.8445 82.3352H48.2901C46.5629 82.3352 45.1582 83.7407 45.1582 85.4679V101.867C45.1582 103.595 46.5629 105 48.2901 105H69.8445C71.5717 105 72.9764 103.595 72.9764 101.867V85.4679C72.9764 83.7407 71.5717 82.3352 69.8445 82.3352ZM59.0677 94.3025L50.5647 85.5409L67.6336 85.4759L59.0677 94.3025ZM48.3016 87.8248L55.0501 94.7806L48.3634 100.069L48.3016 87.8248ZM57.2992 97.0988C57.7614 97.586 58.3219 98.2717 59.0677 98.2206C59.8118 98.273 60.3758 97.5844 60.8358 97.0991C60.8358 97.0992 66.7757 101.797 66.7757 101.797L51.2842 101.856L57.2992 97.0988ZM63.0849 94.7809L69.7621 87.8987V100.062L63.0849 94.7809Z" fill="black"/>
<path d="M32.697 36.4233H46.3373L51.65 41.1506C52.6274 42.0764 54.3694 41.2953 54.3251 39.9499C54.3251 39.95 54.3251 36.3614 54.3251 36.3614C56.3623 36.0121 57.9169 34.2394 57.9169 32.1112V19.3121C57.9169 16.9344 55.9754 15 53.5898 15H32.697C30.3106 15 28.3691 16.9344 28.3691 19.3121V32.1112C28.3691 34.489 30.3106 36.4233 32.697 36.4233ZM31.5834 19.3121C31.5834 18.7071 32.0833 18.2143 32.697 18.2143H53.5898C54.2035 18.2143 54.7026 18.7071 54.7026 19.3121V32.1112C54.7026 32.7162 54.2035 33.2091 53.5898 33.2091H52.718C51.8305 33.2091 51.1109 33.9287 51.1109 34.8162V36.3684L48.0166 33.6156C47.7224 33.3535 47.3426 33.2091 46.9486 33.2091H32.697C32.0833 33.2091 31.5834 32.7163 31.5834 32.1112V19.3121Z" fill="black"/>
<path d="M39.8507 65.3638L34.0177 61.7532C32.1905 60.5433 29.5348 62.0097 29.6028 64.2048C29.6028 64.2047 29.6028 71.4243 29.6028 71.4243C29.6028 72.468 30.1702 73.4325 31.0828 73.9418C32.0003 74.4529 33.1248 74.4284 34.0193 73.8751L39.8507 70.2653C41.6517 69.2281 41.6531 66.4008 39.8507 65.3638ZM32.8171 70.8389V64.7901L37.7036 67.8145L32.8171 70.8389Z" fill="black"/>
<path d="M34.6858 54.4983C27.1398 54.4983 21 60.6075 21 68.1166C21.7509 86.1844 47.6246 86.1782 48.3725 68.1165C48.3724 60.6075 42.2326 54.4983 34.6858 54.4983ZM34.6858 78.5215C28.9117 78.5215 24.2143 73.8538 24.2143 68.1166C24.7398 54.3333 44.6344 54.3378 45.1582 68.1168C45.1582 73.8538 40.4599 78.5215 34.6858 78.5215Z" fill="black"/>
<path d="M37.2288 27.4784C39.3413 27.4426 39.3409 24.2997 37.2287 24.2642C35.1163 24.3 35.1166 27.4428 37.2288 27.4784Z" fill="black"/>
<path d="M43.1448 27.4784C45.2573 27.4426 45.257 24.2997 43.1447 24.2642C41.0323 24.3 41.0326 27.4428 43.1448 27.4784Z" fill="black"/>
<path d="M49.0598 27.4784C51.1723 27.4425 51.172 24.2997 49.0598 24.2642C46.9474 24.3 46.9477 27.4428 49.0598 27.4784Z" fill="black"/>
</svg>
