<svg xmlns="http://www.w3.org/2000/svg" xmlns:xlink="http://www.w3.org/1999/xlink" version="1.1" x="0px" y="0px" viewBox="0 0 500 625" style="enable-background:new 0 0 500 500;" xml:space="preserve"><path d="M351.18,31.16H63.21c-17.34,0-31.45,14.11-31.45,31.45v383.06c0,17.34,14.11,31.45,31.45,31.45h287.97  c17.34,0,31.45-14.11,31.45-31.45V62.61C382.63,45.27,368.53,31.16,351.18,31.16z M63.21,45.16h287.97  c9.62,0,17.45,7.83,17.45,17.45v328H45.76v-328C45.76,52.99,53.59,45.16,63.21,45.16z M351.18,463.12H63.21  c-9.62,0-17.45-7.83-17.45-17.45v-41.05h322.87v41.05C368.63,455.29,360.81,463.12,351.18,463.12z M207.2,410.46  c-12.66,0-22.96,10.3-22.96,22.96s10.3,22.96,22.96,22.96c12.66,0,22.96-10.3,22.96-22.96S219.86,410.46,207.2,410.46z   M207.2,442.38c-4.94,0-8.96-4.02-8.96-8.96s4.02-8.96,8.96-8.96c4.94,0,8.96,4.02,8.96,8.96S212.14,442.38,207.2,442.38z   M82.23,113.76h249.94c3.87,0,7-3.13,7-7V80.95c0-3.87-3.13-7-7-7H82.23c-3.87,0-7,3.13-7,7v25.81  C75.23,110.62,78.36,113.76,82.23,113.76z M89.23,87.95h235.94v11.81H89.23V87.95z M75.23,164.49c0-3.87,3.13-7,7-7h160.29  c3.87,0,7,3.13,7,7s-3.13,7-7,7H82.23C78.36,171.49,75.23,168.35,75.23,164.49z M74.89,196.41c0-3.87,3.13-7,7-7h250.62  c3.87,0,7,3.13,7,7s-3.13,7-7,7H81.89C78.02,203.41,74.89,200.28,74.89,196.41z M74.89,228.33c0-3.87,3.13-7,7-7h250.62  c3.87,0,7,3.13,7,7s-3.13,7-7,7H81.89C78.02,235.33,74.89,232.2,74.89,228.33z M74.89,260.25c0-3.87,3.13-7,7-7h250.62  c3.87,0,7,3.13,7,7s-3.13,7-7,7H81.89C78.02,267.25,74.89,264.12,74.89,260.25z M464.2,7.34c-21-9.82-46.08-9.82-67.08,0  c-2.46,1.15-4.04,3.62-4.04,6.34v400.64c0,0.87,0.16,1.73,0.48,2.54l30.57,78.67c1.05,2.69,3.64,4.46,6.52,4.46  c2.89,0,5.48-1.77,6.52-4.46l30.58-78.67c0.31-0.81,0.48-1.67,0.48-2.54V13.68C468.24,10.97,466.67,8.49,464.2,7.34z M454.24,18.31  v385.26c-15.28-5.41-31.87-5.41-47.15,0V18.31C422.13,12.52,439.2,12.52,454.24,18.31z M430.66,473.68l-21.69-55.82  c13.93-5.76,29.46-5.76,43.39,0L430.66,473.68z M74.89,296.59c0-3.87,3.13-7,7-7h177.1c3.87,0,7,3.13,7,7s-3.13,7-7,7H81.89  C78.02,303.59,74.89,300.45,74.89,296.59z"/><text x="0" y="515" fill="#000000" font-size="5px" font-weight="bold" font-family="'Helvetica Neue', Helvetica, Arial-Unicode, Arial, Sans-serif">Created by Slamlabs</text><text x="0" y="520" fill="#000000" font-size="5px" font-weight="bold" font-family="'Helvetica Neue', Helvetica, Arial-Unicode, Arial, Sans-serif">from the Noun Project</text></svg>