<svg xmlns="http://www.w3.org/2000/svg" viewBox="0 0 64 80" x="0px" y="0px"><path d="m53.65576,18.75195c-1.80908-4.27441-5.67139-11.17139-8.64502-9.9292-.30029.12592-.69128.40631-.98907.95337l-5.92548,6.66479c-1.86182,2.09131-4.21289,3.76904-6.79834,4.85107-1.86395.64368-3.49925,1.90078-4.22212,3.77545-1.9176,4.3719,2.13456,9.39037,6.73763,8.58839-.00013.00011,4.76574,11.25823,4.76574,11.25823.2153.51231.81106.74444,1.30713.53271,0,0,4.00244-1.67529,4.00244-1.67529.50078-.19884.75461-.81959.53466-1.31202.00001,0-4.52135-10.68017-4.52135-10.68017,3.02983-.75859,10.30718.0502,13.46089.10901.46709.14878.93432.15366,1.38762-.03822,3.16727-1.69774.49005-9.11229-1.09473-13.09814Zm-1.8418.7793c2.4828,5.86482,2.70829,9.94943,2.19971,10.46436-1.0369-.21379-2.34025-1.83771-4.16529-4.95016,1.39456-.9095,1.95736-2.80351,1.27708-4.33597-.69095-1.6325-2.46524-2.47613-4.14218-2.07446-1.36387-4.23588-1.79181-6.67809-1.20987-7.95598.82517.02428,3.57596,3.0302,6.04056,8.85222Zm-2.51416,3.16113c-.08862.21606-.22852.39453-.39709.54706-.4032-.82423-.84098-1.79148-1.20203-2.70306,1.11112-.13228,2.06367,1.11965,1.59912,2.15601Zm-20.34961,6.40332c-1.09273-2.60357.51792-5.19776,3.12018-5.9589.17779-.07455.35144-.15908.52722-.23855.00928,3.10486,1.13464,5.76544,3.35962,7.94324-.33937.13414-1.00472.39258-1.34539.54575-2.19776.9194-4.73683-.10843-5.66163-2.29154Zm13.23975,13.21875l-2.15723.90283-4.29065-10.13507c.71281-.30599,1.45166-.59148,2.19513-.81408,0,0,4.25274,10.04632,4.25274,10.04632Zm-4.01904-12.1886c-2.66351-2.16888-3.81781-4.89307-3.51733-8.29962,1.83929-1.0932,3.51831-2.46228,4.93726-4.05573l4.03619-4.53973c.26868,2.66907,1.35333,6.03247,2.47845,8.69061,1.08937,2.56254,2.74899,5.72874,4.51379,7.82855-3.71884-.16433-8.86084-.73933-12.44836.37592Z"/><path d="m38.1958,45.89746h-13.41162c-1.07471,0-1.94873.87451-1.94873,1.94922v10.2041c0,1.07471.87402,1.94922,1.94873,1.94922h13.41162c1.07471,0,1.94873-.87451,1.94873-1.94922v-10.2041c0-1.07471-.87402-1.94922-1.94873-1.94922Zm-6.70557,7.44629l-5.29071-5.45166,10.62061-.04041-5.3299,5.49207Zm-6.69891-4.03052l4.1991,4.32806-4.16064,3.29065-.03845-7.61871Zm5.59851,5.77045c.28761.30317.63634.72984,1.10042.69803.46302.0326.81392-.39584,1.10014-.69782,0,.00003,3.69593,2.92319,3.69593,2.92319l-9.63916.0368,3.74268-2.96021Zm3.60004-1.4422l4.15466-4.28229v7.5683l-4.15466-3.28601Z"/><path d="m15.08203,17.33008h8.4873l3.30566,2.94141c.60818.57605,1.69207.09003,1.66453-.74711.00002.00004.00002-2.23287.00002-2.23287,1.26758-.21729,2.23486-1.32031,2.23486-2.64453v-7.96387c0-1.47949-1.20801-2.68311-2.69238-2.68311h-13c-1.48486,0-2.69287,1.20361-2.69287,2.68311v7.96387c0,1.47949,1.20801,2.68311,2.69287,2.68311Zm-.69287-10.64697c0-.37646.31104-.68311.69287-.68311h13c.38184,0,.69238.30664.69238.68311v7.96387c0,.37646-.31055.68311-.69238.68311h-.54248c-.55225,0-1,.44775-1,1v.96582l-1.92529-1.71289c-.18311-.16309-.41943-.25293-.66455-.25293h-8.86768c-.38184,0-.69287-.30664-.69287-.68311v-7.96387Z"/><path d="m19.53369,35.3374l-3.62939-2.24658c-1.13695-.75282-2.78936.15959-2.74704,1.52544-.00003-.00005-.00003,4.49214-.00003,4.49214,0,.64941.35303,1.24951.9209,1.56641.57089.31806,1.27058.30279,1.82715-.0415l3.62842-2.24609c1.12065-.64532,1.12153-2.40453,0-3.0498Zm-4.37646,3.40674v-3.76367l3.04053,1.88184-3.04053,1.88184Z"/><path d="m16.31934,28.57666c-4.69531,0-8.51562,3.80127-8.51562,8.47363.4672,11.24215,16.56639,11.23834,17.03175-.00006-.00002-4.6723-3.82033-8.47357-8.51613-8.47357Zm0,14.94775c-3.59277,0-6.51562-2.9043-6.51562-6.47412.32699-8.57627,12.70587-8.57346,13.03175.00008,0,3.56974-2.92335,6.47404-6.51612,6.47404Z"/><path d="m17.90137,11.76434c1.31443-.02233,1.31424-1.97789-.00004-2-1.31438.02229-1.3142,1.97785.00004,2Z"/><path d="m21.58197,11.76434c1.31443-.02233,1.31424-1.97789-.00004-2-1.31437.02232-1.31419,1.97782.00004,2Z"/><path d="m25.26263,11.76434c1.31442-.02236,1.31422-1.97786-.00004-2-1.31438.02229-1.3142,1.97785.00004,2Z"/><text x="0" y="79" fill="#000000" font-size="5px" font-weight="bold" font-family="'Helvetica Neue', Helvetica, Arial-Unicode, Arial, Sans-serif">Created by sentya irma</text><text x="0" y="84" fill="#000000" font-size="5px" font-weight="bold" font-family="'Helvetica Neue', Helvetica, Arial-Unicode, Arial, Sans-serif">from the Noun Project</text></svg>