<svg xmlns="http://www.w3.org/2000/svg" viewBox="0 0 64 80" x="0px" y="0px"><title>Artboard 3</title><g data-name="Layer 99"><path d="M57,4H7A3,3,0,0,0,4,7v9a3,3,0,0,0,3,3H57a3,3,0,0,0,3-3V7A3,3,0,0,0,57,4Zm1,12a1,1,0,0,1-1,1H7a1,1,0,0,1-1-1V7A1,1,0,0,1,7,6H57a1,1,0,0,1,1,1Zm-1,8H7a3,3,0,0,0-3,3v9a3,3,0,0,0,3,3H57a3,3,0,0,0,3-3V27A3,3,0,0,0,57,24Zm1,12a1,1,0,0,1-1,1H7a1,1,0,0,1-1-1V27a1,1,0,0,1,1-1H57a1,1,0,0,1,1,1Zm1,12H58V46a5,5,0,0,0-9.58-2H7a2.94,2.94,0,0,0-3,2.86v9.28A2.94,2.94,0,0,0,7,59H46a1,1,0,0,0,1,1H59a1,1,0,0,0,1-1V49A1,1,0,0,0,59,48Zm-6-5a3,3,0,0,1,3,3v2H50V46A3,3,0,0,1,53,43ZM7,57a1,1,0,0,1-1-.86V46.86A1,1,0,0,1,7,46H48v2H47a1,1,0,0,0-1,1v8Zm51,1H48V50H58ZM35,8H13a3,3,0,0,0-3,3v1a3,3,0,0,0,3,3H35a3,3,0,0,0,3-3V11A3,3,0,0,0,35,8Zm1,4a1,1,0,0,1-1,1H13a1,1,0,0,1-1-1V11a1,1,0,0,1,1-1H35a1,1,0,0,1,1,1Zm7-4a3,3,0,1,0,3,3A3,3,0,0,0,43,8Zm0,4a1,1,0,1,1,1-1A1,1,0,0,1,43,12Zm8-4a3,3,0,1,0,3,3A3,3,0,0,0,51,8Zm0,4a1,1,0,1,1,1-1A1,1,0,0,1,51,12ZM35,28H13a3,3,0,0,0-3,3v1a3,3,0,0,0,3,3H35a3,3,0,0,0,3-3V31A3,3,0,0,0,35,28Zm1,4a1,1,0,0,1-1,1H13a1,1,0,0,1-1-1V31a1,1,0,0,1,1-1H35a1,1,0,0,1,1,1Zm7-4a3,3,0,1,0,3,3A3,3,0,0,0,43,28Zm0,4a1,1,0,1,1,1-1A1,1,0,0,1,43,32Zm8-4a3,3,0,1,0,3,3A3,3,0,0,0,51,28Zm0,4a1,1,0,1,1,1-1A1,1,0,0,1,51,32ZM35,48H13a3,3,0,0,0-3,3v1a3,3,0,0,0,3,3H35a3,3,0,0,0,3-3V51A3,3,0,0,0,35,48Zm1,4a1,1,0,0,1-1,1H13a1,1,0,0,1-1-1V51a1,1,0,0,1,1-1H35a1,1,0,0,1,1,1Z"/></g><text x="0" y="79" fill="#000000" font-size="5px" font-weight="bold" font-family="'Helvetica Neue', Helvetica, Arial-Unicode, Arial, Sans-serif">Created by Jejen Juliansyah Nur Agung</text><text x="0" y="84" fill="#000000" font-size="5px" font-weight="bold" font-family="'Helvetica Neue', Helvetica, Arial-Unicode, Arial, Sans-serif">from the Noun Project</text></svg>