<svg xmlns="http://www.w3.org/2000/svg" data-name="Layer 1" viewBox="0 0 100 125" x="0px" y="0px"><defs><style>.cls-1{fill-rule:evenodd;}</style></defs><title>a</title><path class="cls-1" d="M72.61,46.614h8.407a1.33,1.33,0,0,1,1.33,1.331v5.166l1.486.569V24.7H2.66V69.435c0,3.78,2.591,7.388,6.267,7.388H60.69l-.568-1.486H54.955a1.331,1.331,0,0,1-1.331-1.331V65.6a1.33,1.33,0,0,1,1.331-1.33h5.166a17.738,17.738,0,0,1,.977-2.354L57.444,58.26a1.33,1.33,0,0,1,0-1.882l5.944-5.944a1.33,1.33,0,0,1,1.882,0l3.654,3.653a17.718,17.718,0,0,1,2.355-.975V47.945a1.331,1.331,0,0,1,1.331-1.331Zm-12.4-8.523a1.331,1.331,0,1,1,0-2.662H77.365a1.331,1.331,0,1,1,0,2.662Zm5.07-7.078a1.331,1.331,0,1,1,0-2.661H77.365a1.331,1.331,0,1,1,0,2.661ZM11.229,69.834a1.331,1.331,0,1,1,0-2.662H48.748a1.331,1.331,0,1,1,0,2.662Zm0-8.15a1.331,1.331,0,0,1,0-2.662H52.623a1.331,1.331,0,0,1,0,2.662Zm0-8.151a1.331,1.331,0,1,1,0-2.661H56.444a1.331,1.331,0,1,1,0,2.661ZM21.251,32.249a1.329,1.329,0,0,1,2.568.686L20.666,44.7a1.329,1.329,0,0,1-2.568-.686l3.153-11.768ZM25.3,34.282A1.326,1.326,0,1,1,26.9,32.161L33.9,37.416a1.33,1.33,0,0,1-.023,2.137L26.9,44.791A1.326,1.326,0,1,1,25.3,42.67L30.9,38.476,25.3,34.282ZM15.023,32.161a1.325,1.325,0,0,1,1.59,2.121l-5.592,4.194,5.592,4.194a1.325,1.325,0,0,1-1.59,2.121L8.039,39.553a1.329,1.329,0,0,1-.022-2.137l7.006-5.255ZM27.59,17.185a1.331,1.331,0,1,1,0-2.661H58.9a1.331,1.331,0,1,1,0,2.661Zm-8.7-3.977a2.646,2.646,0,1,1-2.646,2.646,2.649,2.649,0,0,1,2.646-2.646Zm-7.448,0A2.647,2.647,0,1,1,8.8,15.854a2.65,2.65,0,0,1,2.646-2.646Zm-2.517-6.2H77.566c5.171,0,8.929,4.824,8.929,10.05V52.294l1.861-1.86a1.33,1.33,0,0,1,1.882,0l5.944,5.944a1.33,1.33,0,0,1,0,1.882l-3.654,3.654a17.59,17.59,0,0,1,.976,2.355h5.167A1.33,1.33,0,0,1,100,65.6v8.407a1.331,1.331,0,0,1-1.331,1.331H93.505a17.738,17.738,0,0,1-.977,2.354l3.654,3.655a1.33,1.33,0,0,1,0,1.882l-5.944,5.944a1.33,1.33,0,0,1-1.882,0L84.7,85.518a17.59,17.59,0,0,1-2.355.976v5.167a1.33,1.33,0,0,1-1.33,1.331H72.61a1.331,1.331,0,0,1-1.331-1.331V86.5a17.738,17.738,0,0,1-2.354-.977L65.27,89.172a1.33,1.33,0,0,1-1.882,0l-5.944-5.944a1.33,1.33,0,0,1,0-1.882l1.861-1.861H8.927C3.756,79.485,0,74.661,0,69.435V17.058c0-5.226,3.758-10.05,8.929-10.05ZM77.566,9.67H8.927c-3.676,0-6.267,3.608-6.267,7.388v4.981H83.833V17.058c0-3.78-2.591-7.388-6.267-7.388Zm-.753,49.964A10.169,10.169,0,1,1,66.644,69.8,10.169,10.169,0,0,1,76.813,59.634Zm5.308,4.86a7.507,7.507,0,1,1-10.616,0,7.507,7.507,0,0,1,10.616,0ZM79.686,49.276V54.1a1.33,1.33,0,0,0,1.054,1.3,15.06,15.06,0,0,1,3.539,1.475,1.329,1.329,0,0,0,1.6-.21l3.414-3.41,4.063,4.063-3.412,3.412a1.332,1.332,0,0,0-.165,1.682,14.877,14.877,0,0,1,1.449,3.529,1.331,1.331,0,0,0,1.284.987H97.34v5.746H92.516a1.33,1.33,0,0,0-1.3,1.054,14.873,14.873,0,0,1-1.475,3.539,1.327,1.327,0,0,0,.21,1.6l0,0,3.412,3.412L89.3,86.349l-3.412-3.411a1.332,1.332,0,0,0-1.682-.165,14.867,14.867,0,0,1-3.53,1.449,1.331,1.331,0,0,0-.986,1.284h0V90.33H73.94V85.506a1.332,1.332,0,0,0-1.054-1.3,14.87,14.87,0,0,1-3.539-1.474,1.327,1.327,0,0,0-1.6.21l0,0-3.412,3.411-4.063-4.062,3.412-3.412a1.332,1.332,0,0,0,.165-1.682,14.867,14.867,0,0,1-1.449-3.53,1.331,1.331,0,0,0-1.284-.986H56.286V66.93H61.11a1.33,1.33,0,0,0,1.3-1.054,14.873,14.873,0,0,1,1.475-3.539,1.327,1.327,0,0,0-.21-1.6l0,0-3.412-3.412,4.063-4.063,3.412,3.412a1.331,1.331,0,0,0,1.682.164,14.968,14.968,0,0,1,3.53-1.449,1.329,1.329,0,0,0,.986-1.284h0V49.276Z"/><text x="0" y="115" fill="#000000" font-size="5px" font-weight="bold" font-family="'Helvetica Neue', Helvetica, Arial-Unicode, Arial, Sans-serif">Created by HAZHA</text><text x="0" y="120" fill="#000000" font-size="5px" font-weight="bold" font-family="'Helvetica Neue', Helvetica, Arial-Unicode, Arial, Sans-serif">from the Noun Project</text></svg>